STARTFONT 2.1
FONT -FontForge-Good Times Rg-Book-R-Normal--177-1700-75-75-P-1313-ISO10646-1
SIZE 170 75 75
FONTBOUNDINGBOX 352 209 -49 -36
COMMENT "Generated by fontforge, http://fontforge.sourceforge.net"
COMMENT "(c) 1998-2012 Typodermic Fonts Inc. See attached license agreement. If agreement is missing visit typodermicfonts.com for more info. Languages by Chikako Larabie"
STARTPROPERTIES 39
FOUNDRY "FontForge"
FAMILY_NAME "Good Times Rg"
WEIGHT_NAME "Book"
SLANT "R"
SETWIDTH_NAME "Normal"
ADD_STYLE_NAME ""
PIXEL_SIZE 177
POINT_SIZE 1700
RESOLUTION_X 75
RESOLUTION_Y 75
SPACING "P"
AVERAGE_WIDTH 1313
CHARSET_REGISTRY "ISO10646"
CHARSET_ENCODING "1"
FONTNAME_REGISTRY ""
CHARSET_COLLECTIONS "ISO8859-2 ISO8859-9 ISO8859-4 ISO10646-1"
FONT_NAME "GoodTimesRg-Regular"
FACE_NAME "GoodTimesRg-Regular"
COPYRIGHT "(c) 1998-2012 Typodermic Fonts Inc. See attached license agreement. If agreement is missing visit typodermicfonts.com for more info. Languages by Chikako Larabie"
FONT_VERSION "4.001"
FONT_ASCENT 141
FONT_DESCENT 36
UNDERLINE_POSITION -25
UNDERLINE_THICKNESS 4
X_HEIGHT 128
CAP_HEIGHT 128
RAW_ASCENT 799
RAW_DESCENT 201
NORM_SPACE 52
RELATIVE_WEIGHT 40
RELATIVE_SETWIDTH 50
SUPERSCRIPT_X 0
SUPERSCRIPT_Y 53
SUPERSCRIPT_SIZE 53
SUBSCRIPT_X 0
SUBSCRIPT_Y 0
SUBSCRIPT_SIZE 53
AVG_LOWERCASE_WIDTH 1507
AVG_UPPERCASE_WIDTH 1501
ENDPROPERTIES
CHARS 372
STARTCHAR space
ENCODING 32
SWIDTH 294 0
DWIDTH 52 0
BBX 1 1 0 0
BITMAP
00
ENDCHAR
STARTCHAR exclam
ENCODING 33
SWIDTH 298 0
DWIDTH 53 0
BBX 24 129 15 0
BITMAP
7FFFFC
7FFFFC
7FFFFC
7FFFFC
7FFFFC
7FFFFC
7FFFFC
7FFFFC
7FFFFC
7FFFFC
7FFFFC
7FFFFC
7FFFFC
7FFFFC
7FFFFC
7FFFFC
7FFFFC
7FFFFC
7FFFFC
7FFFFC
7FFFFC
7FFFFC
7FFFFC
7FFFFC
7FFFFC
7FFFFC
7FFFFC
7FFFFC
7FFFFC
7FFFFC
7FFFFC
7FFFFC
7FFFFC
7FFFFC
7FFFFC
7FFFFC
7FFFFC
7FFFFC
7FFFFC
7FFFFC
7FFFFC
7FFFFC
7FFFFC
7FFFFC
7FFFFC
7FFFFC
7FFFFC
7FFFFC
7FFFFC
7FFFFC
7FFFFC
7FFFFC
7FFFFC
7FFFFC
7FFFFC
7FFFFC
7FFFFC
7FFFFC
7FFFFC
7FFFFC
7FFFFC
7FFFFC
7FFFFC
7FFFFC
7FFFFC
7FFFFC
7FFFFC
7FFFFC
7FFFFC
7FFFFC
7FFFFC
7FFFFC
7FFFFC
7FFFFC
7FFFFC
7FFFFC
7FFFFC
7FFFFC
7FFFFC
7FFFFC
7FFFFC
7FFFFC
7FFFFC
7FFFFC
7FFFFC
7FFFFC
7FFFFC
7FFFFC
000000
000000
000000
000000
000000
000000
000000
000000
000000
000000
000000
000000
000000
000000
000000
000000
000000
00FF00
03FFC0
0FFFE0
1FFFF8
3FFFF8
7FFFFC
7FFFFE
FFFFFE
FFFFFE
FFFFFF
FFFFFF
FFFFFF
FFFFFF
FFFFFF
FFFFFF
FFFFFE
FFFFFE
7FFFFE
7FFFFC
3FFFF8
1FFFF8
0FFFE0
03FFC0
00FE00
ENDCHAR
STARTCHAR quotedbl
ENCODING 34
SWIDTH 452 0
DWIDTH 80 0
BBX 56 46 12 83
BITMAP
FFFFFE007FFFFF
FFFFFE007FFFFF
FFFFFE007FFFFF
FFFFFE007FFFFF
FFFFFC003FFFFF
7FFFFC003FFFFE
7FFFFC003FFFFE
7FFFFC003FFFFE
7FFFFC003FFFFE
7FFFFC003FFFFE
7FFFFC003FFFFE
7FFFFC003FFFFE
7FFFFC003FFFFE
7FFFFC003FFFFE
7FFFFC003FFFFE
7FFFFC001FFFFE
7FFFF8001FFFFE
3FFFF8001FFFFC
3FFFF8001FFFFC
3FFFF8001FFFFC
3FFFF8001FFFFC
3FFFF8001FFFFC
3FFFF8001FFFFC
3FFFF8001FFFFC
3FFFF8001FFFFC
3FFFF8001FFFFC
3FFFF8000FFFFC
3FFFF0000FFFFC
1FFFF0000FFFF8
1FFFF0000FFFF8
1FFFF0000FFFF8
1FFFF0000FFFF8
1FFFF0000FFFF8
1FFFF0000FFFF8
1FFFF0000FFFF8
1FFFF0000FFFF8
1FFFF00007FFF8
1FFFF00007FFF8
1FFFE00007FFF8
0FFFE00007FFF0
0FFFE00007FFF0
0FFFE00007FFF0
0FFFE00007FFF0
0FFFE00007FFF0
0FFFE00007FFF0
0FFFE00007FFF0
ENDCHAR
STARTCHAR numbersign
ENCODING 35
SWIDTH 697 0
DWIDTH 123 0
BBX 108 129 8 0
BITMAP
00000000000FFFF0000003FFFC00
00000000000FFFF0000003FFFC00
00000000001FFFE0000003FFFC00
00000000001FFFE0000007FFF800
00000000001FFFE0000007FFF800
00000000003FFFC0000007FFF800
00000000003FFFC000000FFFF000
00000000003FFFC000000FFFF000
00000000007FFFC000000FFFF000
00000000007FFF8000001FFFE000
00000000007FFF8000001FFFE000
00000000007FFF8000001FFFE000
0000000000FFFF0000001FFFE000
0000000000FFFF0000003FFFC000
0000000000FFFF0000003FFFC000
0000000001FFFE0000003FFFC000
0000000001FFFE0000007FFF8000
0000000001FFFE0000007FFF8000
0000000003FFFE0000007FFF8000
0000000003FFFC000000FFFF0000
0000000003FFFC000000FFFF0000
0000000003FFFC000000FFFF0000
0000000007FFF8000000FFFF0000
0000000007FFF8000001FFFE0000
0000000007FFF8000001FFFE0000
000000000FFFF0000001FFFE0000
000000000FFFF0000003FFFC0000
000000000FFFF0000003FFFC0000
000000001FFFF0000003FFFC0000
000000001FFFE0000007FFF80000
000000001FFFE0000007FFF80000
000000001FFFE0000007FFF80000
000000003FFFC0000007FFF80000
0007FFFFFFFFFFFFFFFFFFFFFFF0
0007FFFFFFFFFFFFFFFFFFFFFFF0
0007FFFFFFFFFFFFFFFFFFFFFFF0
0007FFFFFFFFFFFFFFFFFFFFFFF0
0007FFFFFFFFFFFFFFFFFFFFFFF0
0007FFFFFFFFFFFFFFFFFFFFFFF0
0007FFFFFFFFFFFFFFFFFFFFFFF0
0007FFFFFFFFFFFFFFFFFFFFFFF0
0007FFFFFFFFFFFFFFFFFFFFFFF0
0007FFFFFFFFFFFFFFFFFFFFFFF0
0007FFFFFFFFFFFFFFFFFFFFFFF0
0007FFFFFFFFFFFFFFFFFFFFFFF0
0007FFFFFFFFFFFFFFFFFFFFFFF0
0007FFFFFFFFFFFFFFFFFFFFFFF0
0007FFFFFFFFFFFFFFFFFFFFFFF0
00000007FFF8000000FFFF000000
00000007FFF8000001FFFE000000
00000007FFF8000001FFFE000000
0000000FFFF0000001FFFE000000
0000000FFFF0000003FFFC000000
0000000FFFF0000003FFFC000000
0000000FFFF0000003FFFC000000
0000001FFFE0000003FFFC000000
0000001FFFE0000007FFF8000000
0000001FFFE0000007FFF8000000
0000003FFFC0000007FFF8000000
0000003FFFC000000FFFF0000000
0000003FFFC000000FFFF0000000
0000003FFF8000000FFFF0000000
0000007FFF8000000FFFE0000000
0000007FFF8000001FFFE0000000
0000007FFF8000001FFFE0000000
000000FFFF0000001FFFE0000000
000000FFFF0000003FFFC0000000
000000FFFF0000003FFFC0000000
000001FFFE0000003FFFC0000000
000001FFFE0000007FFF80000000
000001FFFE0000007FFF80000000
000001FFFC0000007FFF80000000
000003FFFC0000007FFF00000000
000003FFFC000000FFFF00000000
000003FFFC000000FFFF00000000
000007FFF8000000FFFF00000000
000007FFF8000001FFFE00000000
000007FFF8000001FFFE00000000
00000FFFF0000001FFFE00000000
FFFFFFFFFFFFFFFFFFFFFFFE0000
FFFFFFFFFFFFFFFFFFFFFFFE0000
FFFFFFFFFFFFFFFFFFFFFFFE0000
FFFFFFFFFFFFFFFFFFFFFFFE0000
FFFFFFFFFFFFFFFFFFFFFFFE0000
FFFFFFFFFFFFFFFFFFFFFFFE0000
FFFFFFFFFFFFFFFFFFFFFFFE0000
FFFFFFFFFFFFFFFFFFFFFFFE0000
FFFFFFFFFFFFFFFFFFFFFFFE0000
FFFFFFFFFFFFFFFFFFFFFFFE0000
FFFFFFFFFFFFFFFFFFFFFFFE0000
FFFFFFFFFFFFFFFFFFFFFFFE0000
FFFFFFFFFFFFFFFFFFFFFFFE0000
FFFFFFFFFFFFFFFFFFFFFFFE0000
FFFFFFFFFFFFFFFFFFFFFFFE0000
0000FFFE0000003FFFC000000000
0001FFFE0000003FFFC000000000
0001FFFE0000007FFF8000000000
0001FFFE0000007FFF8000000000
0003FFFC0000007FFF8000000000
0003FFFC000000FFFF0000000000
0003FFFC000000FFFF0000000000
0007FFF8000000FFFF0000000000
0007FFF8000001FFFE0000000000
0007FFF8000001FFFE0000000000
0007FFF8000001FFFE0000000000
000FFFF0000001FFFE0000000000
000FFFF0000003FFFC0000000000
000FFFF0000003FFFC0000000000
001FFFE0000003FFFC0000000000
001FFFE0000007FFF80000000000
001FFFE0000007FFF80000000000
001FFFC0000007FFF80000000000
003FFFC000000FFFF00000000000
003FFFC000000FFFF00000000000
003FFFC000000FFFF00000000000
007FFF8000000FFFF00000000000
007FFF8000001FFFE00000000000
007FFF8000001FFFE00000000000
007FFF0000001FFFE00000000000
00FFFF0000003FFFC00000000000
00FFFF0000003FFFC00000000000
00FFFE0000003FFFC00000000000
01FFFE0000003FFF800000000000
01FFFE0000007FFF800000000000
01FFFE0000007FFF800000000000
03FFFC0000007FFF800000000000
03FFFC000000FFFF000000000000
03FFFC000000FFFF000000000000
07FFF8000000FFFF000000000000
ENDCHAR
STARTCHAR dollar
ENCODING 36
SWIDTH 744 0
DWIDTH 132 0
BBX 111 129 10 0
BITMAP
0000000000000FFC000000000000
0000000000000FFC000000000000
0000000000000FFC000000000000
0000000000000FFC000000000000
0000000000000FFC000000000000
0000000000000FFC000000000000
0000000000000FFC000000000000
0000000000000FFC000000000000
0000000000000FFC000000000000
0000000000000FFC000000000000
0000000000000FFC000000000000
0000000000000FFC000000000000
0000000000000FFC000000000000
0000007FFFFFFFFFFFFFFFFFFFC0
00000FFFFFFFFFFFFFFFFFFFFFC0
00007FFFFFFFFFFFFFFFFFFFFFC0
0001FFFFFFFFFFFFFFFFFFFFFFC0
0007FFFFFFFFFFFFFFFFFFFFFFC0
000FFFFFFFFFFFFFFFFFFFFFFFC0
003FFFFFFFFFFFFFFFFFFFFFFFC0
007FFFFFFFFFFFFFFFFFFFFFFFC0
00FFFFFFFFFFFFFFFFFFFFFFFFC0
01FFFFFFFFFFFFFFFFFFFFFFFFC0
03FFFFFFFFFFFFFFFFFFFFFFFFC0
07FFFFFFFFFFFFFFFFFFFFFFFFC0
07FFFFFFFFFFFFFFFFFFFFFFFFC0
0FFFFFFFFFFFFFFFFFFFFFFFFFC0
1FFFFFFFFFFFFFFFFFFFFFFFFFC0
1FFFFFFFFFFFFFFFFFFFFFFFFFC0
3FFFFFFFFFFFFFFFFFFFFFFFFFC0
3FFFFFFFFFFFFFFFFFFFFFFFFFC0
3FFFFFF000000FFC000000000000
7FFFFF8000000FFC000000000000
7FFFFE0000000FFC000000000000
7FFFFC0000000FFC000000000000
7FFFF80000000FFC000000000000
FFFFF80000000FFC000000000000
FFFFF00000000FFC000000000000
FFFFF00000000FFC000000000000
FFFFE00000000FFC000000000000
FFFFE00000000FFC000000000000
FFFFE00000000FFC000000000000
FFFFE00000000FFC000000000000
FFFFE00000000FFC000000000000
FFFFE00000000FFC000000000000
FFFFE00000000FFC000000000000
FFFFE00000000FFC000000000000
7FFFE00000000FFC000000000000
7FFFF00000000FFC000000000000
7FFFF00000000FFC000000000000
7FFFF80000000FFC000000000000
3FFFF80000000FFC000000000000
3FFFFC0000000FFC000000000000
3FFFFE0000000FFC000000000000
1FFFFF8000000FFC000000000000
1FFFFFF000000FFC000000000000
0FFFFFFFFFFFFFFFFFFFFE000000
0FFFFFFFFFFFFFFFFFFFFFF00000
07FFFFFFFFFFFFFFFFFFFFFE0000
03FFFFFFFFFFFFFFFFFFFFFF8000
03FFFFFFFFFFFFFFFFFFFFFFE000
01FFFFFFFFFFFFFFFFFFFFFFF800
00FFFFFFFFFFFFFFFFFFFFFFFC00
007FFFFFFFFFFFFFFFFFFFFFFE00
001FFFFFFFFFFFFFFFFFFFFFFF00
000FFFFFFFFFFFFFFFFFFFFFFF80
0003FFFFFFFFFFFFFFFFFFFFFFC0
0001FFFFFFFFFFFFFFFFFFFFFFE0
00003FFFFFFFFFFFFFFFFFFFFFE0
00000FFFFFFFFFFFFFFFFFFFFFF0
0000007FFFFFFFFFFFFFFFFFFFF0
0000000000000FFC00000FFFFFF8
0000000000000FFC000001FFFFF8
0000000000000FFC0000007FFFFC
0000000000000FFC0000003FFFFC
0000000000000FFC0000001FFFFC
0000000000000FFC0000000FFFFC
0000000000000FFC00000007FFFE
0000000000000FFC00000007FFFE
0000000000000FFC00000007FFFE
0000000000000FFC00000003FFFE
0000000000000FFC00000003FFFE
0000000000000FFC00000003FFFE
0000000000000FFC00000003FFFE
0000000000000FFC00000003FFFE
0000000000000FFC00000003FFFE
0000000000000FFC00000003FFFE
0000000000000FFC00000003FFFE
0000000000000FFC00000003FFFE
0000000000000FFC00000007FFFE
0000000000000FFC00000007FFFE
0000000000000FFC00000007FFFE
0000000000000FFC0000000FFFFE
0000000000000FFC0000001FFFFC
0000000000000FFC0000003FFFFC
0000000000000FFC0000007FFFFC
0000000000000FFC000001FFFFFC
0000000000000FFC00000FFFFFF8
7FFFFFFFFFFFFFFFFFFFFFFFFFF8
7FFFFFFFFFFFFFFFFFFFFFFFFFF8
7FFFFFFFFFFFFFFFFFFFFFFFFFF0
7FFFFFFFFFFFFFFFFFFFFFFFFFF0
7FFFFFFFFFFFFFFFFFFFFFFFFFE0
7FFFFFFFFFFFFFFFFFFFFFFFFFC0
7FFFFFFFFFFFFFFFFFFFFFFFFFC0
7FFFFFFFFFFFFFFFFFFFFFFFFF80
7FFFFFFFFFFFFFFFFFFFFFFFFF00
7FFFFFFFFFFFFFFFFFFFFFFFFE00
7FFFFFFFFFFFFFFFFFFFFFFFFC00
7FFFFFFFFFFFFFFFFFFFFFFFF800
7FFFFFFFFFFFFFFFFFFFFFFFF000
7FFFFFFFFFFFFFFFFFFFFFFFC000
7FFFFFFFFFFFFFFFFFFFFFFF0000
7FFFFFFFFFFFFFFFFFFFFFFC0000
7FFFFFFFFFFFFFFFFFFFFFE00000
7FFFFFFFFFFFFFFFFFFFFC000000
0000000000000FFC000000000000
0000000000000FFC000000000000
0000000000000FFC000000000000
0000000000000FFC000000000000
0000000000000FFC000000000000
0000000000000FFC000000000000
0000000000000FFC000000000000
0000000000000FFC000000000000
0000000000000FFC000000000000
0000000000000FFC000000000000
0000000000000FFC000000000000
0000000000000FFC000000000000
0000000000000FFC000000000000
ENDCHAR
STARTCHAR percent
ENCODING 37
SWIDTH 965 0
DWIDTH 171 0
BBX 156 149 7 -12
BITMAP
00000000000000000000000000000003FFFC0000
00000000000000000000000000000003FFF80000
00000000000000000000000000000007FFF00000
0000000000000000000000000000000FFFE00000
0000000000000000000000000000001FFFC00000
0000000000000000000000000000001FFFC00000
0000000FFF000000000000000000003FFF800000
000001FFFFF00000000000000000007FFF000000
00000FFFFFFE000000000000000000FFFE000000
00003FFFFFFF800000000000000001FFFC000000
0000FFFFFFFFE00000000000000001FFFC000000
0003FFFFFFFFF80000000000000003FFF8000000
0007FFFFFFFFFC0000000000000007FFF0000000
000FFFFFFFFFFF000000000000000FFFE0000000
001FFFFFFFFFFF800000000000001FFFE0000000
003FFFFFFFFFFFC00000000000001FFFC0000000
007FFFFFFFFFFFE00000000000003FFF80000000
00FFFFF001FFFFF00000000000007FFF00000000
01FFFF80001FFFF8000000000000FFFE00000000
03FFFC000007FFF8000000000000FFFE00000000
03FFF0000001FFFC000000000001FFFC00000000
07FFE0000000FFFE000000000003FFF800000000
0FFFC00000007FFE000000000007FFF000000000
0FFF800000003FFF00000000000FFFF000000000
1FFF000000001FFF00000000000FFFE000000000
1FFF000000000FFF80000000001FFFC000000000
1FFE0000000007FF80000000003FFF8000000000
3FFC0000000007FF80000000007FFF0000000000
3FFC0000000003FFC0000000007FFF0000000000
3FF80000000003FFC000000000FFFE0000000000
7FF80000000003FFC000000001FFFC0000000000
7FF80000000001FFC000000003FFF80000000000
7FF00000000001FFE000000007FFF80000000000
7FF00000000001FFE000000007FFF00000000000
7FF00000000001FFE00000000FFFE00000000000
7FF00000000000FFE00000001FFFC00000000000
FFF00000000000FFE00000003FFF800000000000
FFF00000000000FFE00000007FFF800000000000
FFF00000000000FFE00000007FFF000000000000
FFF00000000000FFE0000000FFFE000000000000
FFF00000000000FFE0000001FFFC000000000000
7FF00000000000FFE0000003FFFC000000000000
7FF00000000000FFE0000003FFF8000000000000
7FF00000000001FFE0000007FFF0000000000000
7FF00000000001FFE000000FFFE0000000000000
7FF00000000001FFC000001FFFC0000000000000
7FF80000000001FFC000003FFFC0000000000000
3FF80000000003FFC000003FFF80000000000000
3FF80000000003FFC000007FFF00000000000000
3FFC0000000003FF800000FFFE00000000000000
1FFC0000000007FF800001FFFC00000000000000
1FFE000000000FFF800001FFFC00000000000000
1FFF000000000FFF000003FFF800000000000000
0FFF000000001FFF000007FFF000000000000000
0FFF800000003FFE00000FFFE000000000000000
07FFC00000007FFE00001FFFE000000000000000
03FFE0000000FFFC00001FFFC000000000000000
03FFF8000001FFF800003FFF8000000000000000
01FFFC000007FFF800007FFF0000000000000000
00FFFF80001FFFF00000FFFE0000000000000000
00FFFFF001FFFFE00001FFFE0000000000000000
007FFFFFFFFFFFC00001FFFC0000000000000000
003FFFFFFFFFFF800003FFF80000000000000000
001FFFFFFFFFFF000007FFF00000000000000000
000FFFFFFFFFFE00000FFFF00000000000000000
0003FFFFFFFFFC00000FFFE00000000000000000
0001FFFFFFFFF000001FFFC00000000000000000
00007FFFFFFFE000003FFF800000000000000000
00001FFFFFFF8000007FFF000000000000000000
000007FFFFFE000000FFFF000000000000000000
000000FFFFF0000000FFFE000000000000000000
0000000FFF00000001FFFC000000000000000000
000000000000000003FFF8000000000000000000
000000000000000007FFF8000000000000000000
00000000000000000FFFF000000007FF80000000
00000000000000000FFFE0000000FFFFFC000000
00000000000000001FFFC0000007FFFFFF000000
00000000000000003FFF8000001FFFFFFFE00000
00000000000000007FFF8000007FFFFFFFF80000
00000000000000007FFF000000FFFFFFFFFC0000
0000000000000000FFFE000003FFFFFFFFFF0000
0000000000000001FFFC000007FFFFFFFFFF8000
0000000000000003FFF800000FFFFFFFFFFFC000
0000000000000007FFF800001FFFFFFFFFFFE000
0000000000000007FFF000003FFFFFFFFFFFF000
000000000000000FFFE000007FFFF800FFFFF800
000000000000001FFFC00000FFFFC0000FFFFC00
000000000000003FFFC00001FFFE000003FFFC00
000000000000003FFF800001FFFC000000FFFE00
000000000000007FFF000003FFF00000007FFF00
00000000000000FFFE000003FFE00000001FFF00
00000000000001FFFC000007FFC00000000FFF80
00000000000003FFFC000007FF800000000FFF80
00000000000003FFF800000FFF8000000007FFC0
00000000000007FFF000000FFF0000000003FFC0
0000000000000FFFE000001FFE0000000003FFE0
0000000000001FFFE000001FFE0000000001FFE0
0000000000003FFFC000001FFC0000000001FFE0
0000000000003FFF8000003FFC0000000000FFE0
0000000000007FFF0000003FFC0000000000FFF0
000000000000FFFE0000003FFC0000000000FFF0
000000000001FFFE0000003FF80000000000FFF0
000000000001FFFC0000003FF800000000007FF0
000000000003FFF80000003FF800000000007FF0
000000000007FFF00000003FF800000000007FF0
00000000000FFFF00000003FF800000000007FF0
00000000001FFFE00000003FF800000000007FF0
00000000001FFFC00000003FF800000000007FF0
00000000003FFF800000003FF800000000007FF0
00000000007FFF000000003FF800000000007FF0
0000000000FFFF000000003FF800000000007FF0
0000000000FFFE000000003FF800000000007FF0
0000000001FFFC000000003FF80000000000FFF0
0000000003FFF8000000003FFC0000000000FFF0
0000000007FFF8000000001FFC0000000000FFE0
000000000FFFF0000000001FFC0000000000FFE0
000000000FFFE0000000001FFE0000000001FFE0
000000001FFFC0000000001FFE0000000001FFE0
000000003FFF80000000000FFF0000000003FFC0
000000007FFF80000000000FFF0000000003FFC0
00000000FFFF000000000007FF8000000007FF80
00000000FFFE000000000007FF800000000FFF80
00000001FFFC000000000003FFC00000001FFF00
00000003FFF8000000000003FFE00000001FFF00
00000007FFF8000000000001FFF00000007FFE00
00000007FFF0000000000001FFFC000000FFFE00
0000000FFFE0000000000000FFFE000003FFFC00
0000001FFFC00000000000007FFFC0000FFFF800
0000003FFFC00000000000003FFFF800FFFFF000
0000007FFF800000000000001FFFFFFFFFFFE000
0000007FFF000000000000001FFFFFFFFFFFC000
000000FFFE0000000000000007FFFFFFFFFF8000
000001FFFC0000000000000003FFFFFFFFFF0000
000003FFFC0000000000000001FFFFFFFFFE0000
000003FFF80000000000000000FFFFFFFFF80000
000007FFF000000000000000003FFFFFFFF00000
00000FFFE000000000000000000FFFFFFFC00000
00001FFFE0000000000000000003FFFFFF000000
00003FFFC00000000000000000007FFFF8000000
00003FFF8000000000000000000007FF80000000
00007FFF00000000000000000000000000000000
0000FFFE00000000000000000000000000000000
0001FFFE00000000000000000000000000000000
0003FFFC00000000000000000000000000000000
0003FFF800000000000000000000000000000000
0007FFF000000000000000000000000000000000
000FFFF000000000000000000000000000000000
001FFFE000000000000000000000000000000000
003FFFC000000000000000000000000000000000
ENDCHAR
STARTCHAR ampersand
ENCODING 38
SWIDTH 759 0
DWIDTH 134 0
BBX 120 129 9 0
BITMAP
000000001FFFFFFFF0000000000000
00000007FFFFFFFFF0000000000000
0000007FFFFFFFFFF0000000000000
000001FFFFFFFFFFF0000000000000
00000FFFFFFFFFFFF0000000000000
00003FFFFFFFFFFFF0000000000000
0000FFFFFFFFFFFFF0000000000000
0001FFFFFFFFFFFFF0000000000000
0007FFFFFFFFFFFFF0000000000000
000FFFFFFFFFFFFFF0000000000000
001FFFFFFFFFFFFFF0000000000000
003FFFFFFFFFFFFFF0000000000000
007FFFFFFFFFFFFFF0000000000000
00FFFFFFFFFFFFFFF0000000000000
00FFFFFFFFFFFFFFF0000000000000
01FFFFFFFFFFFFFFF0000000000000
03FFFFFFFFFFFFFFF0000000000000
03FFFFFFFFFFFFFFF0000000000000
07FFFFFFFFFFFFFFF0000000000000
07FFFFFFFFFFFFFFF0000000000000
0FFFFFFFFFFFFFFFF0000000000000
0FFFFFFFFFFFFFFFF0000000000000
0FFFFFFFFFFFFFFFF0000000000000
1FFFFFFFE000000000000000000000
1FFFFFFF8000000000000000000000
1FFFFFFE0000000000000000000000
1FFFFFF80000000000000000000000
1FFFFFF00000000000000000000000
3FFFFFF00000000000000000000000
3FFFFFE00000000000000000000000
3FFFFFC00000000000000000000000
3FFFFFC00000000000000000000000
3FFFFFC00000000000000000000000
3FFFFF800000000000000000000000
3FFFFF800000000000000000000000
3FFFFF800000000000000000000000
3FFFFF800000000000000000000000
3FFFFF800000000000000000000000
3FFFFF800000000000000000000000
3FFFFF800000000000000000000000
1FFFFF800000000000000000000000
1FFFFF800000000000000000000000
1FFFFF800000000000000000000000
1FFFFF800000000000000000000000
1FFFFFC00000000000000000000000
0FFFFFC00000000000000000000000
0FFFFFE00000000000000000000000
07FFFFE00000000000000000000000
07FFFFF00000000000000000000000
07FFFFF80000000000000000000000
03FFFFFC0000000000000000000000
01FFFFFF0000000000000000000000
00FFFFFFC000000000000000000000
00FFFFFFFC00000000000000000000
007FFFFFFFFFFFFFFFFFFFFFFFFF00
003FFFFFFFFFFFFFFFFFFFFFFFFF00
001FFFFFFFFFFFFFFFFFFFFFFFFF00
0007FFFFFFFFFFFFFFFFFFFFFFFF00
0003FFFFFFFFFFFFFFFFFFFFFFFF00
0000FFFFFFFFFFFFFFFFFFFFFFFF00
00003FFFFFFFFFFFFFFFFFFFFFFF00
00001FFFFFFFFFFFFFFFFFFFFFFF00
0000FFFFFFFFFFFFFFFFFFFFFFFF00
0003FFFFFFFFFFFFFFFFFFFFFFFF00
0007FFFFFFFFFFFFFFFFFFFFFFFF00
001FFFFFFFFFFFFFFFFFFFFFFFFF00
003FFFFFFFFFFFFFFFFFFFFFFFFF00
007FFFFFFFFFFFFFFFFFFFFFFFFF00
00FFFFFFFFFFFFFFFFFFFFFFFFFF00
01FFFFFFFFFFFFFFFFFFFFFFFFFF00
03FFFFFFFFFFFFFFFFFFFFFFFFFF00
07FFFFFFFFFFFFFFFFFFFFFFFFFF00
07FFFFFFFFFFFFFFFFFFFFFFFFFF00
0FFFFFFFFC000000001FFFFF800000
1FFFFFFF80000000001FFFFF800000
1FFFFFFC00000000001FFFFF800000
3FFFFFF000000000001FFFFF800000
3FFFFFE000000000001FFFFF800000
3FFFFFC000000000001FFFFF800000
7FFFFF8000000000001FFFFF800000
7FFFFF0000000000001FFFFF800000
7FFFFF0000000000001FFFFF800000
FFFFFE0000000000001FFFFF800000
FFFFFE0000000000001FFFFF800000
FFFFFE0000000000001FFFFF800000
FFFFFE0000000000001FFFFF800000
FFFFFC0000000000001FFFFF800000
FFFFFC0000000000001FFFFF800000
FFFFFC0000000000001FFFFF800000
FFFFFC0000000000001FFFFF800000
FFFFFC0000000000001FFFFF800000
FFFFFC0000000000001FFFFF800000
FFFFFE0000000000001FFFFF800000
FFFFFE0000000000001FFFFF800000
FFFFFE0000000000001FFFFF800000
FFFFFE0000000000001FFFFF800000
FFFFFF0000000000001FFFFF800000
FFFFFF0000000000001FFFFF800000
FFFFFF8000000000001FFFFF800000
7FFFFFC000000000001FFFFF800000
7FFFFFC000000000001FFFFF800000
7FFFFFE000000000001FFFFF800000
7FFFFFF800000000001FFFFF800000
3FFFFFFC00000000001FFFFF800000
3FFFFFFF80000000001FFFFF800000
3FFFFFFFF0000000001FFFFF800000
1FFFFFFFFFFFFFFFFFFFFFFFFFFFFF
1FFFFFFFFFFFFFFFFFFFFFFFFFFFFF
0FFFFFFFFFFFFFFFFFFFFFFFFFFFFF
0FFFFFFFFFFFFFFFFFFFFFFFFFFFFF
07FFFFFFFFFFFFFFFFFFFFFFFFFFFF
07FFFFFFFFFFFFFFFFFFFFFFFFFFFF
03FFFFFFFFFFFFFFFFFFFFFFFFFFFF
01FFFFFFFFFFFFFFFFFFFFFFFFFFFF
01FFFFFFFFFFFFFFFFFFFFFFFFFFFF
00FFFFFFFFFFFFFFFFFFFFFFFFFFFF
007FFFFFFFFFFFFFFFFFFFFFFFFFFF
003FFFFFFFFFFFFFFFFFFFFFFFFFFF
001FFFFFFFFFFFFFFFFFFFFFFFFFFF
000FFFFFFFFFFFFFFFFFFFFFFFFFFF
0007FFFFFFFFFFFFFFFFFFFFFFFFFF
0001FFFFFFFFFFFFFFFFFFFFFFFFFF
0000FFFFFFFFFFFFFFFFFFFFFFFFFF
00003FFFFFFFFFFFFFFFFFFFFFFFFF
00000FFFFFFFFFFFFFFFFFFFFFFFFF
000003FFFFFFFFFFFFFFFFFFFFFFFF
000000FFFFFFFFFFFFFFFFFFFFFFFF
0000000FFFFFFFFFFFFFFFFFFFFFFF
000000007FFFFFFFFFFFFFFFFFFFFF
ENDCHAR
STARTCHAR quotesingle
ENCODING 39
SWIDTH 255 0
DWIDTH 45 0
BBX 23 46 11 83
BITMAP
FFFFFE
FFFFFE
FFFFFE
FFFFFE
7FFFFE
7FFFFC
7FFFFC
7FFFFC
7FFFFC
7FFFFC
7FFFFC
7FFFFC
7FFFFC
7FFFFC
7FFFFC
3FFFFC
3FFFF8
3FFFF8
3FFFF8
3FFFF8
3FFFF8
3FFFF8
3FFFF8
3FFFF8
3FFFF8
1FFFF8
1FFFF8
1FFFF0
1FFFF0
1FFFF0
1FFFF0
1FFFF0
1FFFF0
1FFFF0
1FFFF0
1FFFF0
0FFFF0
0FFFF0
0FFFE0
0FFFE0
0FFFE0
0FFFE0
0FFFE0
0FFFE0
0FFFE0
0FFFE0
ENDCHAR
STARTCHAR parenleft
ENCODING 40
SWIDTH 356 0
DWIDTH 63 0
BBX 35 162 17 -16
BITMAP
00003FFFE0
00003FFFC0
00007FFFC0
00007FFF80
0000FFFF80
0000FFFF00
0000FFFF00
0001FFFE00
0001FFFE00
0003FFFE00
0003FFFC00
0003FFFC00
0007FFF800
0007FFF800
0007FFF800
000FFFF000
000FFFF000
001FFFE000
001FFFE000
001FFFE000
003FFFC000
003FFFC000
003FFFC000
007FFF8000
007FFF8000
007FFF8000
00FFFF0000
00FFFF0000
00FFFF0000
01FFFE0000
01FFFE0000
01FFFE0000
01FFFC0000
03FFFC0000
03FFFC0000
03FFF80000
07FFF80000
07FFF80000
07FFF00000
07FFF00000
0FFFF00000
0FFFF00000
0FFFE00000
0FFFE00000
0FFFE00000
1FFFE00000
1FFFC00000
1FFFC00000
1FFFC00000
1FFFC00000
3FFF800000
3FFF800000
3FFF800000
3FFF800000
3FFF800000
7FFF000000
7FFF000000
7FFF000000
7FFF000000
7FFF000000
7FFF000000
7FFE000000
7FFE000000
FFFE000000
FFFE000000
FFFE000000
FFFE000000
FFFE000000
FFFE000000
FFFC000000
FFFC000000
FFFC000000
FFFC000000
FFFC000000
FFFC000000
FFFC000000
FFFC000000
FFFC000000
FFFC000000
FFFC000000
FFFC000000
FFFC000000
FFFC000000
FFFC000000
FFFC000000
FFFC000000
FFFC000000
FFFC000000
FFFC000000
FFFC000000
FFFC000000
FFFC000000
FFFC000000
FFFE000000
FFFE000000
FFFE000000
FFFE000000
FFFE000000
7FFE000000
7FFE000000
7FFE000000
7FFE000000
7FFF000000
7FFF000000
7FFF000000
7FFF000000
3FFF000000
3FFF000000
3FFF800000
3FFF800000
3FFF800000
3FFF800000
1FFF800000
1FFFC00000
1FFFC00000
1FFFC00000
1FFFC00000
0FFFC00000
0FFFE00000
0FFFE00000
0FFFE00000
0FFFE00000
07FFF00000
07FFF00000
07FFF00000
07FFF80000
03FFF80000
03FFF80000
03FFF80000
01FFFC0000
01FFFC0000
01FFFC0000
01FFFE0000
00FFFE0000
00FFFE0000
00FFFF0000
007FFF0000
007FFF0000
007FFF8000
003FFF8000
003FFFC000
003FFFC000
001FFFC000
001FFFE000
000FFFE000
000FFFF000
000FFFF000
0007FFF000
0007FFF800
0003FFF800
0003FFFC00
0003FFFC00
0001FFFC00
0001FFFE00
0000FFFE00
0000FFFF00
0000FFFF00
00007FFF80
00007FFF80
00003FFFC0
00003FFFC0
00001FFFE0
ENDCHAR
STARTCHAR parenright
ENCODING 41
SWIDTH 355 0
DWIDTH 63 0
BBX 35 162 11 -16
BITMAP
FFFF800000
7FFF800000
3FFFC00000
3FFFC00000
3FFFC00000
1FFFE00000
1FFFE00000
0FFFF00000
0FFFF00000
0FFFF00000
07FFF80000
07FFF80000
03FFFC0000
03FFFC0000
03FFFC0000
01FFFE0000
01FFFE0000
00FFFE0000
00FFFF0000
00FFFF0000
007FFF0000
007FFF8000
007FFF8000
003FFF8000
003FFFC000
001FFFC000
001FFFC000
001FFFE000
000FFFE000
000FFFE000
000FFFF000
000FFFF000
0007FFF000
0007FFF800
0007FFF800
0003FFF800
0003FFF800
0003FFFC00
0001FFFC00
0001FFFC00
0001FFFC00
0001FFFE00
0000FFFE00
0000FFFE00
0000FFFE00
0000FFFF00
00007FFF00
00007FFF00
00007FFF00
00007FFF00
00003FFF80
00003FFF80
00003FFF80
00003FFF80
00003FFF80
00001FFF80
00001FFFC0
00001FFFC0
00001FFFC0
00001FFFC0
00001FFFC0
00001FFFC0
00000FFFC0
00000FFFC0
00000FFFE0
00000FFFE0
00000FFFE0
00000FFFE0
00000FFFE0
00000FFFE0
00000FFFE0
000007FFE0
000007FFE0
000007FFE0
000007FFE0
000007FFE0
000007FFE0
000007FFE0
000007FFE0
000007FFE0
000007FFE0
000007FFE0
000007FFE0
000007FFE0
000007FFE0
000007FFE0
000007FFE0
000007FFE0
000007FFE0
000007FFE0
00000FFFE0
00000FFFE0
00000FFFE0
00000FFFE0
00000FFFE0
00000FFFE0
00000FFFE0
00000FFFE0
00000FFFC0
00000FFFC0
00001FFFC0
00001FFFC0
00001FFFC0
00001FFFC0
00001FFFC0
00001FFFC0
00001FFF80
00003FFF80
00003FFF80
00003FFF80
00003FFF80
00003FFF80
00007FFF00
00007FFF00
00007FFF00
00007FFF00
00007FFF00
0000FFFE00
0000FFFE00
0000FFFE00
0000FFFE00
0001FFFC00
0001FFFC00
0001FFFC00
0003FFFC00
0003FFF800
0003FFF800
0003FFF800
0007FFF800
0007FFF000
0007FFF000
000FFFF000
000FFFE000
000FFFE000
001FFFE000
001FFFE000
001FFFC000
003FFFC000
003FFFC000
003FFF8000
007FFF8000
007FFF0000
00FFFF0000
00FFFF0000
00FFFE0000
01FFFE0000
01FFFE0000
03FFFC0000
03FFFC0000
03FFF80000
07FFF80000
07FFF80000
0FFFF00000
0FFFF00000
0FFFE00000
1FFFE00000
1FFFE00000
3FFFC00000
3FFFC00000
7FFF800000
7FFF800000
FFFF000000
ENDCHAR
STARTCHAR asterisk
ENCODING 42
SWIDTH 469 0
DWIDTH 83 0
BBX 61 58 11 71
BITMAP
0000007FF0000000
0000007FF0000000
0000007FF0000000
0000007FF0000000
0000007FF0000000
0000007FF0000000
0000007FF0000000
0000007FF0000000
0000007FF0000000
0000007FF0000000
0000007FF0000000
0000007FF0000000
0000007FF0000000
0000007FF0000000
0000007FF0000000
0000007FF0000000
1800007FF00000C0
1F00007FF00007C0
1FF0007FF0007FC0
3FFE007FF003FFE0
3FFFC07FF01FFFE0
3FFFF87FF0FFFFE0
7FFFFFFFFFFFFFF0
7FFFFFFFFFFFFFF0
7FFFFFFFFFFFFFF0
FFFFFFFFFFFFFFF8
3FFFFFFFFFFFFFE0
07FFFFFFFFFFFF00
007FFFFFFFFFF000
000FFFFFFFFF8000
0001FFFFFFFC0000
00003FFFFFE00000
000007FFFE000000
000007FFFF000000
000007FFFF000000
00000FFFFF800000
00001FFFFFC00000
00003FFFFFC00000
00003FFFFFE00000
00007FFDFFF00000
0000FFF8FFF00000
0000FFF8FFF80000
0001FFF07FFC0000
0003FFE03FFE0000
0003FFC03FFE0000
0007FFC01FFF0000
000FFF800FFF8000
001FFF0007FF8000
001FFF0007FFC000
003FFE0003FFE000
007FFC0001FFF000
00FFFC0001FFF800
007FF80000FFF000
001FF000007FE000
000FE000003F8000
0007E000003F0000
0001C000001E0000
0000800000080000
ENDCHAR
STARTCHAR plus
ENCODING 43
SWIDTH 690 0
DWIDTH 122 0
BBX 100 100 11 15
BITMAP
00000000001FFFC00000000000
00000000001FFFC00000000000
00000000001FFFC00000000000
00000000001FFFC00000000000
00000000001FFFC00000000000
00000000001FFFC00000000000
00000000001FFFC00000000000
00000000001FFFC00000000000
00000000001FFFC00000000000
00000000001FFFC00000000000
00000000001FFFC00000000000
00000000001FFFC00000000000
00000000001FFFC00000000000
00000000001FFFC00000000000
00000000001FFFC00000000000
00000000001FFFC00000000000
00000000001FFFC00000000000
00000000001FFFC00000000000
00000000001FFFC00000000000
00000000001FFFC00000000000
00000000001FFFC00000000000
00000000001FFFC00000000000
00000000001FFFC00000000000
00000000001FFFC00000000000
00000000001FFFC00000000000
00000000001FFFC00000000000
00000000001FFFC00000000000
00000000001FFFC00000000000
00000000001FFFC00000000000
00000000001FFFC00000000000
00000000001FFFC00000000000
00000000001FFFC00000000000
00000000001FFFC00000000000
00000000001FFFC00000000000
00000000001FFFC00000000000
00000000001FFFC00000000000
00000000001FFFC00000000000
00000000001FFFC00000000000
00000000001FFFC00000000000
00000000001FFFC00000000000
00000000001FFFC00000000000
00000000001FFFC00000000000
FFFFFFFFFFFFFFFFFFFFFFFFF0
FFFFFFFFFFFFFFFFFFFFFFFFF0
FFFFFFFFFFFFFFFFFFFFFFFFF0
FFFFFFFFFFFFFFFFFFFFFFFFF0
FFFFFFFFFFFFFFFFFFFFFFFFF0
FFFFFFFFFFFFFFFFFFFFFFFFF0
FFFFFFFFFFFFFFFFFFFFFFFFF0
FFFFFFFFFFFFFFFFFFFFFFFFF0
FFFFFFFFFFFFFFFFFFFFFFFFF0
FFFFFFFFFFFFFFFFFFFFFFFFF0
FFFFFFFFFFFFFFFFFFFFFFFFF0
FFFFFFFFFFFFFFFFFFFFFFFFF0
FFFFFFFFFFFFFFFFFFFFFFFFF0
FFFFFFFFFFFFFFFFFFFFFFFFF0
FFFFFFFFFFFFFFFFFFFFFFFFF0
00000000001FFFC00000000000
00000000001FFFC00000000000
00000000001FFFC00000000000
00000000001FFFC00000000000
00000000001FFFC00000000000
00000000001FFFC00000000000
00000000001FFFC00000000000
00000000001FFFC00000000000
00000000001FFFC00000000000
00000000001FFFC00000000000
00000000001FFFC00000000000
00000000001FFFC00000000000
00000000001FFFC00000000000
00000000001FFFC00000000000
00000000001FFFC00000000000
00000000001FFFC00000000000
00000000001FFFC00000000000
00000000001FFFC00000000000
00000000001FFFC00000000000
00000000001FFFC00000000000
00000000001FFFC00000000000
00000000001FFFC00000000000
00000000001FFFC00000000000
00000000001FFFC00000000000
00000000001FFFC00000000000
00000000001FFFC00000000000
00000000001FFFC00000000000
00000000001FFFC00000000000
00000000001FFFC00000000000
00000000001FFFC00000000000
00000000001FFFC00000000000
00000000001FFFC00000000000
00000000001FFFC00000000000
00000000001FFFC00000000000
00000000001FFFC00000000000
00000000001FFFC00000000000
00000000001FFFC00000000000
00000000001FFFC00000000000
00000000001FFFC00000000000
00000000001FFFC00000000000
00000000001FFFC00000000000
00000000001FFFC00000000000
00000000001FFFC00000000000
ENDCHAR
STARTCHAR comma
ENCODING 44
SWIDTH 259 0
DWIDTH 46 0
BBX 23 46 12 -21
BITMAP
FFFFFE
FFFFFC
FFFFFC
FFFFFC
FFFFFC
FFFFFC
FFFFF8
FFFFF8
FFFFF8
FFFFF8
FFFFF8
FFFFF0
FFFFF0
FFFFF0
FFFFF0
FFFFF0
FFFFF0
FFFFE0
FFFFE0
FFFFE0
FFFFE0
FFFFE0
FFFFC0
FFFFC0
FFFFC0
FFFFC0
FFFFC0
FFFF80
FFFF80
FFFF80
FFFF80
FFFF80
FFFF00
FFFF00
FFFF00
FFFF00
FFFF00
FFFE00
FFFE00
FFFE00
FFFE00
FFFE00
FFFE00
FFFC00
FFFC00
FFFC00
ENDCHAR
STARTCHAR hyphen
ENCODING 45
SWIDTH 296 0
DWIDTH 52 0
BBX 43 15 5 58
BITMAP
FFFFFFFFFFE0
FFFFFFFFFFE0
FFFFFFFFFFE0
FFFFFFFFFFE0
FFFFFFFFFFE0
FFFFFFFFFFE0
FFFFFFFFFFE0
FFFFFFFFFFE0
FFFFFFFFFFE0
FFFFFFFFFFE0
FFFFFFFFFFE0
FFFFFFFFFFE0
FFFFFFFFFFE0
FFFFFFFFFFE0
FFFFFFFFFFE0
ENDCHAR
STARTCHAR period
ENCODING 46
SWIDTH 262 0
DWIDTH 46 0
BBX 24 24 11 0
BITMAP
00FF00
03FFC0
07FFF0
1FFFF8
1FFFFC
3FFFFC
7FFFFE
7FFFFE
7FFFFF
FFFFFF
FFFFFF
FFFFFF
FFFFFF
FFFFFF
FFFFFF
7FFFFF
7FFFFE
7FFFFE
3FFFFC
1FFFFC
1FFFF8
07FFF0
03FFC0
00FF00
ENDCHAR
STARTCHAR slash
ENCODING 47
SWIDTH 444 0
DWIDTH 79 0
BBX 75 129 2 0
BITMAP
000000000000000FFFE0
000000000000001FFFC0
000000000000001FFFC0
000000000000003FFF80
000000000000003FFF80
000000000000003FFF00
000000000000007FFF00
000000000000007FFE00
00000000000000FFFE00
00000000000000FFFC00
00000000000001FFFC00
00000000000001FFFC00
00000000000003FFF800
00000000000003FFF800
00000000000007FFF000
00000000000007FFF000
0000000000000FFFE000
0000000000000FFFE000
0000000000001FFFC000
0000000000001FFFC000
0000000000003FFF8000
0000000000003FFF8000
0000000000003FFF0000
0000000000007FFF0000
0000000000007FFE0000
000000000000FFFE0000
000000000000FFFE0000
000000000001FFFC0000
000000000001FFFC0000
000000000003FFF80000
000000000003FFF80000
000000000007FFF00000
000000000007FFF00000
00000000000FFFE00000
00000000000FFFE00000
00000000001FFFC00000
00000000001FFFC00000
00000000001FFF800000
00000000003FFF800000
00000000003FFF800000
00000000007FFF000000
00000000007FFF000000
0000000000FFFE000000
0000000000FFFE000000
0000000001FFFC000000
0000000001FFFC000000
0000000003FFF8000000
0000000003FFF8000000
0000000007FFF0000000
0000000007FFF0000000
000000000FFFE0000000
000000000FFFE0000000
000000001FFFE0000000
000000001FFFC0000000
000000001FFFC0000000
000000003FFF80000000
000000003FFF80000000
000000007FFF00000000
000000007FFF00000000
00000000FFFE00000000
00000000FFFE00000000
00000001FFFC00000000
00000001FFFC00000000
00000003FFF800000000
00000003FFF800000000
00000007FFF800000000
00000007FFF000000000
0000000FFFF000000000
0000000FFFE000000000
0000001FFFE000000000
0000001FFFC000000000
0000001FFFC000000000
0000003FFF8000000000
0000003FFF8000000000
0000007FFF0000000000
0000007FFF0000000000
000000FFFE0000000000
000000FFFE0000000000
000001FFFE0000000000
000001FFFC0000000000
000003FFFC0000000000
000003FFF80000000000
000007FFF80000000000
000007FFF00000000000
00000FFFF00000000000
00000FFFE00000000000
00000FFFE00000000000
00001FFFC00000000000
00001FFFC00000000000
00003FFF800000000000
00003FFF800000000000
00007FFF800000000000
00007FFF000000000000
0000FFFF000000000000
0000FFFE000000000000
0001FFFE000000000000
0001FFFC000000000000
0003FFFC000000000000
0003FFF8000000000000
0007FFF8000000000000
0007FFF0000000000000
000FFFF0000000000000
000FFFE0000000000000
000FFFE0000000000000
001FFFE0000000000000
001FFFC0000000000000
003FFFC0000000000000
003FFF80000000000000
007FFF80000000000000
007FFF00000000000000
00FFFF00000000000000
00FFFE00000000000000
01FFFE00000000000000
01FFFC00000000000000
03FFFC00000000000000
03FFF800000000000000
07FFF800000000000000
07FFF800000000000000
07FFF000000000000000
0FFFF000000000000000
0FFFE000000000000000
1FFFE000000000000000
1FFFC000000000000000
3FFFC000000000000000
3FFF8000000000000000
7FFF8000000000000000
7FFF0000000000000000
FFFF0000000000000000
FFFE0000000000000000
ENDCHAR
STARTCHAR zero
ENCODING 48
SWIDTH 838 0
DWIDTH 148 0
BBX 134 129 7 0
BITMAP
000000000000003FFFF000000000000000
0000000000000FFFFFFFE0000000000000
000000000000FFFFFFFFFE000000000000
00000000000FFFFFFFFFFFC00000000000
00000000007FFFFFFFFFFFF80000000000
0000000001FFFFFFFFFFFFFE0000000000
000000000FFFFFFFFFFFFFFFC000000000
000000003FFFFFFFFFFFFFFFF000000000
00000000FFFFFFFFFFFFFFFFFC00000000
00000001FFFFFFFFFFFFFFFFFF00000000
00000007FFFFFFFFFFFFFFFFFF80000000
0000000FFFFFFFFFFFFFFFFFFFE0000000
0000003FFFFFFFFFFFFFFFFFFFF0000000
0000007FFFFFFFFFFFFFFFFFFFFC000000
000001FFFFFFFFFFFFFFFFFFFFFE000000
000003FFFFFFFFFFFFFFFFFFFFFF000000
000007FFFFFFFFFFFFFFFFFFFFFF800000
00000FFFFFFFFFFFFFFFFFFFFFFFC00000
00001FFFFFFFFFFFFFFFFFFFFFFFE00000
00003FFFFFFFFFFFFFFFFFFFFFFFF00000
00007FFFFFFFFFFFFFFFFFFFFFFFF80000
0000FFFFFFFFFFFFFFFFFFFFFFFFFC0000
0001FFFFFFFFFFFFFFFFFFFFFFFFFE0000
0003FFFFFFFFFF000003FFFFFFFFFF0000
0007FFFFFFFFF00000003FFFFFFFFF8000
0007FFFFFFFF8000000007FFFFFFFFC000
000FFFFFFFFC0000000000FFFFFFFFC000
001FFFFFFFF000000000003FFFFFFFE000
001FFFFFFFC000000000000FFFFFFFF000
003FFFFFFF80000000000007FFFFFFF000
007FFFFFFE00000000000001FFFFFFF800
007FFFFFFC00000000000000FFFFFFFC00
00FFFFFFF0000000000000003FFFFFFC00
00FFFFFFE0000000000000001FFFFFFE00
01FFFFFFC0000000000000000FFFFFFE00
01FFFFFF800000000000000007FFFFFF00
03FFFFFF000000000000000003FFFFFF00
03FFFFFF000000000000000001FFFFFF80
07FFFFFE000000000000000001FFFFFF80
07FFFFFC000000000000000000FFFFFF80
0FFFFFF80000000000000000007FFFFFC0
0FFFFFF80000000000000000007FFFFFC0
0FFFFFF00000000000000000003FFFFFE0
1FFFFFF00000000000000000003FFFFFE0
1FFFFFE00000000000000000001FFFFFE0
1FFFFFE00000000000000000001FFFFFF0
3FFFFFC00000000000000000000FFFFFF0
3FFFFFC00000000000000000000FFFFFF0
3FFFFF8000000000000000000007FFFFF0
3FFFFF8000000000000000000007FFFFF8
3FFFFF8000000000000000000007FFFFF8
7FFFFF8000000000000000000003FFFFF8
7FFFFF0000000000000000000003FFFFF8
7FFFFF0000000000000000000003FFFFF8
7FFFFF0000000000000000000003FFFFF8
7FFFFF0000000000000000000003FFFFF8
7FFFFF0000000000000000000001FFFFFC
7FFFFE0000000000000000000001FFFFFC
7FFFFE0000000000000000000001FFFFFC
7FFFFE0000000000000000000001FFFFFC
FFFFFE0000000000000000000001FFFFFC
FFFFFE0000000000000000000001FFFFFC
FFFFFE0000000000000000000001FFFFFC
FFFFFE0000000000000000000001FFFFFC
FFFFFE0000000000000000000001FFFFFC
FFFFFE0000000000000000000001FFFFFC
7FFFFE0000000000000000000001FFFFFC
7FFFFE0000000000000000000001FFFFFC
7FFFFE0000000000000000000001FFFFFC
7FFFFE0000000000000000000001FFFFFC
7FFFFE0000000000000000000001FFFFFC
7FFFFE0000000000000000000001FFFFF8
7FFFFF0000000000000000000001FFFFF8
7FFFFF0000000000000000000003FFFFF8
7FFFFF0000000000000000000003FFFFF8
7FFFFF0000000000000000000003FFFFF8
3FFFFF0000000000000000000003FFFFF8
3FFFFF8000000000000000000007FFFFF0
3FFFFF8000000000000000000007FFFFF0
3FFFFF8000000000000000000007FFFFF0
1FFFFFC00000000000000000000FFFFFF0
1FFFFFC00000000000000000000FFFFFE0
1FFFFFC00000000000000000000FFFFFE0
1FFFFFE00000000000000000001FFFFFE0
0FFFFFE00000000000000000001FFFFFE0
0FFFFFF00000000000000000003FFFFFC0
07FFFFF00000000000000000003FFFFFC0
07FFFFF80000000000000000007FFFFF80
07FFFFFC000000000000000000FFFFFF80
03FFFFFC000000000000000000FFFFFF80
03FFFFFE000000000000000001FFFFFF00
01FFFFFF000000000000000003FFFFFF00
01FFFFFF800000000000000007FFFFFE00
00FFFFFFC0000000000000000FFFFFFE00
00FFFFFFE0000000000000000FFFFFFC00
007FFFFFF0000000000000003FFFFFFC00
007FFFFFF8000000000000007FFFFFF800
003FFFFFFC00000000000000FFFFFFF000
001FFFFFFE00000000000001FFFFFFF000
001FFFFFFF80000000000007FFFFFFE000
000FFFFFFFE000000000000FFFFFFFC000
0007FFFFFFF000000000003FFFFFFFC000
0007FFFFFFFE0000000000FFFFFFFF8000
0003FFFFFFFF8000000007FFFFFFFF0000
0001FFFFFFFFF00000003FFFFFFFFE0000
0000FFFFFFFFFF000003FFFFFFFFFE0000
0000FFFFFFFFFFFFFFFFFFFFFFFFFC0000
00007FFFFFFFFFFFFFFFFFFFFFFFF80000
00003FFFFFFFFFFFFFFFFFFFFFFFF00000
00001FFFFFFFFFFFFFFFFFFFFFFFE00000
00000FFFFFFFFFFFFFFFFFFFFFFFC00000
000007FFFFFFFFFFFFFFFFFFFFFF800000
000003FFFFFFFFFFFFFFFFFFFFFF000000
000000FFFFFFFFFFFFFFFFFFFFFE000000
0000007FFFFFFFFFFFFFFFFFFFF8000000
0000003FFFFFFFFFFFFFFFFFFFF0000000
0000001FFFFFFFFFFFFFFFFFFFE0000000
00000007FFFFFFFFFFFFFFFFFF80000000
00000003FFFFFFFFFFFFFFFFFF00000000
00000000FFFFFFFFFFFFFFFFFC00000000
000000003FFFFFFFFFFFFFFFF000000000
000000000FFFFFFFFFFFFFFFC000000000
0000000003FFFFFFFFFFFFFF8000000000
0000000000FFFFFFFFFFFFFC0000000000
00000000003FFFFFFFFFFFF00000000000
000000000007FFFFFFFFFF800000000000
000000000000FFFFFFFFFC000000000000
0000000000000FFFFFFFC0000000000000
000000000000001FFFE000000000000000
ENDCHAR
STARTCHAR one
ENCODING 49
SWIDTH 385 0
DWIDTH 68 0
BBX 53 129 4 0
BITMAP
FFFFF000000000
FFFFFFC0000000
FFFFFFF8000000
FFFFFFFF000000
FFFFFFFFC00000
FFFFFFFFF00000
FFFFFFFFF80000
FFFFFFFFFE0000
FFFFFFFFFF0000
FFFFFFFFFF8000
FFFFFFFFFFC000
FFFFFFFFFFE000
FFFFFFFFFFF000
FFFFFFFFFFF800
FFFFFFFFFFF800
FFFFFFFFFFFC00
FFFFFFFFFFFE00
FFFFFFFFFFFE00
FFFFFFFFFFFF00
FFFFFFFFFFFF00
FFFFFFFFFFFF80
FFFFFFFFFFFF80
FFFFFFFFFFFFC0
00001FFFFFFFC0
000003FFFFFFC0
000000FFFFFFE0
0000007FFFFFE0
0000003FFFFFE0
0000001FFFFFF0
0000000FFFFFF0
0000000FFFFFF0
00000007FFFFF0
00000007FFFFF0
00000007FFFFF0
00000003FFFFF8
00000003FFFFF8
00000003FFFFF8
00000003FFFFF8
00000003FFFFF8
00000001FFFFF8
00000001FFFFF8
00000001FFFFF8
00000001FFFFF8
00000001FFFFF8
00000001FFFFF8
00000001FFFFF8
00000001FFFFF8
00000001FFFFF8
00000001FFFFF8
00000001FFFFF8
00000001FFFFF8
00000001FFFFF8
00000001FFFFF8
00000001FFFFF8
00000001FFFFF8
00000001FFFFF8
00000001FFFFF8
00000001FFFFF8
00000001FFFFF8
00000001FFFFF8
00000001FFFFF8
00000001FFFFF8
00000001FFFFF8
00000001FFFFF8
00000001FFFFF8
00000001FFFFF8
00000001FFFFF8
00000001FFFFF8
00000001FFFFF8
00000001FFFFF8
00000001FFFFF8
00000001FFFFF8
00000001FFFFF8
00000001FFFFF8
00000001FFFFF8
00000001FFFFF8
00000001FFFFF8
00000001FFFFF8
00000001FFFFF8
00000001FFFFF8
00000001FFFFF8
00000001FFFFF8
00000001FFFFF8
00000001FFFFF8
00000001FFFFF8
00000001FFFFF8
00000001FFFFF8
00000001FFFFF8
00000001FFFFF8
00000001FFFFF8
00000001FFFFF8
00000001FFFFF8
00000001FFFFF8
00000001FFFFF8
00000001FFFFF8
00000001FFFFF8
00000001FFFFF8
00000001FFFFF8
00000001FFFFF8
00000001FFFFF8
00000001FFFFF8
00000001FFFFF8
00000001FFFFF8
00000001FFFFF8
00000001FFFFF8
00000001FFFFF8
00000001FFFFF8
00000001FFFFF8
00000001FFFFF8
00000001FFFFF8
00000001FFFFF8
00000001FFFFF8
00000001FFFFF8
00000001FFFFF8
00000001FFFFF8
00000001FFFFF8
00000001FFFFF8
00000001FFFFF8
00000001FFFFF8
00000001FFFFF8
00000001FFFFF8
00000001FFFFF8
00000001FFFFF8
00000001FFFFF8
00000001FFFFF8
00000001FFFFF8
00000001FFFFF8
00000001FFFFF8
00000001FFFFF8
ENDCHAR
STARTCHAR two
ENCODING 50
SWIDTH 825 0
DWIDTH 146 0
BBX 126 129 11 0
BITMAP
7FFFFFFFFFFFFFFFFFFFFFFC00000000
7FFFFFFFFFFFFFFFFFFFFFFFE0000000
7FFFFFFFFFFFFFFFFFFFFFFFFE000000
7FFFFFFFFFFFFFFFFFFFFFFFFF800000
7FFFFFFFFFFFFFFFFFFFFFFFFFE00000
7FFFFFFFFFFFFFFFFFFFFFFFFFF80000
7FFFFFFFFFFFFFFFFFFFFFFFFFFE0000
7FFFFFFFFFFFFFFFFFFFFFFFFFFF0000
7FFFFFFFFFFFFFFFFFFFFFFFFFFFC000
7FFFFFFFFFFFFFFFFFFFFFFFFFFFE000
7FFFFFFFFFFFFFFFFFFFFFFFFFFFF000
7FFFFFFFFFFFFFFFFFFFFFFFFFFFF800
7FFFFFFFFFFFFFFFFFFFFFFFFFFFFC00
7FFFFFFFFFFFFFFFFFFFFFFFFFFFFE00
7FFFFFFFFFFFFFFFFFFFFFFFFFFFFE00
7FFFFFFFFFFFFFFFFFFFFFFFFFFFFF00
7FFFFFFFFFFFFFFFFFFFFFFFFFFFFF80
7FFFFFFFFFFFFFFFFFFFFFFFFFFFFF80
7FFFFFFFFFFFFFFFFFFFFFFFFFFFFFC0
7FFFFFFFFFFFFFFFFFFFFFFFFFFFFFC0
7FFFFFFFFFFFFFFFFFFFFFFFFFFFFFE0
7FFFFFFFFFFFFFFFFFFFFFFFFFFFFFE0
7FFFFFFFFFFFFFFFFFFFFFFFFFFFFFF0
000000000000000000000007FFFFFFF0
000000000000000000000001FFFFFFF0
0000000000000000000000007FFFFFF0
0000000000000000000000003FFFFFF8
0000000000000000000000001FFFFFF8
0000000000000000000000000FFFFFF8
0000000000000000000000000FFFFFF8
00000000000000000000000007FFFFF8
00000000000000000000000007FFFFFC
00000000000000000000000003FFFFFC
00000000000000000000000003FFFFFC
00000000000000000000000003FFFFFC
00000000000000000000000003FFFFFC
00000000000000000000000003FFFFFC
00000000000000000000000001FFFFFC
00000000000000000000000001FFFFFC
00000000000000000000000001FFFFFC
00000000000000000000000001FFFFFC
00000000000000000000000003FFFFFC
00000000000000000000000003FFFFF8
00000000000000000000000003FFFFF8
00000000000000000000000003FFFFF8
00000000000000000000000007FFFFF8
00000000000000000000000007FFFFF8
0000000000000000000000000FFFFFF0
0000000000000000000000000FFFFFF0
0000000000000000000000001FFFFFF0
0000000000000000000000003FFFFFE0
000000000000000000000000FFFFFFE0
000000000000000000000003FFFFFFC0
00000000000000000000001FFFFFFFC0
00000001FFFFFFFFFFFFFFFFFFFFFF80
0000003FFFFFFFFFFFFFFFFFFFFFFF80
000003FFFFFFFFFFFFFFFFFFFFFFFF00
00001FFFFFFFFFFFFFFFFFFFFFFFFF00
00007FFFFFFFFFFFFFFFFFFFFFFFFE00
0001FFFFFFFFFFFFFFFFFFFFFFFFFC00
0003FFFFFFFFFFFFFFFFFFFFFFFFF800
000FFFFFFFFFFFFFFFFFFFFFFFFFF000
001FFFFFFFFFFFFFFFFFFFFFFFFFE000
003FFFFFFFFFFFFFFFFFFFFFFFFFC000
007FFFFFFFFFFFFFFFFFFFFFFFFF8000
00FFFFFFFFFFFFFFFFFFFFFFFFFF0000
01FFFFFFFFFFFFFFFFFFFFFFFFFC0000
03FFFFFFFFFFFFFFFFFFFFFFFFF80000
03FFFFFFFFFFFFFFFFFFFFFFFFE00000
07FFFFFFFFFFFFFFFFFFFFFFFF800000
07FFFFFFFFFFFFFFFFFFFFFFFC000000
0FFFFFFFFFFFFFFFFFFFFFFFE0000000
0FFFFFFFFFFFFFFFFFFFFFFC00000000
1FFFFFFFC00000000000000000000000
1FFFFFFC000000000000000000000000
3FFFFFF0000000000000000000000000
3FFFFFE0000000000000000000000000
3FFFFFC0000000000000000000000000
3FFFFF80000000000000000000000000
7FFFFF00000000000000000000000000
7FFFFE00000000000000000000000000
7FFFFE00000000000000000000000000
7FFFFC00000000000000000000000000
7FFFFC00000000000000000000000000
FFFFFC00000000000000000000000000
FFFFFC00000000000000000000000000
FFFFFC00000000000000000000000000
FFFFF800000000000000000000000000
FFFFF800000000000000000000000000
FFFFF800000000000000000000000000
FFFFF800000000000000000000000000
FFFFF800000000000000000000000000
FFFFF800000000000000000000000000
FFFFF800000000000000000000000000
FFFFF800000000000000000000000000
FFFFF800000000000000000000000000
FFFFF800000000000000000000000000
FFFFF800000000000000000000000000
FFFFF800000000000000000000000000
FFFFF800000000000000000000000000
FFFFF800000000000000000000000000
FFFFF800000000000000000000000000
FFFFF800000000000000000000000000
FFFFF800000000000000000000000000
FFFFF800000000000000000000000000
FFFFF800000000000000000000000000
FFFFFFFFFFFFFFFFFFFFFFFFFFFFFFF0
FFFFFFFFFFFFFFFFFFFFFFFFFFFFFFF0
FFFFFFFFFFFFFFFFFFFFFFFFFFFFFFF0
FFFFFFFFFFFFFFFFFFFFFFFFFFFFFFF0
FFFFFFFFFFFFFFFFFFFFFFFFFFFFFFF0
FFFFFFFFFFFFFFFFFFFFFFFFFFFFFFF0
FFFFFFFFFFFFFFFFFFFFFFFFFFFFFFF0
FFFFFFFFFFFFFFFFFFFFFFFFFFFFFFF0
FFFFFFFFFFFFFFFFFFFFFFFFFFFFFFF0
FFFFFFFFFFFFFFFFFFFFFFFFFFFFFFF0
FFFFFFFFFFFFFFFFFFFFFFFFFFFFFFF0
FFFFFFFFFFFFFFFFFFFFFFFFFFFFFFF0
FFFFFFFFFFFFFFFFFFFFFFFFFFFFFFF0
FFFFFFFFFFFFFFFFFFFFFFFFFFFFFFF0
FFFFFFFFFFFFFFFFFFFFFFFFFFFFFFF0
FFFFFFFFFFFFFFFFFFFFFFFFFFFFFFF0
FFFFFFFFFFFFFFFFFFFFFFFFFFFFFFF0
FFFFFFFFFFFFFFFFFFFFFFFFFFFFFFF0
FFFFFFFFFFFFFFFFFFFFFFFFFFFFFFF0
FFFFFFFFFFFFFFFFFFFFFFFFFFFFFFF0
FFFFFFFFFFFFFFFFFFFFFFFFFFFFFFF0
FFFFFFFFFFFFFFFFFFFFFFFFFFFFFFF0
FFFFFFFFFFFFFFFFFFFFFFFFFFFFFFF0
ENDCHAR
STARTCHAR three
ENCODING 51
SWIDTH 827 0
DWIDTH 146 0
BBX 130 129 8 0
BITMAP
7FFFFFFFFFFFFFFFFFFFFFFC0000000000
7FFFFFFFFFFFFFFFFFFFFFFFF000000000
7FFFFFFFFFFFFFFFFFFFFFFFFF00000000
7FFFFFFFFFFFFFFFFFFFFFFFFFE0000000
7FFFFFFFFFFFFFFFFFFFFFFFFFF8000000
7FFFFFFFFFFFFFFFFFFFFFFFFFFE000000
7FFFFFFFFFFFFFFFFFFFFFFFFFFF800000
7FFFFFFFFFFFFFFFFFFFFFFFFFFFE00000
7FFFFFFFFFFFFFFFFFFFFFFFFFFFF00000
7FFFFFFFFFFFFFFFFFFFFFFFFFFFF80000
7FFFFFFFFFFFFFFFFFFFFFFFFFFFFC0000
7FFFFFFFFFFFFFFFFFFFFFFFFFFFFE0000
7FFFFFFFFFFFFFFFFFFFFFFFFFFFFF0000
7FFFFFFFFFFFFFFFFFFFFFFFFFFFFF8000
7FFFFFFFFFFFFFFFFFFFFFFFFFFFFFC000
7FFFFFFFFFFFFFFFFFFFFFFFFFFFFFC000
7FFFFFFFFFFFFFFFFFFFFFFFFFFFFFE000
7FFFFFFFFFFFFFFFFFFFFFFFFFFFFFF000
7FFFFFFFFFFFFFFFFFFFFFFFFFFFFFF000
7FFFFFFFFFFFFFFFFFFFFFFFFFFFFFF800
7FFFFFFFFFFFFFFFFFFFFFFFFFFFFFF800
7FFFFFFFFFFFFFFFFFFFFFFFFFFFFFF800
7FFFFFFFFFFFFFFFFFFFFFFFFFFFFFFC00
00000000000000000000000FFFFFFFFC00
000000000000000000000001FFFFFFFC00
0000000000000000000000003FFFFFFC00
0000000000000000000000001FFFFFFE00
00000000000000000000000007FFFFFE00
00000000000000000000000003FFFFFE00
00000000000000000000000003FFFFFE00
00000000000000000000000001FFFFFE00
00000000000000000000000001FFFFFE00
00000000000000000000000000FFFFFE00
00000000000000000000000000FFFFFE00
00000000000000000000000000FFFFFE00
00000000000000000000000000FFFFFE00
00000000000000000000000000FFFFFE00
000000000000000000000000007FFFFE00
000000000000000000000000007FFFFE00
000000000000000000000000007FFFFE00
00000000000000000000000000FFFFFE00
00000000000000000000000000FFFFFE00
00000000000000000000000000FFFFFC00
00000000000000000000000000FFFFFC00
00000000000000000000000000FFFFFC00
00000000000000000000000001FFFFFC00
00000000000000000000000001FFFFF800
00000000000000000000000001FFFFF800
00000000000000000000000003FFFFF000
00000000000000000000000007FFFFF000
0000000000000000000000000FFFFFE000
0000000000000000000000003FFFFFC000
000000000000000000000000FFFFFFC000
00000000000000000000000FFFFFFF8000
00000001FFFFFFFFFFFFFFFFFFFFFF0000
00000001FFFFFFFFFFFFFFFFFFFFFE0000
00000001FFFFFFFFFFFFFFFFFFFFFC0000
00000001FFFFFFFFFFFFFFFFFFFFF00000
00000001FFFFFFFFFFFFFFFFFFFFE00000
00000001FFFFFFFFFFFFFFFFFFFF800000
00000001FFFFFFFFFFFFFFFFFFFE000000
00000001FFFFFFFFFFFFFFFFFFFE000000
00000001FFFFFFFFFFFFFFFFFFFF800000
00000001FFFFFFFFFFFFFFFFFFFFE00000
00000001FFFFFFFFFFFFFFFFFFFFF80000
00000001FFFFFFFFFFFFFFFFFFFFFC0000
00000001FFFFFFFFFFFFFFFFFFFFFF0000
00000001FFFFFFFFFFFFFFFFFFFFFF8000
00000001FFFFFFFFFFFFFFFFFFFFFFC000
00000001FFFFFFFFFFFFFFFFFFFFFFE000
00000001FFFFFFFFFFFFFFFFFFFFFFE000
00000001FFFFFFFFFFFFFFFFFFFFFFF000
00000001FFFFFFFFFFFFFFFFFFFFFFF800
000000000000000000000007FFFFFFFC00
0000000000000000000000007FFFFFFC00
0000000000000000000000001FFFFFFE00
00000000000000000000000007FFFFFE00
00000000000000000000000003FFFFFF00
00000000000000000000000001FFFFFF00
00000000000000000000000000FFFFFF00
000000000000000000000000007FFFFF80
000000000000000000000000007FFFFF80
000000000000000000000000003FFFFF80
000000000000000000000000003FFFFF80
000000000000000000000000003FFFFF80
000000000000000000000000001FFFFF80
000000000000000000000000001FFFFFC0
000000000000000000000000001FFFFFC0
000000000000000000000000001FFFFFC0
000000000000000000000000001FFFFFC0
000000000000000000000000001FFFFFC0
000000000000000000000000001FFFFFC0
000000000000000000000000001FFFFFC0
000000000000000000000000003FFFFFC0
000000000000000000000000003FFFFFC0
000000000000000000000000003FFFFF80
000000000000000000000000007FFFFF80
000000000000000000000000007FFFFF80
00000000000000000000000000FFFFFF80
00000000000000000000000001FFFFFF80
00000000000000000000000003FFFFFF80
00000000000000000000000007FFFFFF00
0000000000000000000000000FFFFFFF00
0000000000000000000000003FFFFFFF00
000000000000000000000001FFFFFFFE00
00000000000000000000000FFFFFFFFE00
FFFFFFFFFFFFFFFFFFFFFFFFFFFFFFFE00
FFFFFFFFFFFFFFFFFFFFFFFFFFFFFFFC00
FFFFFFFFFFFFFFFFFFFFFFFFFFFFFFFC00
FFFFFFFFFFFFFFFFFFFFFFFFFFFFFFF800
FFFFFFFFFFFFFFFFFFFFFFFFFFFFFFF800
FFFFFFFFFFFFFFFFFFFFFFFFFFFFFFF000
FFFFFFFFFFFFFFFFFFFFFFFFFFFFFFE000
FFFFFFFFFFFFFFFFFFFFFFFFFFFFFFE000
FFFFFFFFFFFFFFFFFFFFFFFFFFFFFFC000
FFFFFFFFFFFFFFFFFFFFFFFFFFFFFF8000
FFFFFFFFFFFFFFFFFFFFFFFFFFFFFF0000
FFFFFFFFFFFFFFFFFFFFFFFFFFFFFE0000
FFFFFFFFFFFFFFFFFFFFFFFFFFFFFC0000
FFFFFFFFFFFFFFFFFFFFFFFFFFFFF80000
FFFFFFFFFFFFFFFFFFFFFFFFFFFFF00000
FFFFFFFFFFFFFFFFFFFFFFFFFFFFC00000
FFFFFFFFFFFFFFFFFFFFFFFFFFFF800000
FFFFFFFFFFFFFFFFFFFFFFFFFFFE000000
FFFFFFFFFFFFFFFFFFFFFFFFFFF8000000
FFFFFFFFFFFFFFFFFFFFFFFFFFE0000000
FFFFFFFFFFFFFFFFFFFFFFFFFF00000000
FFFFFFFFFFFFFFFFFFFFFFFFF800000000
FFFFFFFFFFFFFFFFFFFFFFFF0000000000
ENDCHAR
STARTCHAR four
ENCODING 52
SWIDTH 845 0
DWIDTH 150 0
BBX 137 129 8 0
BITMAP
FFFFFE000000000000000000FFFFFE000000
FFFFFE000000000000000000FFFFFE000000
FFFFFE000000000000000000FFFFFE000000
FFFFFE000000000000000000FFFFFE000000
FFFFFE000000000000000000FFFFFE000000
FFFFFE000000000000000000FFFFFE000000
FFFFFE000000000000000000FFFFFE000000
FFFFFE000000000000000000FFFFFE000000
FFFFFE000000000000000000FFFFFE000000
FFFFFE000000000000000000FFFFFE000000
FFFFFE000000000000000000FFFFFE000000
FFFFFE000000000000000000FFFFFE000000
FFFFFE000000000000000000FFFFFE000000
FFFFFE000000000000000000FFFFFE000000
FFFFFE000000000000000000FFFFFE000000
FFFFFE000000000000000000FFFFFE000000
FFFFFE000000000000000000FFFFFE000000
FFFFFE000000000000000000FFFFFE000000
FFFFFE000000000000000000FFFFFE000000
FFFFFE000000000000000000FFFFFE000000
FFFFFE000000000000000000FFFFFE000000
FFFFFE000000000000000000FFFFFE000000
FFFFFE000000000000000000FFFFFE000000
FFFFFE000000000000000000FFFFFE000000
FFFFFE000000000000000000FFFFFE000000
FFFFFE000000000000000000FFFFFE000000
FFFFFE000000000000000000FFFFFE000000
FFFFFE000000000000000000FFFFFE000000
FFFFFE000000000000000000FFFFFE000000
FFFFFE000000000000000000FFFFFE000000
FFFFFE000000000000000000FFFFFE000000
FFFFFE000000000000000000FFFFFE000000
FFFFFE000000000000000000FFFFFE000000
FFFFFE000000000000000000FFFFFE000000
FFFFFE000000000000000000FFFFFE000000
FFFFFE000000000000000000FFFFFE000000
FFFFFE000000000000000000FFFFFE000000
FFFFFE000000000000000000FFFFFE000000
FFFFFE000000000000000000FFFFFE000000
FFFFFE000000000000000000FFFFFE000000
FFFFFE000000000000000000FFFFFE000000
FFFFFE000000000000000000FFFFFE000000
FFFFFE000000000000000000FFFFFE000000
FFFFFE000000000000000000FFFFFE000000
FFFFFE000000000000000000FFFFFE000000
FFFFFE000000000000000000FFFFFE000000
FFFFFE000000000000000000FFFFFE000000
FFFFFE000000000000000000FFFFFE000000
FFFFFE000000000000000000FFFFFE000000
FFFFFE000000000000000000FFFFFE000000
FFFFFE000000000000000000FFFFFE000000
FFFFFE000000000000000000FFFFFE000000
FFFFFE000000000000000000FFFFFE000000
FFFFFE000000000000000000FFFFFE000000
FFFFFE000000000000000000FFFFFE000000
7FFFFE000000000000000000FFFFFE000000
7FFFFE000000000000000000FFFFFE000000
7FFFFE000000000000000000FFFFFE000000
7FFFFE000000000000000000FFFFFE000000
7FFFFE000000000000000000FFFFFE000000
7FFFFF000000000000000000FFFFFE000000
7FFFFF000000000000000000FFFFFE000000
7FFFFF000000000000000000FFFFFE000000
7FFFFF000000000000000000FFFFFE000000
7FFFFF800000000000000000FFFFFE000000
7FFFFF800000000000000000FFFFFE000000
3FFFFFC00000000000000000FFFFFE000000
3FFFFFE00000000000000000FFFFFE000000
3FFFFFF00000000000000000FFFFFE000000
3FFFFFF80000000000000000FFFFFE000000
1FFFFFFC0000000000000000FFFFFE000000
1FFFFFFF8000000000000000FFFFFE000000
1FFFFFFFF800000000000000FFFFFE000000
0FFFFFFFFFFFFFFFFFFFFFFFFFFFFFFFFF80
0FFFFFFFFFFFFFFFFFFFFFFFFFFFFFFFFF80
07FFFFFFFFFFFFFFFFFFFFFFFFFFFFFFFF80
07FFFFFFFFFFFFFFFFFFFFFFFFFFFFFFFF80
03FFFFFFFFFFFFFFFFFFFFFFFFFFFFFFFF80
03FFFFFFFFFFFFFFFFFFFFFFFFFFFFFFFF80
01FFFFFFFFFFFFFFFFFFFFFFFFFFFFFFFF80
01FFFFFFFFFFFFFFFFFFFFFFFFFFFFFFFF80
00FFFFFFFFFFFFFFFFFFFFFFFFFFFFFFFF80
007FFFFFFFFFFFFFFFFFFFFFFFFFFFFFFF80
003FFFFFFFFFFFFFFFFFFFFFFFFFFFFFFF80
001FFFFFFFFFFFFFFFFFFFFFFFFFFFFFFF80
000FFFFFFFFFFFFFFFFFFFFFFFFFFFFFFF80
0007FFFFFFFFFFFFFFFFFFFFFFFFFFFFFF80
0001FFFFFFFFFFFFFFFFFFFFFFFFFFFFFF80
0000FFFFFFFFFFFFFFFFFFFFFFFFFFFFFF80
00003FFFFFFFFFFFFFFFFFFFFFFFFFFFFF80
00000FFFFFFFFFFFFFFFFFFFFFFFFFFFFF80
000003FFFFFFFFFFFFFFFFFFFFFFFFFFFF80
0000007FFFFFFFFFFFFFFFFFFFFFFFFFFF80
0000000FFFFFFFFFFFFFFFFFFFFFFFFFFF80
000000003FFFFFFFFFFFFFFFFFFFFFFFFF80
000000000000000000000000FFFFFE000000
000000000000000000000000FFFFFE000000
000000000000000000000000FFFFFE000000
000000000000000000000000FFFFFE000000
000000000000000000000000FFFFFE000000
000000000000000000000000FFFFFE000000
000000000000000000000000FFFFFE000000
000000000000000000000000FFFFFE000000
000000000000000000000000FFFFFE000000
000000000000000000000000FFFFFE000000
000000000000000000000000FFFFFE000000
000000000000000000000000FFFFFE000000
000000000000000000000000FFFFFE000000
000000000000000000000000FFFFFE000000
000000000000000000000000FFFFFE000000
000000000000000000000000FFFFFE000000
000000000000000000000000FFFFFE000000
000000000000000000000000FFFFFE000000
000000000000000000000000FFFFFE000000
000000000000000000000000FFFFFE000000
000000000000000000000000FFFFFE000000
000000000000000000000000FFFFFE000000
000000000000000000000000FFFFFE000000
000000000000000000000000FFFFFE000000
000000000000000000000000FFFFFE000000
000000000000000000000000FFFFFE000000
000000000000000000000000FFFFFE000000
000000000000000000000000FFFFFE000000
000000000000000000000000FFFFFE000000
000000000000000000000000FFFFFE000000
000000000000000000000000FFFFFE000000
000000000000000000000000FFFFFE000000
000000000000000000000000FFFFFE000000
000000000000000000000000FFFFFE000000
ENDCHAR
STARTCHAR five
ENCODING 53
SWIDTH 885 0
DWIDTH 157 0
BBX 136 129 11 0
BITMAP
FFFFFFFFFFFFFFFFFFFFFFFFFFFFFFFFC0
FFFFFFFFFFFFFFFFFFFFFFFFFFFFFFFFC0
FFFFFFFFFFFFFFFFFFFFFFFFFFFFFFFFC0
FFFFFFFFFFFFFFFFFFFFFFFFFFFFFFFFC0
FFFFFFFFFFFFFFFFFFFFFFFFFFFFFFFFC0
FFFFFFFFFFFFFFFFFFFFFFFFFFFFFFFFC0
FFFFFFFFFFFFFFFFFFFFFFFFFFFFFFFFC0
FFFFFFFFFFFFFFFFFFFFFFFFFFFFFFFFC0
FFFFFFFFFFFFFFFFFFFFFFFFFFFFFFFFC0
FFFFFFFFFFFFFFFFFFFFFFFFFFFFFFFFC0
FFFFFFFFFFFFFFFFFFFFFFFFFFFFFFFFC0
FFFFFFFFFFFFFFFFFFFFFFFFFFFFFFFFC0
FFFFFFFFFFFFFFFFFFFFFFFFFFFFFFFFC0
FFFFFFFFFFFFFFFFFFFFFFFFFFFFFFFFC0
FFFFFFFFFFFFFFFFFFFFFFFFFFFFFFFFC0
FFFFFFFFFFFFFFFFFFFFFFFFFFFFFFFFC0
FFFFFFFFFFFFFFFFFFFFFFFFFFFFFFFFC0
FFFFFFFFFFFFFFFFFFFFFFFFFFFFFFFFC0
FFFFFFFFFFFFFFFFFFFFFFFFFFFFFFFFC0
FFFFFFFFFFFFFFFFFFFFFFFFFFFFFFFFC0
FFFFFFFFFFFFFFFFFFFFFFFFFFFFFFFFC0
FFFFFFFFFFFFFFFFFFFFFFFFFFFFFFFFC0
FFFFFFFFFFFFFFFFFFFFFFFFFFFFFFFFC0
FFFFFE0000000000000000000000000000
FFFFFE0000000000000000000000000000
FFFFFE0000000000000000000000000000
FFFFFE0000000000000000000000000000
FFFFFE0000000000000000000000000000
FFFFFE0000000000000000000000000000
FFFFFE0000000000000000000000000000
FFFFFE0000000000000000000000000000
FFFFFE0000000000000000000000000000
FFFFFE0000000000000000000000000000
FFFFFE0000000000000000000000000000
FFFFFE0000000000000000000000000000
FFFFFE0000000000000000000000000000
FFFFFE0000000000000000000000000000
FFFFFE0000000000000000000000000000
FFFFFE0000000000000000000000000000
FFFFFE0000000000000000000000000000
FFFFFE0000000000000000000000000000
FFFFFE0000000000000000000000000000
FFFFFE0000000000000000000000000000
FFFFFE0000000000000000000000000000
FFFFFE0000000000000000000000000000
FFFFFE0000000000000000000000000000
FFFFFE0000000000000000000000000000
FFFFFE0000000000000000000000000000
FFFFFE0000000000000000000000000000
FFFFFE0000000000000000000000000000
FFFFFE0000000000000000000000000000
FFFFFE0000000000000000000000000000
FFFFFE0000000000000000000000000000
FFFFFE0000000000000000000000000000
FFFFFFFFFFFFFFFFFFFFFFFFFF80000000
FFFFFFFFFFFFFFFFFFFFFFFFFFFE000000
FFFFFFFFFFFFFFFFFFFFFFFFFFFFC00000
FFFFFFFFFFFFFFFFFFFFFFFFFFFFF80000
FFFFFFFFFFFFFFFFFFFFFFFFFFFFFE0000
FFFFFFFFFFFFFFFFFFFFFFFFFFFFFF8000
FFFFFFFFFFFFFFFFFFFFFFFFFFFFFFE000
FFFFFFFFFFFFFFFFFFFFFFFFFFFFFFF000
FFFFFFFFFFFFFFFFFFFFFFFFFFFFFFF800
FFFFFFFFFFFFFFFFFFFFFFFFFFFFFFFE00
FFFFFFFFFFFFFFFFFFFFFFFFFFFFFFFF00
FFFFFFFFFFFFFFFFFFFFFFFFFFFFFFFF00
FFFFFFFFFFFFFFFFFFFFFFFFFFFFFFFF80
FFFFFFFFFFFFFFFFFFFFFFFFFFFFFFFFC0
FFFFFFFFFFFFFFFFFFFFFFFFFFFFFFFFE0
FFFFFFFFFFFFFFFFFFFFFFFFFFFFFFFFE0
FFFFFFFFFFFFFFFFFFFFFFFFFFFFFFFFF0
FFFFFFFFFFFFFFFFFFFFFFFFFFFFFFFFF0
FFFFFFFFFFFFFFFFFFFFFFFFFFFFFFFFF8
00000000000000000000000003FFFFFFF8
000000000000000000000000003FFFFFFC
000000000000000000000000000FFFFFFC
0000000000000000000000000003FFFFFC
0000000000000000000000000001FFFFFE
0000000000000000000000000000FFFFFE
0000000000000000000000000000FFFFFE
00000000000000000000000000007FFFFE
00000000000000000000000000003FFFFF
00000000000000000000000000003FFFFF
00000000000000000000000000003FFFFF
00000000000000000000000000001FFFFF
00000000000000000000000000001FFFFF
00000000000000000000000000001FFFFF
00000000000000000000000000001FFFFF
00000000000000000000000000001FFFFF
00000000000000000000000000001FFFFF
00000000000000000000000000001FFFFF
00000000000000000000000000001FFFFF
00000000000000000000000000001FFFFF
00000000000000000000000000001FFFFF
00000000000000000000000000001FFFFF
00000000000000000000000000003FFFFF
00000000000000000000000000003FFFFF
00000000000000000000000000003FFFFF
00000000000000000000000000007FFFFF
0000000000000000000000000000FFFFFF
0000000000000000000000000000FFFFFF
0000000000000000000000000001FFFFFE
0000000000000000000000000003FFFFFE
000000000000000000000000000FFFFFFE
000000000000000000000000001FFFFFFE
00000000000000000000000000FFFFFFFC
FFFFFFFFFFFFFFFFFFFFFFFFFFFFFFFFFC
FFFFFFFFFFFFFFFFFFFFFFFFFFFFFFFFFC
FFFFFFFFFFFFFFFFFFFFFFFFFFFFFFFFF8
FFFFFFFFFFFFFFFFFFFFFFFFFFFFFFFFF8
FFFFFFFFFFFFFFFFFFFFFFFFFFFFFFFFF0
FFFFFFFFFFFFFFFFFFFFFFFFFFFFFFFFF0
FFFFFFFFFFFFFFFFFFFFFFFFFFFFFFFFE0
FFFFFFFFFFFFFFFFFFFFFFFFFFFFFFFFC0
FFFFFFFFFFFFFFFFFFFFFFFFFFFFFFFFC0
FFFFFFFFFFFFFFFFFFFFFFFFFFFFFFFF80
FFFFFFFFFFFFFFFFFFFFFFFFFFFFFFFF00
FFFFFFFFFFFFFFFFFFFFFFFFFFFFFFFE00
FFFFFFFFFFFFFFFFFFFFFFFFFFFFFFFC00
FFFFFFFFFFFFFFFFFFFFFFFFFFFFFFF800
FFFFFFFFFFFFFFFFFFFFFFFFFFFFFFF000
FFFFFFFFFFFFFFFFFFFFFFFFFFFFFFE000
FFFFFFFFFFFFFFFFFFFFFFFFFFFFFF8000
FFFFFFFFFFFFFFFFFFFFFFFFFFFFFF0000
FFFFFFFFFFFFFFFFFFFFFFFFFFFFFC0000
FFFFFFFFFFFFFFFFFFFFFFFFFFFFF00000
FFFFFFFFFFFFFFFFFFFFFFFFFFFF800000
FFFFFFFFFFFFFFFFFFFFFFFFFFFC000000
FFFFFFFFFFFFFFFFFFFFFFFFFF00000000
ENDCHAR
STARTCHAR six
ENCODING 54
SWIDTH 872 0
DWIDTH 154 0
BBX 138 129 7 0
BITMAP
0000000000007FFFFFFFFFFFFFFFFFFFF800
00000000001FFFFFFFFFFFFFFFFFFFFFF800
0000000003FFFFFFFFFFFFFFFFFFFFFFF800
000000001FFFFFFFFFFFFFFFFFFFFFFFF800
00000000FFFFFFFFFFFFFFFFFFFFFFFFF800
00000003FFFFFFFFFFFFFFFFFFFFFFFFF800
0000000FFFFFFFFFFFFFFFFFFFFFFFFFF800
0000003FFFFFFFFFFFFFFFFFFFFFFFFFF800
000000FFFFFFFFFFFFFFFFFFFFFFFFFFF800
000001FFFFFFFFFFFFFFFFFFFFFFFFFFF800
000007FFFFFFFFFFFFFFFFFFFFFFFFFFF800
00000FFFFFFFFFFFFFFFFFFFFFFFFFFFF800
00001FFFFFFFFFFFFFFFFFFFFFFFFFFFF800
00003FFFFFFFFFFFFFFFFFFFFFFFFFFFF800
00007FFFFFFFFFFFFFFFFFFFFFFFFFFFF800
0000FFFFFFFFFFFFFFFFFFFFFFFFFFFFF800
0001FFFFFFFFFFFFFFFFFFFFFFFFFFFFF800
0003FFFFFFFFFFFFFFFFFFFFFFFFFFFFF800
0007FFFFFFFFFFFFFFFFFFFFFFFFFFFFF800
000FFFFFFFFFFFFFFFFFFFFFFFFFFFFFF800
000FFFFFFFFFFFFFFFFFFFFFFFFFFFFFF800
001FFFFFFFFFFFFFFFFFFFFFFFFFFFFFF800
003FFFFFFFFFFFFFFFFFFFFFFFFFFFFFF800
003FFFFFFFFF800000000000000000000000
007FFFFFFFF8000000000000000000000000
00FFFFFFFFC0000000000000000000000000
00FFFFFFFF00000000000000000000000000
01FFFFFFFC00000000000000000000000000
01FFFFFFF000000000000000000000000000
03FFFFFFE000000000000000000000000000
03FFFFFFC000000000000000000000000000
03FFFFFF8000000000000000000000000000
07FFFFFF0000000000000000000000000000
07FFFFFE0000000000000000000000000000
0FFFFFFC0000000000000000000000000000
0FFFFFFC0000000000000000000000000000
0FFFFFF80000000000000000000000000000
0FFFFFF00000000000000000000000000000
1FFFFFF00000000000000000000000000000
1FFFFFE00000000000000000000000000000
1FFFFFE00000000000000000000000000000
1FFFFFC00000000000000000000000000000
3FFFFFC00000000000000000000000000000
3FFFFFC00000000000000000000000000000
3FFFFF800000000000000000000000000000
3FFFFF800000000000000000000000000000
3FFFFF800000000000000000000000000000
7FFFFF800000000000000000000000000000
7FFFFF000000000000000000000000000000
7FFFFF000000000000000000000000000000
7FFFFF000000000000000000000000000000
7FFFFF000000000000000000000000000000
7FFFFF000000000000000000000000000000
7FFFFF000000000000000000000000000000
7FFFFFFFFFFFFFFFFFFFFFFFFFE000000000
7FFFFFFFFFFFFFFFFFFFFFFFFFFF80000000
7FFFFFFFFFFFFFFFFFFFFFFFFFFFF0000000
7FFFFFFFFFFFFFFFFFFFFFFFFFFFFE000000
FFFFFFFFFFFFFFFFFFFFFFFFFFFFFF800000
FFFFFFFFFFFFFFFFFFFFFFFFFFFFFFE00000
FFFFFFFFFFFFFFFFFFFFFFFFFFFFFFF80000
FFFFFFFFFFFFFFFFFFFFFFFFFFFFFFFC0000
FFFFFFFFFFFFFFFFFFFFFFFFFFFFFFFE0000
FFFFFFFFFFFFFFFFFFFFFFFFFFFFFFFF8000
FFFFFFFFFFFFFFFFFFFFFFFFFFFFFFFFC000
FFFFFFFFFFFFFFFFFFFFFFFFFFFFFFFFC000
FFFFFFFFFFFFFFFFFFFFFFFFFFFFFFFFE000
FFFFFFFFFFFFFFFFFFFFFFFFFFFFFFFFF000
7FFFFFFFFFFFFFFFFFFFFFFFFFFFFFFFF800
7FFFFFFFFFFFFFFFFFFFFFFFFFFFFFFFF800
7FFFFFFFFFFFFFFFFFFFFFFFFFFFFFFFFC00
7FFFFFFFFFFFFFFFFFFFFFFFFFFFFFFFFC00
7FFFFFFFFFFFFFFFFFFFFFFFFFFFFFFFFE00
7FFFFE00000000000000000001FFFFFFFE00
7FFFFE000000000000000000001FFFFFFF00
7FFFFF0000000000000000000007FFFFFF00
7FFFFF0000000000000000000001FFFFFF00
7FFFFF0000000000000000000000FFFFFF80
7FFFFF00000000000000000000007FFFFF80
3FFFFF00000000000000000000003FFFFF80
3FFFFF00000000000000000000003FFFFF80
3FFFFF80000000000000000000001FFFFF80
3FFFFF80000000000000000000001FFFFF80
3FFFFF80000000000000000000000FFFFFC0
3FFFFFC0000000000000000000000FFFFFC0
1FFFFFC0000000000000000000000FFFFFC0
1FFFFFC0000000000000000000000FFFFFC0
1FFFFFE0000000000000000000000FFFFFC0
1FFFFFE0000000000000000000000FFFFFC0
0FFFFFE0000000000000000000000FFFFFC0
0FFFFFF0000000000000000000000FFFFFC0
0FFFFFF0000000000000000000000FFFFFC0
07FFFFF8000000000000000000000FFFFFC0
07FFFFFC000000000000000000000FFFFFC0
07FFFFFC000000000000000000000FFFFFC0
03FFFFFE000000000000000000001FFFFFC0
03FFFFFF000000000000000000001FFFFFC0
03FFFFFF800000000000000000001FFFFF80
01FFFFFFC00000000000000000003FFFFF80
01FFFFFFE00000000000000000007FFFFF80
00FFFFFFF80000000000000000007FFFFF80
00FFFFFFFC000000000000000000FFFFFF80
007FFFFFFF000000000000000001FFFFFF80
007FFFFFFFC00000000000000007FFFFFF00
003FFFFFFFF8000000000000001FFFFFFF00
003FFFFFFFFF800000000000007FFFFFFF00
001FFFFFFFFFFFFFFFFFFFFFFFFFFFFFFE00
000FFFFFFFFFFFFFFFFFFFFFFFFFFFFFFE00
0007FFFFFFFFFFFFFFFFFFFFFFFFFFFFFE00
0007FFFFFFFFFFFFFFFFFFFFFFFFFFFFFC00
0003FFFFFFFFFFFFFFFFFFFFFFFFFFFFFC00
0001FFFFFFFFFFFFFFFFFFFFFFFFFFFFF800
0000FFFFFFFFFFFFFFFFFFFFFFFFFFFFF000
00007FFFFFFFFFFFFFFFFFFFFFFFFFFFF000
00003FFFFFFFFFFFFFFFFFFFFFFFFFFFE000
00001FFFFFFFFFFFFFFFFFFFFFFFFFFFC000
00000FFFFFFFFFFFFFFFFFFFFFFFFFFFC000
000007FFFFFFFFFFFFFFFFFFFFFFFFFF8000
000001FFFFFFFFFFFFFFFFFFFFFFFFFF0000
000000FFFFFFFFFFFFFFFFFFFFFFFFFE0000
0000007FFFFFFFFFFFFFFFFFFFFFFFFC0000
0000001FFFFFFFFFFFFFFFFFFFFFFFF00000
00000007FFFFFFFFFFFFFFFFFFFFFFE00000
00000001FFFFFFFFFFFFFFFFFFFFFFC00000
000000007FFFFFFFFFFFFFFFFFFFFF000000
000000000FFFFFFFFFFFFFFFFFFFF8000000
0000000001FFFFFFFFFFFFFFFFFFE0000000
00000000001FFFFFFFFFFFFFFFFF00000000
0000000000007FFFFFFFFFFFFFC000000000
ENDCHAR
STARTCHAR seven
ENCODING 55
SWIDTH 756 0
DWIDTH 134 0
BBX 122 129 8 0
BITMAP
FFFFFFFFFFFFFFFFFFFFFFFFFFFF8000
FFFFFFFFFFFFFFFFFFFFFFFFFFFFF000
FFFFFFFFFFFFFFFFFFFFFFFFFFFFFC00
FFFFFFFFFFFFFFFFFFFFFFFFFFFFFE00
FFFFFFFFFFFFFFFFFFFFFFFFFFFFFF00
FFFFFFFFFFFFFFFFFFFFFFFFFFFFFF80
FFFFFFFFFFFFFFFFFFFFFFFFFFFFFF80
FFFFFFFFFFFFFFFFFFFFFFFFFFFFFFC0
FFFFFFFFFFFFFFFFFFFFFFFFFFFFFFC0
FFFFFFFFFFFFFFFFFFFFFFFFFFFFFFC0
FFFFFFFFFFFFFFFFFFFFFFFFFFFFFFC0
FFFFFFFFFFFFFFFFFFFFFFFFFFFFFFC0
FFFFFFFFFFFFFFFFFFFFFFFFFFFFFFC0
FFFFFFFFFFFFFFFFFFFFFFFFFFFFFFC0
FFFFFFFFFFFFFFFFFFFFFFFFFFFFFFC0
FFFFFFFFFFFFFFFFFFFFFFFFFFFFFF80
FFFFFFFFFFFFFFFFFFFFFFFFFFFFFF80
FFFFFFFFFFFFFFFFFFFFFFFFFFFFFF80
FFFFFFFFFFFFFFFFFFFFFFFFFFFFFF00
FFFFFFFFFFFFFFFFFFFFFFFFFFFFFE00
FFFFFFFFFFFFFFFFFFFFFFFFFFFFFC00
FFFFFFFFFFFFFFFFFFFFFFFFFFFFFC00
FFFFFFFFFFFFFFFFFFFFFFFFFFFFF800
0000000000000000000000FFFFFFF000
0000000000000000000001FFFFFFE000
0000000000000000000003FFFFFFC000
0000000000000000000003FFFFFFC000
0000000000000000000007FFFFFF8000
000000000000000000000FFFFFFF0000
000000000000000000001FFFFFFE0000
000000000000000000003FFFFFFC0000
000000000000000000007FFFFFFC0000
000000000000000000007FFFFFF80000
00000000000000000000FFFFFFF00000
00000000000000000001FFFFFFE00000
00000000000000000003FFFFFFC00000
00000000000000000007FFFFFF800000
0000000000000000000FFFFFFF800000
0000000000000000000FFFFFFF000000
0000000000000000001FFFFFFE000000
0000000000000000003FFFFFFC000000
0000000000000000007FFFFFF8000000
000000000000000000FFFFFFF8000000
000000000000000001FFFFFFF0000000
000000000000000001FFFFFFE0000000
000000000000000003FFFFFFC0000000
000000000000000007FFFFFF80000000
00000000000000000FFFFFFF00000000
00000000000000001FFFFFFF00000000
00000000000000001FFFFFFE00000000
00000000000000003FFFFFFC00000000
00000000000000007FFFFFF800000000
0000000000000000FFFFFFF000000000
0000000000000001FFFFFFF000000000
0000000000000003FFFFFFE000000000
0000000000000003FFFFFFC000000000
0000000000000007FFFFFF8000000000
000000000000000FFFFFFF0000000000
000000000000001FFFFFFF0000000000
000000000000003FFFFFFE0000000000
000000000000007FFFFFFC0000000000
000000000000007FFFFFF80000000000
00000000000000FFFFFFF00000000000
00000000000001FFFFFFE00000000000
00000000000003FFFFFFE00000000000
00000000000007FFFFFFC00000000000
0000000000000FFFFFFF800000000000
0000000000000FFFFFFF000000000000
0000000000001FFFFFFE000000000000
0000000000003FFFFFFE000000000000
0000000000007FFFFFFC000000000000
000000000000FFFFFFF8000000000000
000000000000FFFFFFF0000000000000
000000000001FFFFFFE0000000000000
000000000003FFFFFFC0000000000000
000000000007FFFFFFC0000000000000
00000000000FFFFFFF80000000000000
00000000001FFFFFFF00000000000000
00000000001FFFFFFE00000000000000
00000000003FFFFFFC00000000000000
00000000007FFFFFFC00000000000000
0000000000FFFFFFF800000000000000
0000000001FFFFFFF000000000000000
0000000003FFFFFFE000000000000000
0000000003FFFFFFC000000000000000
0000000007FFFFFFC000000000000000
000000000FFFFFFF8000000000000000
000000001FFFFFFF0000000000000000
000000003FFFFFFE0000000000000000
000000007FFFFFFC0000000000000000
000000007FFFFFF80000000000000000
00000000FFFFFFF80000000000000000
00000001FFFFFFF00000000000000000
00000003FFFFFFE00000000000000000
00000007FFFFFFC00000000000000000
00000007FFFFFF800000000000000000
0000000FFFFFFF800000000000000000
0000001FFFFFFF000000000000000000
0000003FFFFFFE000000000000000000
0000007FFFFFFC000000000000000000
000000FFFFFFF8000000000000000000
000000FFFFFFF0000000000000000000
000001FFFFFFF0000000000000000000
000003FFFFFFE0000000000000000000
000007FFFFFFC0000000000000000000
00000FFFFFFF80000000000000000000
00001FFFFFFF00000000000000000000
00001FFFFFFF00000000000000000000
00003FFFFFFE00000000000000000000
00007FFFFFFC00000000000000000000
0000FFFFFFF800000000000000000000
0001FFFFFFF000000000000000000000
0003FFFFFFF000000000000000000000
0003FFFFFFE000000000000000000000
0007FFFFFFC000000000000000000000
000FFFFFFF8000000000000000000000
001FFFFFFF0000000000000000000000
003FFFFFFE0000000000000000000000
007FFFFFFE0000000000000000000000
007FFFFFFC0000000000000000000000
00FFFFFFF80000000000000000000000
01FFFFFFF00000000000000000000000
03FFFFFFE00000000000000000000000
07FFFFFFE00000000000000000000000
07FFFFFFC00000000000000000000000
0FFFFFFF800000000000000000000000
1FFFFFFF000000000000000000000000
3FFFFFFE000000000000000000000000
7FFFFFFC000000000000000000000000
ENDCHAR
STARTCHAR eight
ENCODING 56
SWIDTH 898 0
DWIDTH 159 0
BBX 141 129 9 0
BITMAP
000000001FFFFFFFFFFFFFFFFFC000000000
00000003FFFFFFFFFFFFFFFFFFFF00000000
0000003FFFFFFFFFFFFFFFFFFFFFE0000000
000001FFFFFFFFFFFFFFFFFFFFFFFC000000
00000FFFFFFFFFFFFFFFFFFFFFFFFF800000
00003FFFFFFFFFFFFFFFFFFFFFFFFFE00000
00007FFFFFFFFFFFFFFFFFFFFFFFFFF00000
0001FFFFFFFFFFFFFFFFFFFFFFFFFFFC0000
0003FFFFFFFFFFFFFFFFFFFFFFFFFFFE0000
0007FFFFFFFFFFFFFFFFFFFFFFFFFFFF0000
001FFFFFFFFFFFFFFFFFFFFFFFFFFFFFC000
003FFFFFFFFFFFFFFFFFFFFFFFFFFFFFE000
007FFFFFFFFFFFFFFFFFFFFFFFFFFFFFE000
007FFFFFFFFFFFFFFFFFFFFFFFFFFFFFF000
00FFFFFFFFFFFFFFFFFFFFFFFFFFFFFFF800
01FFFFFFFFFFFFFFFFFFFFFFFFFFFFFFFC00
01FFFFFFFFFFFFFFFFFFFFFFFFFFFFFFFC00
03FFFFFFFFFFFFFFFFFFFFFFFFFFFFFFFE00
03FFFFFFFFFFFFFFFFFFFFFFFFFFFFFFFE00
07FFFFFFFFFFFFFFFFFFFFFFFFFFFFFFFF00
07FFFFFFFFFFFFFFFFFFFFFFFFFFFFFFFF00
0FFFFFFFFFFFFFFFFFFFFFFFFFFFFFFFFF80
0FFFFFFFFFFFFFFFFFFFFFFFFFFFFFFFFF80
0FFFFFFFFC0000000000000001FFFFFFFF80
1FFFFFFFC000000000000000001FFFFFFFC0
1FFFFFFF00000000000000000007FFFFFFC0
1FFFFFFC00000000000000000001FFFFFFC0
1FFFFFF800000000000000000000FFFFFFC0
1FFFFFF0000000000000000000007FFFFFC0
1FFFFFE0000000000000000000003FFFFFC0
1FFFFFE0000000000000000000003FFFFFE0
1FFFFFC0000000000000000000001FFFFFE0
3FFFFFC0000000000000000000001FFFFFE0
3FFFFFC0000000000000000000001FFFFFE0
3FFFFF80000000000000000000001FFFFFE0
1FFFFF80000000000000000000000FFFFFE0
1FFFFF80000000000000000000000FFFFFE0
1FFFFF80000000000000000000000FFFFFC0
1FFFFF80000000000000000000000FFFFFC0
1FFFFF80000000000000000000000FFFFFC0
1FFFFF80000000000000000000000FFFFFC0
1FFFFF80000000000000000000000FFFFFC0
1FFFFF80000000000000000000001FFFFFC0
0FFFFFC0000000000000000000001FFFFF80
0FFFFFC0000000000000000000001FFFFF80
0FFFFFC0000000000000000000001FFFFF80
07FFFFE0000000000000000000003FFFFF00
07FFFFE0000000000000000000003FFFFF00
07FFFFF0000000000000000000007FFFFF00
03FFFFF800000000000000000000FFFFFE00
01FFFFFC00000000000000000001FFFFFC00
01FFFFFE00000000000000000003FFFFFC00
00FFFFFFC000000000000000001FFFFFF800
007FFFFFFC0000000000000000FFFFFFF000
003FFFFFFFFFFFFFFFFFFFFFFFFFFFFFE000
001FFFFFFFFFFFFFFFFFFFFFFFFFFFFFC000
000FFFFFFFFFFFFFFFFFFFFFFFFFFFFF8000
0007FFFFFFFFFFFFFFFFFFFFFFFFFFFF0000
0001FFFFFFFFFFFFFFFFFFFFFFFFFFFC0000
00007FFFFFFFFFFFFFFFFFFFFFFFFFF00000
00001FFFFFFFFFFFFFFFFFFFFFFFFFC00000
00001FFFFFFFFFFFFFFFFFFFFFFFFFC00000
0000FFFFFFFFFFFFFFFFFFFFFFFFFFF80000
0003FFFFFFFFFFFFFFFFFFFFFFFFFFFE0000
0007FFFFFFFFFFFFFFFFFFFFFFFFFFFF0000
001FFFFFFFFFFFFFFFFFFFFFFFFFFFFFC000
003FFFFFFFFFFFFFFFFFFFFFFFFFFFFFE000
007FFFFFFFFFFFFFFFFFFFFFFFFFFFFFF000
00FFFFFFFFFFFFFFFFFFFFFFFFFFFFFFF800
01FFFFFFFFFFFFFFFFFFFFFFFFFFFFFFFC00
03FFFFFFFFFFFFFFFFFFFFFFFFFFFFFFFE00
07FFFFFFFFFFFFFFFFFFFFFFFFFFFFFFFE00
07FFFFFFFFFFFFFFFFFFFFFFFFFFFFFFFF00
0FFFFFFFF00000000000000000FFFFFFFF80
0FFFFFFF8000000000000000000FFFFFFF80
1FFFFFFC00000000000000000003FFFFFFC0
1FFFFFF800000000000000000000FFFFFFC0
3FFFFFF0000000000000000000007FFFFFE0
3FFFFFE0000000000000000000003FFFFFE0
7FFFFFC0000000000000000000001FFFFFE0
7FFFFF80000000000000000000000FFFFFF0
7FFFFF00000000000000000000000FFFFFF0
7FFFFF000000000000000000000007FFFFF0
7FFFFF000000000000000000000007FFFFF0
FFFFFE000000000000000000000003FFFFF8
FFFFFE000000000000000000000003FFFFF8
FFFFFE000000000000000000000003FFFFF8
FFFFFE000000000000000000000003FFFFF8
FFFFFE000000000000000000000003FFFFF8
FFFFFE000000000000000000000003FFFFF8
FFFFFE000000000000000000000003FFFFF8
FFFFFE000000000000000000000003FFFFF8
FFFFFE000000000000000000000003FFFFF8
FFFFFE000000000000000000000003FFFFF8
FFFFFE000000000000000000000003FFFFF8
FFFFFF000000000000000000000007FFFFF8
FFFFFF000000000000000000000007FFFFF0
7FFFFF80000000000000000000000FFFFFF0
7FFFFF80000000000000000000000FFFFFF0
7FFFFFC0000000000000000000001FFFFFF0
7FFFFFE0000000000000000000003FFFFFF0
7FFFFFF0000000000000000000007FFFFFE0
3FFFFFFC00000000000000000001FFFFFFE0
3FFFFFFF00000000000000000007FFFFFFE0
3FFFFFFFC000000000000000001FFFFFFFE0
1FFFFFFFFC0000000000000001FFFFFFFFC0
1FFFFFFFFFFFFFFFFFFFFFFFFFFFFFFFFFC0
0FFFFFFFFFFFFFFFFFFFFFFFFFFFFFFFFF80
0FFFFFFFFFFFFFFFFFFFFFFFFFFFFFFFFF80
07FFFFFFFFFFFFFFFFFFFFFFFFFFFFFFFF00
07FFFFFFFFFFFFFFFFFFFFFFFFFFFFFFFF00
03FFFFFFFFFFFFFFFFFFFFFFFFFFFFFFFE00
03FFFFFFFFFFFFFFFFFFFFFFFFFFFFFFFE00
01FFFFFFFFFFFFFFFFFFFFFFFFFFFFFFFC00
00FFFFFFFFFFFFFFFFFFFFFFFFFFFFFFF800
007FFFFFFFFFFFFFFFFFFFFFFFFFFFFFF000
007FFFFFFFFFFFFFFFFFFFFFFFFFFFFFE000
003FFFFFFFFFFFFFFFFFFFFFFFFFFFFFE000
001FFFFFFFFFFFFFFFFFFFFFFFFFFFFFC000
000FFFFFFFFFFFFFFFFFFFFFFFFFFFFF0000
0003FFFFFFFFFFFFFFFFFFFFFFFFFFFE0000
0001FFFFFFFFFFFFFFFFFFFFFFFFFFFC0000
00007FFFFFFFFFFFFFFFFFFFFFFFFFF00000
00003FFFFFFFFFFFFFFFFFFFFFFFFFE00000
00000FFFFFFFFFFFFFFFFFFFFFFFFF800000
000003FFFFFFFFFFFFFFFFFFFFFFFE000000
0000007FFFFFFFFFFFFFFFFFFFFFF0000000
0000000FFFFFFFFFFFFFFFFFFFFF00000000
000000003FFFFFFFFFFFFFFFFFE000000000
ENDCHAR
STARTCHAR nine
ENCODING 57
SWIDTH 861 0
DWIDTH 152 0
BBX 138 129 7 0
BITMAP
00000001FFFFFFFFFFFFFF80000000000000
0000001FFFFFFFFFFFFFFFFE000000000000
000000FFFFFFFFFFFFFFFFFFE00000000000
000007FFFFFFFFFFFFFFFFFFFC0000000000
00001FFFFFFFFFFFFFFFFFFFFF8000000000
00003FFFFFFFFFFFFFFFFFFFFFE000000000
0000FFFFFFFFFFFFFFFFFFFFFFF800000000
0001FFFFFFFFFFFFFFFFFFFFFFFE00000000
0003FFFFFFFFFFFFFFFFFFFFFFFF80000000
000FFFFFFFFFFFFFFFFFFFFFFFFFC0000000
001FFFFFFFFFFFFFFFFFFFFFFFFFF0000000
003FFFFFFFFFFFFFFFFFFFFFFFFFF8000000
003FFFFFFFFFFFFFFFFFFFFFFFFFFC000000
007FFFFFFFFFFFFFFFFFFFFFFFFFFE000000
00FFFFFFFFFFFFFFFFFFFFFFFFFFFF800000
01FFFFFFFFFFFFFFFFFFFFFFFFFFFFC00000
01FFFFFFFFFFFFFFFFFFFFFFFFFFFFC00000
03FFFFFFFFFFFFFFFFFFFFFFFFFFFFE00000
03FFFFFFFFFFFFFFFFFFFFFFFFFFFFF00000
07FFFFFFFFFFFFFFFFFFFFFFFFFFFFF80000
07FFFFFFFFFFFFFFFFFFFFFFFFFFFFFC0000
0FFFFFFFFFFFFFFFFFFFFFFFFFFFFFFC0000
0FFFFFFFFFFFFFFFFFFFFFFFFFFFFFFE0000
1FFFFFFFE00000000000003FFFFFFFFF0000
1FFFFFFF0000000000000007FFFFFFFF0000
1FFFFFFC0000000000000000FFFFFFFF8000
3FFFFFF800000000000000003FFFFFFF8000
3FFFFFF000000000000000000FFFFFFFC000
3FFFFFE0000000000000000003FFFFFFE000
3FFFFFC0000000000000000001FFFFFFE000
7FFFFFC0000000000000000000FFFFFFE000
7FFFFF800000000000000000007FFFFFF000
7FFFFF800000000000000000003FFFFFF000
7FFFFF000000000000000000001FFFFFF800
7FFFFF000000000000000000000FFFFFF800
7FFFFF0000000000000000000007FFFFF800
7FFFFF0000000000000000000007FFFFFC00
FFFFFE0000000000000000000003FFFFFC00
FFFFFE0000000000000000000003FFFFFC00
FFFFFE0000000000000000000001FFFFFE00
FFFFFE0000000000000000000001FFFFFE00
FFFFFE0000000000000000000000FFFFFE00
FFFFFE0000000000000000000000FFFFFE00
FFFFFE0000000000000000000000FFFFFF00
7FFFFE00000000000000000000007FFFFF00
7FFFFF00000000000000000000007FFFFF00
7FFFFF00000000000000000000007FFFFF00
7FFFFF00000000000000000000003FFFFF00
7FFFFF00000000000000000000003FFFFF80
7FFFFF80000000000000000000003FFFFF80
7FFFFF80000000000000000000003FFFFF80
7FFFFFC0000000000000000000003FFFFF80
3FFFFFC0000000000000000000001FFFFF80
3FFFFFE0000000000000000000001FFFFF80
3FFFFFF0000000000000000000001FFFFF80
3FFFFFF8000000000000000000001FFFFFC0
1FFFFFFE000000000000000000001FFFFFC0
1FFFFFFF800000000000000000001FFFFFC0
1FFFFFFFF00000000000000000001FFFFFC0
0FFFFFFFFFFFFFFFFFFFFFFFFFFFFFFFFFC0
0FFFFFFFFFFFFFFFFFFFFFFFFFFFFFFFFFC0
07FFFFFFFFFFFFFFFFFFFFFFFFFFFFFFFFC0
07FFFFFFFFFFFFFFFFFFFFFFFFFFFFFFFFC0
03FFFFFFFFFFFFFFFFFFFFFFFFFFFFFFFFC0
03FFFFFFFFFFFFFFFFFFFFFFFFFFFFFFFFC0
01FFFFFFFFFFFFFFFFFFFFFFFFFFFFFFFFC0
00FFFFFFFFFFFFFFFFFFFFFFFFFFFFFFFFC0
007FFFFFFFFFFFFFFFFFFFFFFFFFFFFFFFC0
003FFFFFFFFFFFFFFFFFFFFFFFFFFFFFFFC0
001FFFFFFFFFFFFFFFFFFFFFFFFFFFFFFFC0
000FFFFFFFFFFFFFFFFFFFFFFFFFFFFFFFC0
0007FFFFFFFFFFFFFFFFFFFFFFFFFFFFFFC0
0001FFFFFFFFFFFFFFFFFFFFFFFFFFFFFFC0
00007FFFFFFFFFFFFFFFFFFFFFFFFFFFFFC0
00001FFFFFFFFFFFFFFFFFFFFFFFFFFFFFC0
000007FFFFFFFFFFFFFFFFFFFFFFFFFFFFC0
000000FFFFFFFFFFFFFFFFFFFFFFFFFFFF80
00000007FFFFFFFFFFFFFFFFFFFFFFFFFF80
00000000000000000000000000003FFFFF80
00000000000000000000000000003FFFFF80
00000000000000000000000000003FFFFF80
00000000000000000000000000003FFFFF80
00000000000000000000000000007FFFFF80
00000000000000000000000000007FFFFF80
00000000000000000000000000007FFFFF00
00000000000000000000000000007FFFFF00
0000000000000000000000000000FFFFFF00
0000000000000000000000000000FFFFFF00
0000000000000000000000000001FFFFFF00
0000000000000000000000000001FFFFFE00
0000000000000000000000000003FFFFFE00
0000000000000000000000000003FFFFFE00
0000000000000000000000000007FFFFFC00
0000000000000000000000000007FFFFFC00
000000000000000000000000000FFFFFFC00
000000000000000000000000001FFFFFF800
000000000000000000000000003FFFFFF800
000000000000000000000000003FFFFFF800
000000000000000000000000007FFFFFF000
00000000000000000000000001FFFFFFF000
00000000000000000000000003FFFFFFE000
0000000000000000000000000FFFFFFFE000
0000000000000000000000001FFFFFFFC000
000000000000000000000000FFFFFFFFC000
000000000000000000000003FFFFFFFF8000
00000000000000000000003FFFFFFFFF8000
0001FFFFFFFFFFFFFFFFFFFFFFFFFFFF0000
0001FFFFFFFFFFFFFFFFFFFFFFFFFFFF0000
0001FFFFFFFFFFFFFFFFFFFFFFFFFFFE0000
0001FFFFFFFFFFFFFFFFFFFFFFFFFFFC0000
0001FFFFFFFFFFFFFFFFFFFFFFFFFFF80000
0001FFFFFFFFFFFFFFFFFFFFFFFFFFF80000
0001FFFFFFFFFFFFFFFFFFFFFFFFFFF00000
0001FFFFFFFFFFFFFFFFFFFFFFFFFFE00000
0001FFFFFFFFFFFFFFFFFFFFFFFFFFC00000
0001FFFFFFFFFFFFFFFFFFFFFFFFFF800000
0001FFFFFFFFFFFFFFFFFFFFFFFFFF000000
0001FFFFFFFFFFFFFFFFFFFFFFFFFC000000
0001FFFFFFFFFFFFFFFFFFFFFFFFF8000000
0001FFFFFFFFFFFFFFFFFFFFFFFFF0000000
0001FFFFFFFFFFFFFFFFFFFFFFFFC0000000
0001FFFFFFFFFFFFFFFFFFFFFFFF80000000
0001FFFFFFFFFFFFFFFFFFFFFFFE00000000
0001FFFFFFFFFFFFFFFFFFFFFFF800000000
0001FFFFFFFFFFFFFFFFFFFFFFC000000000
0001FFFFFFFFFFFFFFFFFFFFFF0000000000
0001FFFFFFFFFFFFFFFFFFFFF00000000000
0001FFFFFFFFFFFFFFFFFFFF000000000000
0001FFFFFFFFFFFFFFFFFF80000000000000
ENDCHAR
STARTCHAR colon
ENCODING 58
SWIDTH 262 0
DWIDTH 46 0
BBX 24 82 11 0
BITMAP
00FF00
03FFC0
07FFF0
0FFFF8
1FFFFC
3FFFFC
7FFFFE
7FFFFE
7FFFFF
FFFFFF
FFFFFF
FFFFFF
FFFFFF
FFFFFF
FFFFFF
7FFFFF
7FFFFE
7FFFFE
3FFFFC
3FFFFC
1FFFF8
0FFFF0
03FFC0
00FF00
000000
000000
000000
000000
000000
000000
000000
000000
000000
000000
000000
000000
000000
000000
000000
000000
000000
000000
000000
000000
000000
000000
000000
000000
000000
000000
000000
000000
000000
000000
000000
000000
000000
000000
00FF00
03FFC0
07FFF0
1FFFF8
1FFFFC
3FFFFC
7FFFFE
7FFFFE
7FFFFF
FFFFFF
FFFFFF
FFFFFF
FFFFFF
FFFFFF
FFFFFF
7FFFFF
7FFFFE
7FFFFE
3FFFFC
1FFFFC
1FFFF8
07FFF0
03FFC0
00FF00
ENDCHAR
STARTCHAR semicolon
ENCODING 59
SWIDTH 262 0
DWIDTH 46 0
BBX 24 102 11 -21
BITMAP
007F00
03FFC0
07FFF0
0FFFF8
1FFFFC
3FFFFE
7FFFFE
7FFFFE
7FFFFF
7FFFFF
FFFFFF
FFFFFF
FFFFFF
FFFFFF
7FFFFF
7FFFFF
7FFFFE
7FFFFE
3FFFFE
1FFFFC
0FFFF8
07FFF0
03FFC0
00FF00
000000
000000
000000
000000
000000
000000
000000
000000
000000
000000
000000
000000
000000
000000
000000
000000
000000
000000
000000
000000
000000
000000
000000
000000
000000
000000
000000
000000
000000
000000
000000
000000
7FFFFF
7FFFFE
7FFFFE
7FFFFE
7FFFFE
7FFFFE
7FFFFC
7FFFFC
7FFFFC
7FFFFC
7FFFFC
7FFFF8
7FFFF8
7FFFF8
7FFFF8
7FFFF8
7FFFF8
7FFFF0
7FFFF0
7FFFF0
7FFFF0
7FFFF0
7FFFE0
7FFFE0
7FFFE0
7FFFE0
7FFFE0
7FFFC0
7FFFC0
7FFFC0
7FFFC0
7FFFC0
7FFF80
7FFF80
7FFF80
7FFF80
7FFF80
7FFF00
7FFF00
7FFF00
7FFF00
7FFF00
7FFF00
7FFE00
7FFE00
7FFE00
ENDCHAR
STARTCHAR less
ENCODING 60
SWIDTH 690 0
DWIDTH 122 0
BBX 100 95 11 18
BITMAP
00000000000000000000000030
000000000000000000000001F0
000000000000000000000007F0
00000000000000000000001FF0
0000000000000000000000FFF0
0000000000000000000003FFF0
000000000000000000000FFFF0
000000000000000000007FFFF0
00000000000000000001FFFFF0
0000000000000000000FFFFFF0
0000000000000000003FFFFFF0
000000000000000000FFFFFFF0
000000000000000007FFFFFFF0
00000000000000001FFFFFFFF0
00000000000000007FFFFFFFF0
0000000000000003FFFFFFFFF0
000000000000000FFFFFFFFFC0
000000000000007FFFFFFFFF00
00000000000001FFFFFFFFF800
00000000000007FFFFFFFFC000
0000000000003FFFFFFFFF0000
000000000000FFFFFFFFF80000
000000000007FFFFFFFFE00000
00000000001FFFFFFFFF000000
00000000007FFFFFFFFC000000
0000000003FFFFFFFFE0000000
000000000FFFFFFFFF80000000
000000003FFFFFFFFC00000000
00000001FFFFFFFFE000000000
00000007FFFFFFFF8000000000
0000003FFFFFFFFC0000000000
000000FFFFFFFFF00000000000
000003FFFFFFFF800000000000
00001FFFFFFFFE000000000000
00007FFFFFFFF0000000000000
0003FFFFFFFFC0000000000000
000FFFFFFFFE00000000000000
003FFFFFFFF000000000000000
01FFFFFFFFC000000000000000
07FFFFFFFE0000000000000000
0FFFFFFFF80000000000000000
1FFFFFFFC00000000000000000
3FFFFFFF000000000000000000
7FFFFFF8000000000000000000
7FFFFFE0000000000000000000
FFFFFF00000000000000000000
FFFFF800000000000000000000
FFFFF000000000000000000000
FFFFFC00000000000000000000
FFFFFF80000000000000000000
7FFFFFE0000000000000000000
7FFFFFFC000000000000000000
3FFFFFFF000000000000000000
1FFFFFFFE00000000000000000
0FFFFFFFF80000000000000000
03FFFFFFFF0000000000000000
00FFFFFFFFC000000000000000
003FFFFFFFF800000000000000
0007FFFFFFFE00000000000000
0001FFFFFFFFC0000000000000
00003FFFFFFFF8000000000000
00000FFFFFFFFE000000000000
000003FFFFFFFFC00000000000
0000007FFFFFFFF00000000000
0000001FFFFFFFFE0000000000
00000007FFFFFFFF8000000000
00000000FFFFFFFFF000000000
000000003FFFFFFFFC00000000
0000000007FFFFFFFF80000000
0000000001FFFFFFFFE0000000
00000000007FFFFFFFFC000000
00000000000FFFFFFFFF000000
000000000003FFFFFFFFE00000
000000000000FFFFFFFFF80000
0000000000001FFFFFFFFF0000
00000000000007FFFFFFFFC000
00000000000001FFFFFFFFF800
000000000000003FFFFFFFFE00
000000000000000FFFFFFFFFC0
0000000000000001FFFFFFFFF0
00000000000000007FFFFFFFF0
00000000000000001FFFFFFFF0
000000000000000003FFFFFFF0
000000000000000000FFFFFFF0
0000000000000000003FFFFFF0
00000000000000000007FFFFF0
00000000000000000001FFFFF0
000000000000000000003FFFF0
000000000000000000000FFFF0
0000000000000000000003FFF0
00000000000000000000007FF0
00000000000000000000001FF0
000000000000000000000007F0
000000000000000000000000F0
00000000000000000000000030
ENDCHAR
STARTCHAR equal
ENCODING 61
SWIDTH 690 0
DWIDTH 122 0
BBX 100 63 11 34
BITMAP
FFFFFFFFFFFFFFFFFFFFFFFFF0
FFFFFFFFFFFFFFFFFFFFFFFFF0
FFFFFFFFFFFFFFFFFFFFFFFFF0
FFFFFFFFFFFFFFFFFFFFFFFFF0
FFFFFFFFFFFFFFFFFFFFFFFFF0
FFFFFFFFFFFFFFFFFFFFFFFFF0
FFFFFFFFFFFFFFFFFFFFFFFFF0
FFFFFFFFFFFFFFFFFFFFFFFFF0
FFFFFFFFFFFFFFFFFFFFFFFFF0
FFFFFFFFFFFFFFFFFFFFFFFFF0
FFFFFFFFFFFFFFFFFFFFFFFFF0
FFFFFFFFFFFFFFFFFFFFFFFFF0
FFFFFFFFFFFFFFFFFFFFFFFFF0
FFFFFFFFFFFFFFFFFFFFFFFFF0
FFFFFFFFFFFFFFFFFFFFFFFFF0
00000000000000000000000000
00000000000000000000000000
00000000000000000000000000
00000000000000000000000000
00000000000000000000000000
00000000000000000000000000
00000000000000000000000000
00000000000000000000000000
00000000000000000000000000
00000000000000000000000000
00000000000000000000000000
00000000000000000000000000
00000000000000000000000000
00000000000000000000000000
00000000000000000000000000
00000000000000000000000000
00000000000000000000000000
00000000000000000000000000
00000000000000000000000000
00000000000000000000000000
00000000000000000000000000
00000000000000000000000000
00000000000000000000000000
00000000000000000000000000
00000000000000000000000000
00000000000000000000000000
00000000000000000000000000
00000000000000000000000000
00000000000000000000000000
00000000000000000000000000
00000000000000000000000000
00000000000000000000000000
00000000000000000000000000
FFFFFFFFFFFFFFFFFFFFFFFFF0
FFFFFFFFFFFFFFFFFFFFFFFFF0
FFFFFFFFFFFFFFFFFFFFFFFFF0
FFFFFFFFFFFFFFFFFFFFFFFFF0
FFFFFFFFFFFFFFFFFFFFFFFFF0
FFFFFFFFFFFFFFFFFFFFFFFFF0
FFFFFFFFFFFFFFFFFFFFFFFFF0
FFFFFFFFFFFFFFFFFFFFFFFFF0
FFFFFFFFFFFFFFFFFFFFFFFFF0
FFFFFFFFFFFFFFFFFFFFFFFFF0
FFFFFFFFFFFFFFFFFFFFFFFFF0
FFFFFFFFFFFFFFFFFFFFFFFFF0
FFFFFFFFFFFFFFFFFFFFFFFFF0
FFFFFFFFFFFFFFFFFFFFFFFFF0
FFFFFFFFFFFFFFFFFFFFFFFFF0
ENDCHAR
STARTCHAR greater
ENCODING 62
SWIDTH 690 0
DWIDTH 122 0
BBX 100 95 11 18
BITMAP
C0000000000000000000000000
F8000000000000000000000000
FE000000000000000000000000
FF800000000000000000000000
FFF00000000000000000000000
FFFC0000000000000000000000
FFFF8000000000000000000000
FFFFE000000000000000000000
FFFFF800000000000000000000
FFFFFF00000000000000000000
FFFFFFC0000000000000000000
FFFFFFF8000000000000000000
FFFFFFFE000000000000000000
FFFFFFFF800000000000000000
FFFFFFFFF00000000000000000
FFFFFFFFFC0000000000000000
3FFFFFFFFF0000000000000000
07FFFFFFFFE000000000000000
01FFFFFFFFF800000000000000
003FFFFFFFFF00000000000000
000FFFFFFFFFC0000000000000
0001FFFFFFFFF0000000000000
00007FFFFFFFFE000000000000
00000FFFFFFFFF800000000000
000003FFFFFFFFE00000000000
0000007FFFFFFFFC0000000000
0000000FFFFFFFFF0000000000
00000003FFFFFFFFE000000000
000000007FFFFFFFF800000000
000000001FFFFFFFFE00000000
0000000003FFFFFFFFC0000000
0000000000FFFFFFFFF0000000
00000000001FFFFFFFFE000000
000000000007FFFFFFFF800000
000000000000FFFFFFFFE00000
0000000000001FFFFFFFFC0000
00000000000007FFFFFFFF0000
00000000000000FFFFFFFFC000
000000000000003FFFFFFFF800
0000000000000007FFFFFFFE00
0000000000000001FFFFFFFF00
00000000000000003FFFFFFFC0
00000000000000000FFFFFFFC0
000000000000000001FFFFFFE0
0000000000000000003FFFFFE0
0000000000000000000FFFFFF0
00000000000000000001FFFFF0
00000000000000000000FFFFF0
00000000000000000003FFFFF0
0000000000000000001FFFFFF0
0000000000000000007FFFFFE0
000000000000000003FFFFFFE0
00000000000000000FFFFFFFC0
00000000000000007FFFFFFF80
0000000000000001FFFFFFFF00
000000000000000FFFFFFFFC00
000000000000003FFFFFFFF000
00000000000001FFFFFFFFC000
00000000000007FFFFFFFE0000
0000000000003FFFFFFFF80000
000000000000FFFFFFFFE00000
000000000007FFFFFFFF000000
00000000001FFFFFFFFC000000
0000000000FFFFFFFFE0000000
0000000003FFFFFFFF80000000
000000001FFFFFFFFE00000000
00000000FFFFFFFFF000000000
00000003FFFFFFFFC000000000
0000001FFFFFFFFF0000000000
0000007FFFFFFFF80000000000
000003FFFFFFFFE00000000000
00000FFFFFFFFF800000000000
00007FFFFFFFFC000000000000
0001FFFFFFFFF0000000000000
000FFFFFFFFF80000000000000
003FFFFFFFFE00000000000000
01FFFFFFFFF800000000000000
07FFFFFFFFC000000000000000
3FFFFFFFFF0000000000000000
FFFFFFFFFC0000000000000000
FFFFFFFFE00000000000000000
FFFFFFFF800000000000000000
FFFFFFFC000000000000000000
FFFFFFF0000000000000000000
FFFFFFC0000000000000000000
FFFFFE00000000000000000000
FFFFF800000000000000000000
FFFFE000000000000000000000
FFFF0000000000000000000000
FFFC0000000000000000000000
FFE00000000000000000000000
FF800000000000000000000000
FE000000000000000000000000
F0000000000000000000000000
C0000000000000000000000000
ENDCHAR
STARTCHAR question
ENCODING 63
SWIDTH 776 0
DWIDTH 137 0
BBX 124 129 8 0
BITMAP
FFFFFFFFFFFFFFFFFFFFFFF800000000
FFFFFFFFFFFFFFFFFFFFFFFFC0000000
FFFFFFFFFFFFFFFFFFFFFFFFF8000000
FFFFFFFFFFFFFFFFFFFFFFFFFF000000
FFFFFFFFFFFFFFFFFFFFFFFFFFC00000
FFFFFFFFFFFFFFFFFFFFFFFFFFF00000
FFFFFFFFFFFFFFFFFFFFFFFFFFF80000
FFFFFFFFFFFFFFFFFFFFFFFFFFFE0000
FFFFFFFFFFFFFFFFFFFFFFFFFFFF0000
FFFFFFFFFFFFFFFFFFFFFFFFFFFF8000
FFFFFFFFFFFFFFFFFFFFFFFFFFFFC000
FFFFFFFFFFFFFFFFFFFFFFFFFFFFE000
FFFFFFFFFFFFFFFFFFFFFFFFFFFFF000
FFFFFFFFFFFFFFFFFFFFFFFFFFFFF800
FFFFFFFFFFFFFFFFFFFFFFFFFFFFFC00
FFFFFFFFFFFFFFFFFFFFFFFFFFFFFC00
FFFFFFFFFFFFFFFFFFFFFFFFFFFFFE00
FFFFFFFFFFFFFFFFFFFFFFFFFFFFFF00
FFFFFFFFFFFFFFFFFFFFFFFFFFFFFF00
FFFFFFFFFFFFFFFFFFFFFFFFFFFFFF80
FFFFFFFFFFFFFFFFFFFFFFFFFFFFFF80
FFFFFFFFFFFFFFFFFFFFFFFFFFFFFF80
FFFFFFFFFFFFFFFFFFFFFFFFFFFFFFC0
00000000000000000000001FFFFFFFC0
000000000000000000000003FFFFFFC0
000000000000000000000001FFFFFFE0
0000000000000000000000007FFFFFE0
0000000000000000000000003FFFFFE0
0000000000000000000000003FFFFFE0
0000000000000000000000001FFFFFF0
0000000000000000000000000FFFFFF0
0000000000000000000000000FFFFFF0
0000000000000000000000000FFFFFF0
00000000000000000000000007FFFFF0
00000000000000000000000007FFFFF0
00000000000000000000000007FFFFF0
00000000000000000000000007FFFFF0
00000000000000000000000007FFFFF0
00000000000000000000000007FFFFF0
00000000000000000000000007FFFFF0
00000000000000000000000007FFFFF0
00000000000000000000000007FFFFF0
0000000000000000000000000FFFFFF0
0000000000000000000000000FFFFFE0
0000000000000000000000000FFFFFE0
0000000000000000000000001FFFFFE0
0000000000000000000000001FFFFFE0
0000000000000000000000003FFFFFC0
0000000000000000000000007FFFFFC0
000000000000000000000000FFFFFFC0
000000000000000000000001FFFFFF80
000000000000000000000007FFFFFF80
00000000000000000000003FFFFFFF00
000000003FFFFFFFFFFFFFFFFFFFFF00
00000007FFFFFFFFFFFFFFFFFFFFFE00
0000003FFFFFFFFFFFFFFFFFFFFFFE00
000000FFFFFFFFFFFFFFFFFFFFFFFC00
000003FFFFFFFFFFFFFFFFFFFFFFF800
000007FFFFFFFFFFFFFFFFFFFFFFF800
00000FFFFFFFFFFFFFFFFFFFFFFFF000
00001FFFFFFFFFFFFFFFFFFFFFFFE000
00003FFFFFFFFFFFFFFFFFFFFFFFC000
00007FFFFFFFFFFFFFFFFFFFFFFF8000
0000FFFFFFFFFFFFFFFFFFFFFFFF0000
0001FFFFFFFFFFFFFFFFFFFFFFFC0000
0001FFFFFFFFFFFFFFFFFFFFFFF80000
0003FFFFFFFFFFFFFFFFFFFFFFE00000
0003FFFFFFFFFFFFFFFFFFFFFF800000
0007FFFFFFFFFFFFFFFFFFFFFE000000
0007FFFFFFFFFFFFFFFFFFFFF8000000
0007FFFFFFFFFFFFFFFFFFFFC0000000
0007FFFFFFFFFFFFFFFFFFF000000000
000FFFFFFC0000000000000000000000
000FFFFFF00000000000000000000000
000FFFFFC00000000000000000000000
000FFFFFC00000000000000000000000
000FFFFF800000000000000000000000
000FFFFF800000000000000000000000
000FFFFF800000000000000000000000
000FFFFF800000000000000000000000
000FFFFF800000000000000000000000
000FFFFF800000000000000000000000
000FFFFF800000000000000000000000
000FFFFF800000000000000000000000
000FFFFF800000000000000000000000
000FFFFF800000000000000000000000
00000000000000000000000000000000
00000000000000000000000000000000
00000000000000000000000000000000
00000000000000000000000000000000
00000000000000000000000000000000
00000000000000000000000000000000
00000000000000000000000000000000
00000000000000000000000000000000
00000000000000000000000000000000
00000000000000000000000000000000
00000000000000000000000000000000
00000000000000000000000000000000
00000000000000000000000000000000
00000000000000000000000000000000
00000000000000000000000000000000
00000000000000000000000000000000
00000000000000000000000000000000
00000000000000000000000000000000
00000000000000000000000000000000
00001FE0000000000000000000000000
00007FF8000000000000000000000000
0001FFFE000000000000000000000000
0003FFFF000000000000000000000000
0007FFFF000000000000000000000000
000FFFFF800000000000000000000000
000FFFFFC00000000000000000000000
001FFFFFC00000000000000000000000
001FFFFFC00000000000000000000000
001FFFFFE00000000000000000000000
001FFFFFE00000000000000000000000
001FFFFFE00000000000000000000000
001FFFFFE00000000000000000000000
001FFFFFE00000000000000000000000
001FFFFFE00000000000000000000000
001FFFFFC00000000000000000000000
000FFFFFC00000000000000000000000
000FFFFFC00000000000000000000000
000FFFFF800000000000000000000000
0007FFFF800000000000000000000000
0003FFFF000000000000000000000000
0001FFFE000000000000000000000000
00007FF8000000000000000000000000
00001FE0000000000000000000000000
ENDCHAR
STARTCHAR at
ENCODING 64
SWIDTH 833 0
DWIDTH 147 0
BBX 129 129 7 0
BITMAP
000000000000007FFFFFFFFFFFFFFFFF80
0000000000001FFFFFFFFFFFFFFFFFFF80
000000000001FFFFFFFFFFFFFFFFFFFF80
00000000001FFFFFFFFFFFFFFFFFFFFF80
00000000007FFFFFFFFFFFFFFFFFFFFF80
0000000003FFFFFFFFFFFFFFFFFFFFFF80
000000000FFFFFFFFFFFFFFFFFFFFFFF80
000000003FFFFFFFFFFFFFFFFFFFFFFF80
00000000FFFFFFFFFFFFFFFFFFFFFFFF80
00000001FFFFFFFFFFFFFFFFFFFFFFFF80
00000007FFFFFFFFFFFFFFFFFFFFFFFF80
0000000FFFFFFFFFFFFFFFFFFFFFFFFF80
0000003FFFFFFFFFFFFFFFFFFFFFFFFF80
0000007FFFFFFFFFFFFFFFFFFFFFFFFF80
000000FFFFFFFFFFFFFFFFFFFFFFFFFF80
000001FFFFFFFFFFFFFFFFFFFFFFFFFF80
000007FFFFFFFF80000000000000FFFF80
00000FFFFFFFF000000000000000FFFF80
00001FFFFFFF0000000000000000FFFF80
00003FFFFFF80000000000000000FFFF80
00007FFFFFE00000000000000000FFFF80
00007FFFFF800000000000000000FFFF80
0000FFFFFE000000000000000000FFFF80
0001FFFFFC000000000000000000FFFF80
0003FFFFF0000000000000000000FFFF80
0007FFFFE0000000000000000000FFFF80
0007FFFF80000000000000000000FFFF80
000FFFFF00000000000000000000FFFF80
001FFFFE00000000000000000000FFFF80
001FFFFC00000000000000000000FFFF80
003FFFF800000000000000000000FFFF80
007FFFF000000000000000000000FFFF80
007FFFE000000000000000000000FFFF80
00FFFFE000000000000000000000FFFF80
00FFFFC000000000000000000000FFFF80
01FFFF8000000000000000000000FFFF80
01FFFF800000007FFFFFFFFF8000FFFF80
03FFFF00000003FFFFFFFFFF8000FFFF80
03FFFE0000001FFFFFFFFFFF8000FFFF80
07FFFE0000003FFFFFFFFFFF8000FFFF80
07FFFC000000FFFFFFFFFFFF8000FFFF80
07FFFC000001FFFFFFFFFFFF8000FFFF80
0FFFF8000003FFFFFFFFFFFF8000FFFF80
0FFFF8000007FFFFFFFFFFFF8000FFFF80
0FFFF800000FFFFFFFFFFFFF8000FFFF80
1FFFF000001FFFFFFFFFFFFF8000FFFF80
1FFFF000003FFFFFFFFFFFFF8000FFFF80
1FFFF000003FFFFFFFFFFFFF8000FFFF80
1FFFE000007FFFFFFFFFFFFF8000FFFF80
3FFFE000007FFFFC00003FFF8000FFFF80
3FFFE00000FFFFE000003FFF8000FFFF80
3FFFE00000FFFFC000003FFF8000FFFF80
3FFFC00001FFFF8000003FFF8000FFFF80
7FFFC00001FFFF0000003FFF8000FFFF80
7FFFC00001FFFE0000003FFF8000FFFF80
7FFFC00003FFFC0000003FFF8000FFFF80
7FFFC00003FFFC0000003FFF8000FFFF80
7FFFC00003FFF80000003FFF8000FFFF80
7FFFC00003FFF80000003FFF8000FFFF80
7FFF800007FFF80000003FFF8000FFFF80
7FFF800007FFF00000003FFF8000FFFF80
7FFF800007FFF00000003FFF8000FFFF80
FFFF800007FFF00000003FFF8000FFFF80
FFFF800007FFF00000003FFF8000FFFF80
FFFF800007FFF00000003FFF8000FFFF80
FFFF800007FFF00000003FFF8000FFFF80
FFFF800007FFF00000003FFF8000FFFF80
FFFF800007FFF00000003FFF8000FFFF80
FFFF800007FFF80000003FFF8000FFFF80
7FFF800007FFF80000003FFF8000FFFF80
7FFFC00007FFF80000003FFF8000FFFF80
7FFFC00003FFF80000003FFF8000FFFF80
7FFFC00003FFFC0000003FFF8000FFFF80
7FFFC00003FFFE0000003FFF8000FFFF80
7FFFC00003FFFE0000003FFF8000FFFF80
7FFFC00001FFFF0000003FFF8000FFFF80
7FFFC00001FFFF8000003FFF8000FFFF80
7FFFE00001FFFFC000003FFF8000FFFF80
7FFFE00000FFFFF000003FFF8000FFFF80
3FFFE00000FFFFFE00003FFF8000FFFF80
3FFFE000007FFFFFFFFFFFFFFFFFFFFF80
3FFFF000007FFFFFFFFFFFFFFFFFFFFF80
3FFFF000003FFFFFFFFFFFFFFFFFFFFF80
3FFFF000001FFFFFFFFFFFFFFFFFFFFF80
1FFFF800001FFFFFFFFFFFFFFFFFFFFF80
1FFFF800000FFFFFFFFFFFFFFFFFFFFF80
1FFFF8000007FFFFFFFFFFFFFFFFFFFF80
0FFFFC000003FFFFFFFFFFFFFFFFFFFF80
0FFFFC000001FFFFFFFFFFFFFFFFFFFF80
0FFFFE000000FFFFFFFFFFFFFFFFFFFF80
07FFFE0000003FFFFFFFFFFFFFFFFFFF80
07FFFF0000000FFFFFFFFFFFFFFFFFFF80
03FFFF80000003FFFFFFFFFFFFFFFFFF80
03FFFF800000007FFFFFFFFFFFFFFFFF80
03FFFFC000000000000000000000000000
01FFFFE000000000000000000000000000
01FFFFE000000000000000000000000000
00FFFFF000000000000000000000000000
007FFFF800000000000000000000000000
007FFFFC00000000000000000000000000
003FFFFE00000000000000000000000000
003FFFFF00000000000000000000000000
001FFFFF80000000000000000000000000
000FFFFFE0000000000000000000000000
000FFFFFF0000000000000000000000000
0007FFFFF8000000000000000000000000
0003FFFFFE000000000000000000000000
0001FFFFFF800000000000000000000000
0000FFFFFFE00000000000000000000000
00007FFFFFF80000000000000000000000
00003FFFFFFF0000000000000000000000
00001FFFFFFFF000000000000000000000
00000FFFFFFFFF80000000000000000000
000007FFFFFFFFFFFFFFFFFFFFFFFFFF80
000003FFFFFFFFFFFFFFFFFFFFFFFFFF80
000001FFFFFFFFFFFFFFFFFFFFFFFFFF80
000000FFFFFFFFFFFFFFFFFFFFFFFFFF80
0000003FFFFFFFFFFFFFFFFFFFFFFFFF80
0000001FFFFFFFFFFFFFFFFFFFFFFFFF80
00000007FFFFFFFFFFFFFFFFFFFFFFFF80
00000001FFFFFFFFFFFFFFFFFFFFFFFF80
00000000FFFFFFFFFFFFFFFFFFFFFFFF80
000000001FFFFFFFFFFFFFFFFFFFFFFF80
0000000007FFFFFFFFFFFFFFFFFFFFFF80
0000000001FFFFFFFFFFFFFFFFFFFFFF80
00000000003FFFFFFFFFFFFFFFFFFFFF80
000000000007FFFFFFFFFFFFFFFFFFFF80
0000000000003FFFFFFFFFFFFFFFFFFF80
00000000000000FFFFFFFFFFFFFFFFFF80
ENDCHAR
STARTCHAR A
ENCODING 65
SWIDTH 989 0
DWIDTH 175 0
BBX 170 131 2 0
BITMAP
000000000000000000003F8000000000000000000000
00000000000000000000FFE000000000000000000000
00000000000000000003FFF000000000000000000000
00000000000000000007FFF800000000000000000000
0000000000000000000FFFFC00000000000000000000
0000000000000000000FFFFE00000000000000000000
0000000000000000001FFFFF00000000000000000000
0000000000000000003FFFFF00000000000000000000
0000000000000000003FFFFF80000000000000000000
0000000000000000007FFFFFC0000000000000000000
0000000000000000007FFFFFC0000000000000000000
000000000000000000FFFFFFE0000000000000000000
000000000000000001FFFFFFE0000000000000000000
000000000000000001FFFFFFF0000000000000000000
000000000000000003FFFFFFF8000000000000000000
000000000000000003FFFFFFF8000000000000000000
000000000000000007FFFFFFFC000000000000000000
00000000000000000FFFFFFFFC000000000000000000
00000000000000000FFFFFFFFE000000000000000000
00000000000000001FFFFFFFFF000000000000000000
00000000000000001FFFFFFFFF000000000000000000
00000000000000003FFFFFFFFF800000000000000000
00000000000000007FFFFFFFFF800000000000000000
00000000000000007FFFFFFFFFC00000000000000000
0000000000000000FFFFFFFFFFE00000000000000000
0000000000000000FFFFFFFFFFE00000000000000000
0000000000000001FFFFFFFFFFF00000000000000000
0000000000000003FFFFFFFFFFF00000000000000000
0000000000000003FFFFFFFFFFF80000000000000000
0000000000000007FFFFFFFFFFFC0000000000000000
0000000000000007FFFFFFFFFFFC0000000000000000
000000000000000FFFFFFFFFFFFE0000000000000000
000000000000001FFFFFFFFFFFFE0000000000000000
000000000000001FFFFFF7FFFFFF0000000000000000
000000000000003FFFFFE3FFFFFF8000000000000000
000000000000003FFFFFE3FFFFFF8000000000000000
000000000000007FFFFFC1FFFFFFC000000000000000
00000000000000FFFFFFC0FFFFFFC000000000000000
00000000000000FFFFFF80FFFFFFE000000000000000
00000000000001FFFFFF007FFFFFF000000000000000
00000000000001FFFFFF007FFFFFF000000000000000
00000000000003FFFFFE003FFFFFF800000000000000
00000000000007FFFFFE001FFFFFF800000000000000
00000000000007FFFFFC001FFFFFFC00000000000000
0000000000000FFFFFF8000FFFFFFE00000000000000
0000000000000FFFFFF8000FFFFFFE00000000000000
0000000000001FFFFFF00007FFFFFF00000000000000
0000000000003FFFFFF00003FFFFFF00000000000000
0000000000003FFFFFE00003FFFFFF80000000000000
0000000000007FFFFFC00001FFFFFFC0000000000000
0000000000007FFFFFC00001FFFFFFC0000000000000
000000000000FFFFFF800000FFFFFFE0000000000000
000000000001FFFFFF8000007FFFFFE0000000000000
000000000001FFFFFF0000007FFFFFF0000000000000
000000000003FFFFFF0000003FFFFFF8000000000000
000000000003FFFFFE0000003FFFFFF8000000000000
000000000007FFFFFC0000001FFFFFFC000000000000
00000000000FFFFFFC0000000FFFFFFC000000000000
00000000000FFFFFF80000000FFFFFFE000000000000
00000000001FFFFFF800000007FFFFFF000000000000
00000000001FFFFFF000000007FFFFFF000000000000
00000000003FFFFFE000000003FFFFFF800000000000
00000000007FFFFFE000000001FFFFFF800000000000
00000000007FFFFFC000000001FFFFFFC00000000000
0000000000FFFFFFC000000000FFFFFFE00000000000
0000000000FFFFFF8000000000FFFFFFE00000000000
0000000001FFFFFF00000000007FFFFFF00000000000
0000000003FFFFFF00000000003FFFFFF00000000000
0000000003FFFFFE00000000003FFFFFF80000000000
0000000007FFFFFE00000000001FFFFFFC0000000000
0000000007FFFFFC00000000001FFFFFFC0000000000
000000000FFFFFF800000000000FFFFFFE0000000000
000000001FFFFFF8000000000007FFFFFE0000000000
000000001FFFFFF0000000000007FFFFFF0000000000
000000003FFFFFF0000000000003FFFFFF8000000000
000000003FFFFFE0000000000001FFFFFF8000000000
000000007FFFFFC0000000000001FFFFFFC000000000
00000000FFFFFFC0000000000000FFFFFFC000000000
00000000FFFFFF80000000000000FFFFFFE000000000
00000001FFFFFF800000000000007FFFFFF000000000
00000001FFFFFF00007FFFFFFFFFFFFFFFF000000000
00000003FFFFFE00007FFFFFFFFFFFFFFFF800000000
00000007FFFFFE0000FFFFFFFFFFFFFFFFF800000000
00000007FFFFFC0000FFFFFFFFFFFFFFFFFC00000000
0000000FFFFFFC0001FFFFFFFFFFFFFFFFFE00000000
0000000FFFFFF80003FFFFFFFFFFFFFFFFFE00000000
0000001FFFFFF80003FFFFFFFFFFFFFFFFFF00000000
0000003FFFFFF00007FFFFFFFFFFFFFFFFFF00000000
0000003FFFFFE00007FFFFFFFFFFFFFFFFFF80000000
0000007FFFFFE0000FFFFFFFFFFFFFFFFFFFC0000000
0000007FFFFFC0000FFFFFFFFFFFFFFFFFFFC0000000
000000FFFFFFC0001FFFFFFFFFFFFFFFFFFFE0000000
000001FFFFFF80003FFFFFFFFFFFFFFFFFFFE0000000
000001FFFFFF00003FFFFFFFFFFFFFFFFFFFF0000000
000003FFFFFF00007FFFFFFFFFFFFFFFFFFFF8000000
000003FFFFFE00007FFFFFFFFFFFFFFFFFFFF8000000
000007FFFFFE0000FFFFFFFFFFFFFFFFFFFFFC000000
00000FFFFFFC0001FFFFFFFFFFFFFFFFFFFFFC000000
00000FFFFFF80000000000000000000FFFFFFE000000
00001FFFFFF800000000000000000007FFFFFF000000
00001FFFFFF000000000000000000007FFFFFF000000
00003FFFFFF000000000000000000003FFFFFF800000
00003FFFFFE000000000000000000001FFFFFF800000
00007FFFFFC000000000000000000001FFFFFFC00000
0000FFFFFFC000000000000000000000FFFFFFE00000
0000FFFFFF8000000000000000000000FFFFFFE00000
0001FFFFFF80000000000000000000007FFFFFF00000
0001FFFFFF00000000000000000000003FFFFFF00000
0003FFFFFE00000000000000000000003FFFFFF80000
0007FFFFFE00000000000000000000001FFFFFF80000
0007FFFFFC00000000000000000000001FFFFFFC0000
000FFFFFFC00000000000000000000000FFFFFFE0000
000FFFFFF800000000000000000000000FFFFFFE0000
001FFFFFF8000000000000000000000007FFFFFF0000
003FFFFFF0000000000000000000000003FFFFFF0000
003FFFFFE0000000000000000000000003FFFFFF8000
007FFFFFE0000000000000000000000001FFFFFFC000
007FFFFFC0000000000000000000000001FFFFFFC000
00FFFFFFC0000000000000000000000000FFFFFFE000
01FFFFFF800000000000000000000000007FFFFFE000
01FFFFFF000000000000000000000000007FFFFFF000
03FFFFFF000000000000000000000000003FFFFFF800
03FFFFFE000000000000000000000000003FFFFFF800
07FFFFFE000000000000000000000000001FFFFFFC00
0FFFFFFC000000000000000000000000000FFFFFFE00
0FFFFFF8000000000000000000000000000FFFFFFE00
1FFFFFF80000000000000000000000000007FFFFFF00
1FFFFFF00000000000000000000000000007FFFFFF00
3FFFFFF00000000000000000000000000003FFFFFF80
7FFFFFE00000000000000000000000000003FFFFFFC0
FFFFFFC00000000000000000000000000001FFFFFFC0
ENDCHAR
STARTCHAR B
ENCODING 66
SWIDTH 891 0
DWIDTH 158 0
BBX 138 129 11 0
BITMAP
FFFFFFFFFFFFFFFFFFFFFFFFFE0000000000
FFFFFFFFFFFFFFFFFFFFFFFFFFF800000000
FFFFFFFFFFFFFFFFFFFFFFFFFFFF00000000
FFFFFFFFFFFFFFFFFFFFFFFFFFFFE0000000
FFFFFFFFFFFFFFFFFFFFFFFFFFFFFC000000
FFFFFFFFFFFFFFFFFFFFFFFFFFFFFF000000
FFFFFFFFFFFFFFFFFFFFFFFFFFFFFFC00000
FFFFFFFFFFFFFFFFFFFFFFFFFFFFFFE00000
FFFFFFFFFFFFFFFFFFFFFFFFFFFFFFF00000
FFFFFFFFFFFFFFFFFFFFFFFFFFFFFFFC0000
FFFFFFFFFFFFFFFFFFFFFFFFFFFFFFFE0000
FFFFFFFFFFFFFFFFFFFFFFFFFFFFFFFF0000
FFFFFFFFFFFFFFFFFFFFFFFFFFFFFFFF8000
FFFFFFFFFFFFFFFFFFFFFFFFFFFFFFFFC000
FFFFFFFFFFFFFFFFFFFFFFFFFFFFFFFFC000
FFFFFFFFFFFFFFFFFFFFFFFFFFFFFFFFE000
FFFFFFFFFFFFFFFFFFFFFFFFFFFFFFFFF000
FFFFFFFFFFFFFFFFFFFFFFFFFFFFFFFFF000
FFFFFFFFFFFFFFFFFFFFFFFFFFFFFFFFF800
FFFFFFFFFFFFFFFFFFFFFFFFFFFFFFFFF800
FFFFFFFFFFFFFFFFFFFFFFFFFFFFFFFFFC00
FFFFFFFFFFFFFFFFFFFFFFFFFFFFFFFFFC00
FFFFFFFFFFFFFFFFFFFFFFFFFFFFFFFFFC00
FFFFFC0000000000000000000FFFFFFFFE00
FFFFFC00000000000000000000FFFFFFFE00
FFFFFC000000000000000000003FFFFFFE00
FFFFFC000000000000000000000FFFFFFE00
FFFFFC0000000000000000000007FFFFFE00
FFFFFC0000000000000000000003FFFFFF00
FFFFFC0000000000000000000001FFFFFF00
FFFFFC0000000000000000000001FFFFFF00
FFFFFC0000000000000000000000FFFFFF00
FFFFFC0000000000000000000000FFFFFF00
FFFFFC00000000000000000000007FFFFF00
FFFFFC00000000000000000000007FFFFF00
FFFFFC00000000000000000000007FFFFF00
FFFFFC00000000000000000000007FFFFF00
FFFFFC00000000000000000000007FFFFF00
FFFFFC00000000000000000000007FFFFF00
FFFFFC00000000000000000000007FFFFF00
FFFFFC00000000000000000000007FFFFE00
FFFFFC00000000000000000000007FFFFE00
FFFFFC00000000000000000000007FFFFE00
FFFFFC00000000000000000000007FFFFE00
FFFFFC0000000000000000000000FFFFFC00
FFFFFC0000000000000000000000FFFFFC00
FFFFFC0000000000000000000000FFFFFC00
FFFFFC0000000000000000000001FFFFF800
FFFFFC0000000000000000000003FFFFF800
FFFFFC0000000000000000000003FFFFF000
FFFFFC000000000000000000000FFFFFF000
FFFFFC000000000000000000001FFFFFE000
FFFFFC000000000000000000007FFFFFC000
FFFFFC00000000000000000007FFFFFF8000
FFFFFC0001FFFFFFFFFFFFFFFFFFFFFF8000
FFFFFC0001FFFFFFFFFFFFFFFFFFFFFF0000
FFFFFC0001FFFFFFFFFFFFFFFFFFFFFC0000
FFFFFC0001FFFFFFFFFFFFFFFFFFFFF80000
FFFFFC0001FFFFFFFFFFFFFFFFFFFFF00000
FFFFFC0001FFFFFFFFFFFFFFFFFFFFC00000
FFFFFC0001FFFFFFFFFFFFFFFFFFFE000000
FFFFFC0001FFFFFFFFFFFFFFFFFFFF000000
FFFFFC0001FFFFFFFFFFFFFFFFFFFFC00000
FFFFFC0001FFFFFFFFFFFFFFFFFFFFF00000
FFFFFC0001FFFFFFFFFFFFFFFFFFFFF80000
FFFFFC0001FFFFFFFFFFFFFFFFFFFFFE0000
FFFFFC0001FFFFFFFFFFFFFFFFFFFFFF0000
FFFFFC0001FFFFFFFFFFFFFFFFFFFFFF8000
FFFFFC0001FFFFFFFFFFFFFFFFFFFFFFC000
FFFFFC0001FFFFFFFFFFFFFFFFFFFFFFE000
FFFFFC0001FFFFFFFFFFFFFFFFFFFFFFF000
FFFFFC0001FFFFFFFFFFFFFFFFFFFFFFF800
FFFFFC0001FFFFFFFFFFFFFFFFFFFFFFF800
FFFFFC00000000000000000003FFFFFFFC00
FFFFFC000000000000000000007FFFFFFE00
FFFFFC000000000000000000000FFFFFFE00
FFFFFC0000000000000000000007FFFFFF00
FFFFFC0000000000000000000001FFFFFF00
FFFFFC0000000000000000000000FFFFFF00
FFFFFC0000000000000000000000FFFFFF80
FFFFFC00000000000000000000007FFFFF80
FFFFFC00000000000000000000003FFFFF80
FFFFFC00000000000000000000003FFFFF80
FFFFFC00000000000000000000003FFFFFC0
FFFFFC00000000000000000000001FFFFFC0
FFFFFC00000000000000000000001FFFFFC0
FFFFFC00000000000000000000001FFFFFC0
FFFFFC00000000000000000000001FFFFFC0
FFFFFC00000000000000000000001FFFFFC0
FFFFFC00000000000000000000001FFFFFC0
FFFFFC00000000000000000000001FFFFFC0
FFFFFC00000000000000000000001FFFFFC0
FFFFFC00000000000000000000001FFFFFC0
FFFFFC00000000000000000000001FFFFFC0
FFFFFC00000000000000000000001FFFFFC0
FFFFFC00000000000000000000003FFFFFC0
FFFFFC00000000000000000000003FFFFFC0
FFFFFC00000000000000000000007FFFFFC0
FFFFFC00000000000000000000007FFFFF80
FFFFFC0000000000000000000000FFFFFF80
FFFFFC0000000000000000000001FFFFFF80
FFFFFC0000000000000000000007FFFFFF80
FFFFFC000000000000000000000FFFFFFF80
FFFFFC000000000000000000003FFFFFFF00
FFFFFC00000000000000000001FFFFFFFF00
FFFFFC0000000000000000001FFFFFFFFF00
FFFFFFFFFFFFFFFFFFFFFFFFFFFFFFFFFE00
FFFFFFFFFFFFFFFFFFFFFFFFFFFFFFFFFE00
FFFFFFFFFFFFFFFFFFFFFFFFFFFFFFFFFC00
FFFFFFFFFFFFFFFFFFFFFFFFFFFFFFFFFC00
FFFFFFFFFFFFFFFFFFFFFFFFFFFFFFFFF800
FFFFFFFFFFFFFFFFFFFFFFFFFFFFFFFFF800
FFFFFFFFFFFFFFFFFFFFFFFFFFFFFFFFF000
FFFFFFFFFFFFFFFFFFFFFFFFFFFFFFFFE000
FFFFFFFFFFFFFFFFFFFFFFFFFFFFFFFFC000
FFFFFFFFFFFFFFFFFFFFFFFFFFFFFFFFC000
FFFFFFFFFFFFFFFFFFFFFFFFFFFFFFFF8000
FFFFFFFFFFFFFFFFFFFFFFFFFFFFFFFF0000
FFFFFFFFFFFFFFFFFFFFFFFFFFFFFFFE0000
FFFFFFFFFFFFFFFFFFFFFFFFFFFFFFFC0000
FFFFFFFFFFFFFFFFFFFFFFFFFFFFFFF00000
FFFFFFFFFFFFFFFFFFFFFFFFFFFFFFE00000
FFFFFFFFFFFFFFFFFFFFFFFFFFFFFFC00000
FFFFFFFFFFFFFFFFFFFFFFFFFFFFFF000000
FFFFFFFFFFFFFFFFFFFFFFFFFFFFFC000000
FFFFFFFFFFFFFFFFFFFFFFFFFFFFF0000000
FFFFFFFFFFFFFFFFFFFFFFFFFFFF80000000
FFFFFFFFFFFFFFFFFFFFFFFFFFFC00000000
FFFFFFFFFFFFFFFFFFFFFFFFFF0000000000
ENDCHAR
STARTCHAR C
ENCODING 67
SWIDTH 829 0
DWIDTH 147 0
BBX 133 129 7 0
BITMAP
00000000000003FFFFFFFFFFFFFFFFFFF8
000000000000FFFFFFFFFFFFFFFFFFFFF8
00000000000FFFFFFFFFFFFFFFFFFFFFF8
00000000007FFFFFFFFFFFFFFFFFFFFFF8
0000000003FFFFFFFFFFFFFFFFFFFFFFF8
000000000FFFFFFFFFFFFFFFFFFFFFFFF8
000000003FFFFFFFFFFFFFFFFFFFFFFFF8
00000000FFFFFFFFFFFFFFFFFFFFFFFFF8
00000003FFFFFFFFFFFFFFFFFFFFFFFFF8
0000000FFFFFFFFFFFFFFFFFFFFFFFFFF8
0000001FFFFFFFFFFFFFFFFFFFFFFFFFF8
0000007FFFFFFFFFFFFFFFFFFFFFFFFFF8
000000FFFFFFFFFFFFFFFFFFFFFFFFFFF8
000003FFFFFFFFFFFFFFFFFFFFFFFFFFF8
000007FFFFFFFFFFFFFFFFFFFFFFFFFFF8
00000FFFFFFFFFFFFFFFFFFFFFFFFFFFF8
00001FFFFFFFFFFFFFFFFFFFFFFFFFFFF8
00003FFFFFFFFFFFFFFFFFFFFFFFFFFFF8
00007FFFFFFFFFFFFFFFFFFFFFFFFFFFF8
0000FFFFFFFFFFFFFFFFFFFFFFFFFFFFF8
0001FFFFFFFFFFFFFFFFFFFFFFFFFFFFF8
0003FFFFFFFFFFFFFFFFFFFFFFFFFFFFF8
0003FFFFFFFFFFFFFFFFFFFFFFFFFFFFF8
0007FFFFFFFFFC00000000000000000000
000FFFFFFFFFC000000000000000000000
001FFFFFFFFE0000000000000000000000
001FFFFFFFF80000000000000000000000
003FFFFFFFE00000000000000000000000
007FFFFFFF800000000000000000000000
007FFFFFFF000000000000000000000000
00FFFFFFFC000000000000000000000000
00FFFFFFF8000000000000000000000000
01FFFFFFF0000000000000000000000000
01FFFFFFE0000000000000000000000000
03FFFFFFC0000000000000000000000000
03FFFFFF80000000000000000000000000
07FFFFFF00000000000000000000000000
07FFFFFE00000000000000000000000000
07FFFFFE00000000000000000000000000
0FFFFFFC00000000000000000000000000
0FFFFFF800000000000000000000000000
0FFFFFF800000000000000000000000000
1FFFFFF000000000000000000000000000
1FFFFFF000000000000000000000000000
1FFFFFE000000000000000000000000000
3FFFFFE000000000000000000000000000
3FFFFFC000000000000000000000000000
3FFFFFC000000000000000000000000000
3FFFFF8000000000000000000000000000
3FFFFF8000000000000000000000000000
7FFFFF8000000000000000000000000000
7FFFFF8000000000000000000000000000
7FFFFF0000000000000000000000000000
7FFFFF0000000000000000000000000000
7FFFFF0000000000000000000000000000
7FFFFF0000000000000000000000000000
7FFFFE0000000000000000000000000000
7FFFFE0000000000000000000000000000
7FFFFE0000000000000000000000000000
FFFFFE0000000000000000000000000000
FFFFFE0000000000000000000000000000
FFFFFE0000000000000000000000000000
FFFFFE0000000000000000000000000000
FFFFFE0000000000000000000000000000
FFFFFE0000000000000000000000000000
FFFFFE0000000000000000000000000000
FFFFFE0000000000000000000000000000
7FFFFE0000000000000000000000000000
7FFFFE0000000000000000000000000000
7FFFFE0000000000000000000000000000
7FFFFE0000000000000000000000000000
7FFFFE0000000000000000000000000000
7FFFFF0000000000000000000000000000
7FFFFF0000000000000000000000000000
7FFFFF0000000000000000000000000000
7FFFFF0000000000000000000000000000
3FFFFF0000000000000000000000000000
3FFFFF8000000000000000000000000000
3FFFFF8000000000000000000000000000
3FFFFF8000000000000000000000000000
3FFFFFC000000000000000000000000000
1FFFFFC000000000000000000000000000
1FFFFFC000000000000000000000000000
1FFFFFE000000000000000000000000000
1FFFFFE000000000000000000000000000
0FFFFFF000000000000000000000000000
0FFFFFF000000000000000000000000000
0FFFFFF800000000000000000000000000
07FFFFFC00000000000000000000000000
07FFFFFC00000000000000000000000000
03FFFFFE00000000000000000000000000
03FFFFFF00000000000000000000000000
03FFFFFF00000000000000000000000000
01FFFFFF80000000000000000000000000
01FFFFFFC0000000000000000000000000
00FFFFFFE0000000000000000000000000
00FFFFFFF0000000000000000000000000
007FFFFFF8000000000000000000000000
007FFFFFFE000000000000000000000000
003FFFFFFF000000000000000000000000
001FFFFFFFC00000000000000000000000
001FFFFFFFE00000000000000000000000
000FFFFFFFF80000000000000000000000
0007FFFFFFFE0000000000000000000000
0007FFFFFFFFC000000000000000000000
0003FFFFFFFFFC00000000000000000000
0001FFFFFFFFFFFFFFFFFFFFFFFFFFFFF8
0000FFFFFFFFFFFFFFFFFFFFFFFFFFFFF8
00007FFFFFFFFFFFFFFFFFFFFFFFFFFFF8
00003FFFFFFFFFFFFFFFFFFFFFFFFFFFF8
00001FFFFFFFFFFFFFFFFFFFFFFFFFFFF8
00000FFFFFFFFFFFFFFFFFFFFFFFFFFFF8
000007FFFFFFFFFFFFFFFFFFFFFFFFFFF8
000003FFFFFFFFFFFFFFFFFFFFFFFFFFF8
000001FFFFFFFFFFFFFFFFFFFFFFFFFFF8
000000FFFFFFFFFFFFFFFFFFFFFFFFFFF8
0000007FFFFFFFFFFFFFFFFFFFFFFFFFF8
0000001FFFFFFFFFFFFFFFFFFFFFFFFFF8
0000000FFFFFFFFFFFFFFFFFFFFFFFFFF8
00000003FFFFFFFFFFFFFFFFFFFFFFFFF8
00000001FFFFFFFFFFFFFFFFFFFFFFFFF8
000000007FFFFFFFFFFFFFFFFFFFFFFFF8
000000001FFFFFFFFFFFFFFFFFFFFFFFF8
0000000007FFFFFFFFFFFFFFFFFFFFFFF8
0000000001FFFFFFFFFFFFFFFFFFFFFFF8
00000000003FFFFFFFFFFFFFFFFFFFFFF8
000000000007FFFFFFFFFFFFFFFFFFFFF8
0000000000007FFFFFFFFFFFFFFFFFFFF8
00000000000003FFFFFFFFFFFFFFFFFFF8
ENDCHAR
STARTCHAR D
ENCODING 68
SWIDTH 879 0
DWIDTH 156 0
BBX 137 129 11 0
BITMAP
FFFFFFFFFFFFFFFFFFFFE000000000000000
FFFFFFFFFFFFFFFFFFFFFFC0000000000000
FFFFFFFFFFFFFFFFFFFFFFFC000000000000
FFFFFFFFFFFFFFFFFFFFFFFF800000000000
FFFFFFFFFFFFFFFFFFFFFFFFE00000000000
FFFFFFFFFFFFFFFFFFFFFFFFFC0000000000
FFFFFFFFFFFFFFFFFFFFFFFFFF0000000000
FFFFFFFFFFFFFFFFFFFFFFFFFFC000000000
FFFFFFFFFFFFFFFFFFFFFFFFFFF000000000
FFFFFFFFFFFFFFFFFFFFFFFFFFF800000000
FFFFFFFFFFFFFFFFFFFFFFFFFFFE00000000
FFFFFFFFFFFFFFFFFFFFFFFFFFFF00000000
FFFFFFFFFFFFFFFFFFFFFFFFFFFFC0000000
FFFFFFFFFFFFFFFFFFFFFFFFFFFFE0000000
FFFFFFFFFFFFFFFFFFFFFFFFFFFFF0000000
FFFFFFFFFFFFFFFFFFFFFFFFFFFFF8000000
FFFFFFFFFFFFFFFFFFFFFFFFFFFFFE000000
FFFFFFFFFFFFFFFFFFFFFFFFFFFFFF000000
FFFFFFFFFFFFFFFFFFFFFFFFFFFFFF800000
FFFFFFFFFFFFFFFFFFFFFFFFFFFFFF800000
FFFFFFFFFFFFFFFFFFFFFFFFFFFFFFC00000
FFFFFFFFFFFFFFFFFFFFFFFFFFFFFFE00000
FFFFFFFFFFFFFFFFFFFFFFFFFFFFFFF00000
FFFFFC000000000000000FFFFFFFFFF80000
FFFFFC0000000000000000FFFFFFFFFC0000
FFFFFC00000000000000003FFFFFFFFC0000
FFFFFC000000000000000007FFFFFFFE0000
FFFFFC000000000000000003FFFFFFFF0000
FFFFFC000000000000000000FFFFFFFF0000
FFFFFC0000000000000000003FFFFFFF8000
FFFFFC0000000000000000001FFFFFFF8000
FFFFFC0000000000000000000FFFFFFFC000
FFFFFC00000000000000000003FFFFFFC000
FFFFFC00000000000000000001FFFFFFE000
FFFFFC00000000000000000000FFFFFFE000
FFFFFC000000000000000000007FFFFFF000
FFFFFC000000000000000000007FFFFFF000
FFFFFC000000000000000000003FFFFFF800
FFFFFC000000000000000000001FFFFFF800
FFFFFC000000000000000000000FFFFFF800
FFFFFC000000000000000000000FFFFFFC00
FFFFFC0000000000000000000007FFFFFC00
FFFFFC0000000000000000000007FFFFFC00
FFFFFC0000000000000000000003FFFFFE00
FFFFFC0000000000000000000001FFFFFE00
FFFFFC0000000000000000000001FFFFFE00
FFFFFC0000000000000000000001FFFFFE00
FFFFFC0000000000000000000000FFFFFF00
FFFFFC0000000000000000000000FFFFFF00
FFFFFC00000000000000000000007FFFFF00
FFFFFC00000000000000000000007FFFFF00
FFFFFC00000000000000000000007FFFFF00
FFFFFC00000000000000000000007FFFFF80
FFFFFC00000000000000000000003FFFFF80
FFFFFC00000000000000000000003FFFFF80
FFFFFC00000000000000000000003FFFFF80
FFFFFC00000000000000000000003FFFFF80
FFFFFC00000000000000000000003FFFFF80
FFFFFC00000000000000000000001FFFFF80
FFFFFC00000000000000000000001FFFFF80
FFFFFC00000000000000000000001FFFFF80
FFFFFC00000000000000000000001FFFFF80
FFFFFC00000000000000000000001FFFFF80
FFFFFC00000000000000000000001FFFFF80
FFFFFC00000000000000000000001FFFFF80
FFFFFC00000000000000000000001FFFFF80
FFFFFC00000000000000000000001FFFFF80
FFFFFC00000000000000000000001FFFFF80
FFFFFC00000000000000000000001FFFFF80
FFFFFC00000000000000000000001FFFFF80
FFFFFC00000000000000000000003FFFFF80
FFFFFC00000000000000000000003FFFFF80
FFFFFC00000000000000000000003FFFFF80
FFFFFC00000000000000000000003FFFFF80
FFFFFC00000000000000000000003FFFFF80
FFFFFC00000000000000000000003FFFFF00
FFFFFC00000000000000000000007FFFFF00
FFFFFC00000000000000000000007FFFFF00
FFFFFC00000000000000000000007FFFFF00
FFFFFC0000000000000000000000FFFFFF00
FFFFFC0000000000000000000000FFFFFE00
FFFFFC0000000000000000000000FFFFFE00
FFFFFC0000000000000000000001FFFFFE00
FFFFFC0000000000000000000001FFFFFE00
FFFFFC0000000000000000000003FFFFFC00
FFFFFC0000000000000000000003FFFFFC00
FFFFFC0000000000000000000007FFFFFC00
FFFFFC0000000000000000000007FFFFF800
FFFFFC000000000000000000000FFFFFF800
FFFFFC000000000000000000001FFFFFF800
FFFFFC000000000000000000001FFFFFF000
FFFFFC000000000000000000003FFFFFF000
FFFFFC000000000000000000007FFFFFE000
FFFFFC00000000000000000000FFFFFFE000
FFFFFC00000000000000000001FFFFFFC000
FFFFFC00000000000000000003FFFFFFC000
FFFFFC00000000000000000007FFFFFF8000
FFFFFC0000000000000000000FFFFFFF8000
FFFFFC0000000000000000001FFFFFFF0000
FFFFFC0000000000000000007FFFFFFF0000
FFFFFC000000000000000000FFFFFFFE0000
FFFFFC000000000000000003FFFFFFFC0000
FFFFFC00000000000000000FFFFFFFFC0000
FFFFFC00000000000000003FFFFFFFF80000
FFFFFC0000000000000001FFFFFFFFF00000
FFFFFC000000000000000FFFFFFFFFF00000
FFFFFFFFFFFFFFFFFFFFFFFFFFFFFFE00000
FFFFFFFFFFFFFFFFFFFFFFFFFFFFFFC00000
FFFFFFFFFFFFFFFFFFFFFFFFFFFFFF800000
FFFFFFFFFFFFFFFFFFFFFFFFFFFFFF000000
FFFFFFFFFFFFFFFFFFFFFFFFFFFFFE000000
FFFFFFFFFFFFFFFFFFFFFFFFFFFFFC000000
FFFFFFFFFFFFFFFFFFFFFFFFFFFFF8000000
FFFFFFFFFFFFFFFFFFFFFFFFFFFFF0000000
FFFFFFFFFFFFFFFFFFFFFFFFFFFFE0000000
FFFFFFFFFFFFFFFFFFFFFFFFFFFFC0000000
FFFFFFFFFFFFFFFFFFFFFFFFFFFF00000000
FFFFFFFFFFFFFFFFFFFFFFFFFFFE00000000
FFFFFFFFFFFFFFFFFFFFFFFFFFFC00000000
FFFFFFFFFFFFFFFFFFFFFFFFFFF000000000
FFFFFFFFFFFFFFFFFFFFFFFFFFE000000000
FFFFFFFFFFFFFFFFFFFFFFFFFF8000000000
FFFFFFFFFFFFFFFFFFFFFFFFFE0000000000
FFFFFFFFFFFFFFFFFFFFFFFFF80000000000
FFFFFFFFFFFFFFFFFFFFFFFFC00000000000
FFFFFFFFFFFFFFFFFFFFFFFF000000000000
FFFFFFFFFFFFFFFFFFFFFFF8000000000000
FFFFFFFFFFFFFFFFFFFFFF80000000000000
FFFFFFFFFFFFFFFFFFFFE000000000000000
ENDCHAR
STARTCHAR E
ENCODING 69
SWIDTH 759 0
DWIDTH 134 0
BBX 115 129 11 0
BITMAP
FFFFFFFFFFFFFFFFFFFFFFFFFFFFE0
FFFFFFFFFFFFFFFFFFFFFFFFFFFFE0
FFFFFFFFFFFFFFFFFFFFFFFFFFFFE0
FFFFFFFFFFFFFFFFFFFFFFFFFFFFE0
FFFFFFFFFFFFFFFFFFFFFFFFFFFFE0
FFFFFFFFFFFFFFFFFFFFFFFFFFFFE0
FFFFFFFFFFFFFFFFFFFFFFFFFFFFE0
FFFFFFFFFFFFFFFFFFFFFFFFFFFFE0
FFFFFFFFFFFFFFFFFFFFFFFFFFFFE0
FFFFFFFFFFFFFFFFFFFFFFFFFFFFE0
FFFFFFFFFFFFFFFFFFFFFFFFFFFFE0
FFFFFFFFFFFFFFFFFFFFFFFFFFFFE0
FFFFFFFFFFFFFFFFFFFFFFFFFFFFE0
FFFFFFFFFFFFFFFFFFFFFFFFFFFFE0
FFFFFFFFFFFFFFFFFFFFFFFFFFFFE0
FFFFFFFFFFFFFFFFFFFFFFFFFFFFE0
FFFFFFFFFFFFFFFFFFFFFFFFFFFFE0
FFFFFFFFFFFFFFFFFFFFFFFFFFFFE0
FFFFFFFFFFFFFFFFFFFFFFFFFFFFE0
FFFFFFFFFFFFFFFFFFFFFFFFFFFFE0
FFFFFFFFFFFFFFFFFFFFFFFFFFFFE0
FFFFFFFFFFFFFFFFFFFFFFFFFFFFE0
FFFFFFFFFFFFFFFFFFFFFFFFFFFFE0
FFFFFC000000000000000000000000
FFFFFC000000000000000000000000
FFFFFC000000000000000000000000
FFFFFC000000000000000000000000
FFFFFC000000000000000000000000
FFFFFC000000000000000000000000
FFFFFC000000000000000000000000
FFFFFC000000000000000000000000
FFFFFC000000000000000000000000
FFFFFC000000000000000000000000
FFFFFC000000000000000000000000
FFFFFC000000000000000000000000
FFFFFC000000000000000000000000
FFFFFC000000000000000000000000
FFFFFC000000000000000000000000
FFFFFC000000000000000000000000
FFFFFC000000000000000000000000
FFFFFC000000000000000000000000
FFFFFC000000000000000000000000
FFFFFC000000000000000000000000
FFFFFC000000000000000000000000
FFFFFC000000000000000000000000
FFFFFC000000000000000000000000
FFFFFC000000000000000000000000
FFFFFC000000000000000000000000
FFFFFC000000000000000000000000
FFFFFC000000000000000000000000
FFFFFC000000000000000000000000
FFFFFC000000000000000000000000
FFFFFC000000000000000000000000
FFFFFC000000000000000000000000
FFFFFC0001FFFFFFFFFFFFFFFFFC00
FFFFFC0001FFFFFFFFFFFFFFFFFC00
FFFFFC0001FFFFFFFFFFFFFFFFFC00
FFFFFC0001FFFFFFFFFFFFFFFFFC00
FFFFFC0001FFFFFFFFFFFFFFFFFC00
FFFFFC0001FFFFFFFFFFFFFFFFFC00
FFFFFC0001FFFFFFFFFFFFFFFFFC00
FFFFFC0001FFFFFFFFFFFFFFFFFC00
FFFFFC0001FFFFFFFFFFFFFFFFFC00
FFFFFC0001FFFFFFFFFFFFFFFFFC00
FFFFFC0001FFFFFFFFFFFFFFFFFC00
FFFFFC0001FFFFFFFFFFFFFFFFFC00
FFFFFC0001FFFFFFFFFFFFFFFFFC00
FFFFFC0001FFFFFFFFFFFFFFFFFC00
FFFFFC0001FFFFFFFFFFFFFFFFFC00
FFFFFC0001FFFFFFFFFFFFFFFFFC00
FFFFFC0001FFFFFFFFFFFFFFFFFC00
FFFFFC0001FFFFFFFFFFFFFFFFFC00
FFFFFC0001FFFFFFFFFFFFFFFFFC00
FFFFFC000000000000000000000000
FFFFFC000000000000000000000000
FFFFFC000000000000000000000000
FFFFFC000000000000000000000000
FFFFFC000000000000000000000000
FFFFFC000000000000000000000000
FFFFFC000000000000000000000000
FFFFFC000000000000000000000000
FFFFFC000000000000000000000000
FFFFFC000000000000000000000000
FFFFFC000000000000000000000000
FFFFFC000000000000000000000000
FFFFFC000000000000000000000000
FFFFFC000000000000000000000000
FFFFFC000000000000000000000000
FFFFFC000000000000000000000000
FFFFFC000000000000000000000000
FFFFFC000000000000000000000000
FFFFFC000000000000000000000000
FFFFFC000000000000000000000000
FFFFFC000000000000000000000000
FFFFFC000000000000000000000000
FFFFFC000000000000000000000000
FFFFFC000000000000000000000000
FFFFFC000000000000000000000000
FFFFFC000000000000000000000000
FFFFFC000000000000000000000000
FFFFFC000000000000000000000000
FFFFFC000000000000000000000000
FFFFFC000000000000000000000000
FFFFFC000000000000000000000000
FFFFFC000000000000000000000000
FFFFFC000000000000000000000000
FFFFFFFFFFFFFFFFFFFFFFFFFFFFE0
FFFFFFFFFFFFFFFFFFFFFFFFFFFFE0
FFFFFFFFFFFFFFFFFFFFFFFFFFFFE0
FFFFFFFFFFFFFFFFFFFFFFFFFFFFE0
FFFFFFFFFFFFFFFFFFFFFFFFFFFFE0
FFFFFFFFFFFFFFFFFFFFFFFFFFFFE0
FFFFFFFFFFFFFFFFFFFFFFFFFFFFE0
FFFFFFFFFFFFFFFFFFFFFFFFFFFFE0
FFFFFFFFFFFFFFFFFFFFFFFFFFFFE0
FFFFFFFFFFFFFFFFFFFFFFFFFFFFE0
FFFFFFFFFFFFFFFFFFFFFFFFFFFFE0
FFFFFFFFFFFFFFFFFFFFFFFFFFFFE0
FFFFFFFFFFFFFFFFFFFFFFFFFFFFE0
FFFFFFFFFFFFFFFFFFFFFFFFFFFFE0
FFFFFFFFFFFFFFFFFFFFFFFFFFFFE0
FFFFFFFFFFFFFFFFFFFFFFFFFFFFE0
FFFFFFFFFFFFFFFFFFFFFFFFFFFFE0
FFFFFFFFFFFFFFFFFFFFFFFFFFFFE0
FFFFFFFFFFFFFFFFFFFFFFFFFFFFE0
FFFFFFFFFFFFFFFFFFFFFFFFFFFFE0
FFFFFFFFFFFFFFFFFFFFFFFFFFFFE0
FFFFFFFFFFFFFFFFFFFFFFFFFFFFE0
FFFFFFFFFFFFFFFFFFFFFFFFFFFFE0
ENDCHAR
STARTCHAR F
ENCODING 70
SWIDTH 705 0
DWIDTH 125 0
BBX 109 129 11 0
BITMAP
FFFFFFFFFFFFFFFFFFFFFFFFFFF8
FFFFFFFFFFFFFFFFFFFFFFFFFFF8
FFFFFFFFFFFFFFFFFFFFFFFFFFF8
FFFFFFFFFFFFFFFFFFFFFFFFFFF8
FFFFFFFFFFFFFFFFFFFFFFFFFFF8
FFFFFFFFFFFFFFFFFFFFFFFFFFF8
FFFFFFFFFFFFFFFFFFFFFFFFFFF8
FFFFFFFFFFFFFFFFFFFFFFFFFFF8
FFFFFFFFFFFFFFFFFFFFFFFFFFF8
FFFFFFFFFFFFFFFFFFFFFFFFFFF8
FFFFFFFFFFFFFFFFFFFFFFFFFFF8
FFFFFFFFFFFFFFFFFFFFFFFFFFF8
FFFFFFFFFFFFFFFFFFFFFFFFFFF8
FFFFFFFFFFFFFFFFFFFFFFFFFFF8
FFFFFFFFFFFFFFFFFFFFFFFFFFF8
FFFFFFFFFFFFFFFFFFFFFFFFFFF8
FFFFFFFFFFFFFFFFFFFFFFFFFFF8
FFFFFFFFFFFFFFFFFFFFFFFFFFF8
FFFFFFFFFFFFFFFFFFFFFFFFFFF8
FFFFFFFFFFFFFFFFFFFFFFFFFFF8
FFFFFFFFFFFFFFFFFFFFFFFFFFF8
FFFFFFFFFFFFFFFFFFFFFFFFFFF8
FFFFFFFFFFFFFFFFFFFFFFFFFFF8
FFFFFC0000000000000000000000
FFFFFC0000000000000000000000
FFFFFC0000000000000000000000
FFFFFC0000000000000000000000
FFFFFC0000000000000000000000
FFFFFC0000000000000000000000
FFFFFC0000000000000000000000
FFFFFC0000000000000000000000
FFFFFC0000000000000000000000
FFFFFC0000000000000000000000
FFFFFC0000000000000000000000
FFFFFC0000000000000000000000
FFFFFC0000000000000000000000
FFFFFC0000000000000000000000
FFFFFC0000000000000000000000
FFFFFC0000000000000000000000
FFFFFC0000000000000000000000
FFFFFC0000000000000000000000
FFFFFC0000000000000000000000
FFFFFC0000000000000000000000
FFFFFC0000000000000000000000
FFFFFC0000000000000000000000
FFFFFC0000000000000000000000
FFFFFC0000000000000000000000
FFFFFC0000000000000000000000
FFFFFC0000000000000000000000
FFFFFC0000000000000000000000
FFFFFC0000000000000000000000
FFFFFC0000000000000000000000
FFFFFC0000000000000000000000
FFFFFC0000000000000000000000
FFFFFC0000000000000000000000
FFFFFC0000000000000000000000
FFFFFC0001FFFFFFFFFFFFFFFF00
FFFFFC0001FFFFFFFFFFFFFFFF00
FFFFFC0001FFFFFFFFFFFFFFFF00
FFFFFC0001FFFFFFFFFFFFFFFF00
FFFFFC0001FFFFFFFFFFFFFFFF00
FFFFFC0001FFFFFFFFFFFFFFFF00
FFFFFC0001FFFFFFFFFFFFFFFF00
FFFFFC0001FFFFFFFFFFFFFFFF00
FFFFFC0001FFFFFFFFFFFFFFFF00
FFFFFC0001FFFFFFFFFFFFFFFF00
FFFFFC0001FFFFFFFFFFFFFFFF00
FFFFFC0001FFFFFFFFFFFFFFFF00
FFFFFC0001FFFFFFFFFFFFFFFF00
FFFFFC0001FFFFFFFFFFFFFFFF00
FFFFFC0001FFFFFFFFFFFFFFFF00
FFFFFC0001FFFFFFFFFFFFFFFF00
FFFFFC0001FFFFFFFFFFFFFFFF00
FFFFFC0001FFFFFFFFFFFFFFFF00
FFFFFC0001FFFFFFFFFFFFFFFF00
FFFFFC0001FFFFFFFFFFFFFFFF00
FFFFFC0000000000000000000000
FFFFFC0000000000000000000000
FFFFFC0000000000000000000000
FFFFFC0000000000000000000000
FFFFFC0000000000000000000000
FFFFFC0000000000000000000000
FFFFFC0000000000000000000000
FFFFFC0000000000000000000000
FFFFFC0000000000000000000000
FFFFFC0000000000000000000000
FFFFFC0000000000000000000000
FFFFFC0000000000000000000000
FFFFFC0000000000000000000000
FFFFFC0000000000000000000000
FFFFFC0000000000000000000000
FFFFFC0000000000000000000000
FFFFFC0000000000000000000000
FFFFFC0000000000000000000000
FFFFFC0000000000000000000000
FFFFFC0000000000000000000000
FFFFFC0000000000000000000000
FFFFFC0000000000000000000000
FFFFFC0000000000000000000000
FFFFFC0000000000000000000000
FFFFFC0000000000000000000000
FFFFFC0000000000000000000000
FFFFFC0000000000000000000000
FFFFFC0000000000000000000000
FFFFFC0000000000000000000000
FFFFFC0000000000000000000000
FFFFFC0000000000000000000000
FFFFFC0000000000000000000000
FFFFFC0000000000000000000000
FFFFFC0000000000000000000000
FFFFFC0000000000000000000000
FFFFFC0000000000000000000000
FFFFFC0000000000000000000000
FFFFFC0000000000000000000000
FFFFFC0000000000000000000000
FFFFFC0000000000000000000000
FFFFFC0000000000000000000000
FFFFFC0000000000000000000000
FFFFFC0000000000000000000000
FFFFFC0000000000000000000000
FFFFFC0000000000000000000000
FFFFFC0000000000000000000000
FFFFFC0000000000000000000000
FFFFFC0000000000000000000000
FFFFFC0000000000000000000000
FFFFFC0000000000000000000000
FFFFFC0000000000000000000000
FFFFFC0000000000000000000000
FFFFFC0000000000000000000000
ENDCHAR
STARTCHAR G
ENCODING 71
SWIDTH 888 0
DWIDTH 157 0
BBX 141 129 7 0
BITMAP
00000000000003FFFFFFFFFFFFFFFFFFF800
000000000000FFFFFFFFFFFFFFFFFFFFF800
00000000000FFFFFFFFFFFFFFFFFFFFFF800
00000000007FFFFFFFFFFFFFFFFFFFFFF800
0000000003FFFFFFFFFFFFFFFFFFFFFFF800
000000000FFFFFFFFFFFFFFFFFFFFFFFF800
000000003FFFFFFFFFFFFFFFFFFFFFFFF800
00000000FFFFFFFFFFFFFFFFFFFFFFFFF800
00000003FFFFFFFFFFFFFFFFFFFFFFFFF800
0000000FFFFFFFFFFFFFFFFFFFFFFFFFF800
0000001FFFFFFFFFFFFFFFFFFFFFFFFFF800
0000007FFFFFFFFFFFFFFFFFFFFFFFFFF800
000000FFFFFFFFFFFFFFFFFFFFFFFFFFF800
000003FFFFFFFFFFFFFFFFFFFFFFFFFFF800
000007FFFFFFFFFFFFFFFFFFFFFFFFFFF800
00000FFFFFFFFFFFFFFFFFFFFFFFFFFFF800
00001FFFFFFFFFFFFFFFFFFFFFFFFFFFF800
00003FFFFFFFFFFFFFFFFFFFFFFFFFFFF800
00007FFFFFFFFFFFFFFFFFFFFFFFFFFFF800
0000FFFFFFFFFFFFFFFFFFFFFFFFFFFFF800
0001FFFFFFFFFFFFFFFFFFFFFFFFFFFFF800
0003FFFFFFFFFFFFFFFFFFFFFFFFFFFFF800
0003FFFFFFFFFFFFFFFFFFFFFFFFFFFFF800
0007FFFFFFFFFC0000000000000000000000
000FFFFFFFFFC00000000000000000000000
001FFFFFFFFE000000000000000000000000
001FFFFFFFF8000000000000000000000000
003FFFFFFFE0000000000000000000000000
007FFFFFFF80000000000000000000000000
007FFFFFFF00000000000000000000000000
00FFFFFFFC00000000000000000000000000
00FFFFFFF800000000000000000000000000
01FFFFFFF000000000000000000000000000
01FFFFFFE000000000000000000000000000
03FFFFFFC000000000000000000000000000
03FFFFFF8000000000000000000000000000
07FFFFFF0000000000000000000000000000
07FFFFFE0000000000000000000000000000
07FFFFFE0000000000000000000000000000
0FFFFFFC0000000000000000000000000000
0FFFFFF80000000000000000000000000000
0FFFFFF80000000000000000000000000000
1FFFFFF00000000000000000000000000000
1FFFFFF00000000000000000000000000000
1FFFFFE00000000000000000000000000000
3FFFFFE00000000000000000000000000000
3FFFFFC00000000000000000000000000000
3FFFFFC00000000000000000000000000000
3FFFFF800000000000000000000000000000
3FFFFF800000000000000000000000000000
7FFFFF800000000000000000000000000000
7FFFFF800000000000000000000000000000
7FFFFF000000000000000000000000000000
7FFFFF000000000000000000000000000000
7FFFFF000000000FFFFFFFFFFFFFFFFFFFF8
7FFFFF000000000FFFFFFFFFFFFFFFFFFFF8
7FFFFE000000000FFFFFFFFFFFFFFFFFFFF8
7FFFFE000000000FFFFFFFFFFFFFFFFFFFF8
7FFFFE000000000FFFFFFFFFFFFFFFFFFFF8
FFFFFE000000000FFFFFFFFFFFFFFFFFFFF8
FFFFFE000000000FFFFFFFFFFFFFFFFFFFF8
FFFFFE000000000FFFFFFFFFFFFFFFFFFFF8
FFFFFE000000000FFFFFFFFFFFFFFFFFFFF8
FFFFFE000000000FFFFFFFFFFFFFFFFFFFF8
FFFFFE000000000FFFFFFFFFFFFFFFFFFFF8
FFFFFE000000000FFFFFFFFFFFFFFFFFFFF8
FFFFFE000000000FFFFFFFFFFFFFFFFFFFF8
7FFFFE000000000FFFFFFFFFFFFFFFFFFFF8
7FFFFE000000000FFFFFFFFFFFFFFFFFFFF8
7FFFFE000000000FFFFFFFFFFFFFFFFFFFF8
7FFFFE000000000FFFFFFFFFFFFFFFFFFFF8
7FFFFE000000000FFFFFFFFFFFFFFFFFFFF8
7FFFFF000000000FFFFFFFFFFFFFFFFFFFF8
7FFFFF000000000000000000000003FFFFF8
7FFFFF000000000000000000000003FFFFF8
7FFFFF000000000000000000000003FFFFF8
3FFFFF000000000000000000000003FFFFF8
3FFFFF800000000000000000000003FFFFF8
3FFFFF800000000000000000000003FFFFF8
3FFFFF800000000000000000000003FFFFF8
3FFFFFC00000000000000000000003FFFFF8
1FFFFFC00000000000000000000003FFFFF8
1FFFFFC00000000000000000000003FFFFF8
1FFFFFE00000000000000000000003FFFFF8
1FFFFFE00000000000000000000003FFFFF8
0FFFFFF00000000000000000000003FFFFF8
0FFFFFF00000000000000000000003FFFFF8
0FFFFFF80000000000000000000003FFFFF8
07FFFFFC0000000000000000000003FFFFF8
07FFFFFC0000000000000000000003FFFFF8
03FFFFFE0000000000000000000003FFFFF8
03FFFFFF0000000000000000000003FFFFF8
03FFFFFF0000000000000000000003FFFFF8
01FFFFFF8000000000000000000003FFFFF8
01FFFFFFC000000000000000000003FFFFF8
00FFFFFFE000000000000000000003FFFFF8
00FFFFFFF000000000000000000003FFFFF8
007FFFFFF800000000000000000003FFFFF8
007FFFFFFE00000000000000000003FFFFF8
003FFFFFFF00000000000000000003FFFFF8
001FFFFFFFC0000000000000000003FFFFF8
001FFFFFFFE0000000000000000003FFFFF8
000FFFFFFFF8000000000000000003FFFFF8
0007FFFFFFFE000000000000000003FFFFF8
0007FFFFFFFFC00000000000000003FFFFF8
0003FFFFFFFFFC0000000000000003FFFFF8
0001FFFFFFFFFFFFFFFFFFFFFFFFFFFFFFF8
0000FFFFFFFFFFFFFFFFFFFFFFFFFFFFFFF8
00007FFFFFFFFFFFFFFFFFFFFFFFFFFFFFF8
00003FFFFFFFFFFFFFFFFFFFFFFFFFFFFFF8
00001FFFFFFFFFFFFFFFFFFFFFFFFFFFFFF8
00000FFFFFFFFFFFFFFFFFFFFFFFFFFFFFF8
000007FFFFFFFFFFFFFFFFFFFFFFFFFFFFF8
000003FFFFFFFFFFFFFFFFFFFFFFFFFFFFF8
000001FFFFFFFFFFFFFFFFFFFFFFFFFFFFF8
000000FFFFFFFFFFFFFFFFFFFFFFFFFFFFF8
0000007FFFFFFFFFFFFFFFFFFFFFFFFFFFF8
0000001FFFFFFFFFFFFFFFFFFFFFFFFFFFF8
0000000FFFFFFFFFFFFFFFFFFFFFFFFFFFF8
00000003FFFFFFFFFFFFFFFFFFFFFFFFFFF8
00000001FFFFFFFFFFFFFFFFFFFFFFFFFFF8
000000007FFFFFFFFFFFFFFFFFFFFFFFFFF8
000000001FFFFFFFFFFFFFFFFFFFFFFFFFF8
0000000007FFFFFFFFFFFFFFFFFFFFFFFFF8
0000000001FFFFFFFFFFFFFFFFFFFFFFFFF8
00000000003FFFFFFFFFFFFFFFFFFFFFFFF8
000000000007FFFFFFFFFFFFFFFFFFFFFFF8
0000000000007FFFFFFFFFFFFFFFFFFFFFF8
00000000000003FFFFFFFFFFFFFFFFFFFFF8
ENDCHAR
STARTCHAR H
ENCODING 72
SWIDTH 838 0
DWIDTH 148 0
BBX 126 129 11 0
BITMAP
FFFFFE00000000000000000000FFFFFC
FFFFFE00000000000000000000FFFFFC
FFFFFE00000000000000000000FFFFFC
FFFFFE00000000000000000000FFFFFC
FFFFFE00000000000000000000FFFFFC
FFFFFE00000000000000000000FFFFFC
FFFFFE00000000000000000000FFFFFC
FFFFFE00000000000000000000FFFFFC
FFFFFE00000000000000000000FFFFFC
FFFFFE00000000000000000000FFFFFC
FFFFFE00000000000000000000FFFFFC
FFFFFE00000000000000000000FFFFFC
FFFFFE00000000000000000000FFFFFC
FFFFFE00000000000000000000FFFFFC
FFFFFE00000000000000000000FFFFFC
FFFFFE00000000000000000000FFFFFC
FFFFFE00000000000000000000FFFFFC
FFFFFE00000000000000000000FFFFFC
FFFFFE00000000000000000000FFFFFC
FFFFFE00000000000000000000FFFFFC
FFFFFE00000000000000000000FFFFFC
FFFFFE00000000000000000000FFFFFC
FFFFFE00000000000000000000FFFFFC
FFFFFE00000000000000000000FFFFFC
FFFFFE00000000000000000000FFFFFC
FFFFFE00000000000000000000FFFFFC
FFFFFE00000000000000000000FFFFFC
FFFFFE00000000000000000000FFFFFC
FFFFFE00000000000000000000FFFFFC
FFFFFE00000000000000000000FFFFFC
FFFFFE00000000000000000000FFFFFC
FFFFFE00000000000000000000FFFFFC
FFFFFE00000000000000000000FFFFFC
FFFFFE00000000000000000000FFFFFC
FFFFFE00000000000000000000FFFFFC
FFFFFE00000000000000000000FFFFFC
FFFFFE00000000000000000000FFFFFC
FFFFFE00000000000000000000FFFFFC
FFFFFE00000000000000000000FFFFFC
FFFFFE00000000000000000000FFFFFC
FFFFFE00000000000000000000FFFFFC
FFFFFE00000000000000000000FFFFFC
FFFFFE00000000000000000000FFFFFC
FFFFFE00000000000000000000FFFFFC
FFFFFE00000000000000000000FFFFFC
FFFFFE00000000000000000000FFFFFC
FFFFFE00000000000000000000FFFFFC
FFFFFE00000000000000000000FFFFFC
FFFFFE00000000000000000000FFFFFC
FFFFFE00000000000000000000FFFFFC
FFFFFE00000000000000000000FFFFFC
FFFFFE00000000000000000000FFFFFC
FFFFFE00000000000000000000FFFFFC
FFFFFE0001FFFFFFFFFFFFFFFFFFFFFC
FFFFFE0001FFFFFFFFFFFFFFFFFFFFFC
FFFFFE0001FFFFFFFFFFFFFFFFFFFFFC
FFFFFE0001FFFFFFFFFFFFFFFFFFFFFC
FFFFFE0001FFFFFFFFFFFFFFFFFFFFFC
FFFFFE0001FFFFFFFFFFFFFFFFFFFFFC
FFFFFE0001FFFFFFFFFFFFFFFFFFFFFC
FFFFFE0001FFFFFFFFFFFFFFFFFFFFFC
FFFFFE0001FFFFFFFFFFFFFFFFFFFFFC
FFFFFE0001FFFFFFFFFFFFFFFFFFFFFC
FFFFFE0001FFFFFFFFFFFFFFFFFFFFFC
FFFFFE0001FFFFFFFFFFFFFFFFFFFFFC
FFFFFE0001FFFFFFFFFFFFFFFFFFFFFC
FFFFFE0001FFFFFFFFFFFFFFFFFFFFFC
FFFFFE0001FFFFFFFFFFFFFFFFFFFFFC
FFFFFE0001FFFFFFFFFFFFFFFFFFFFFC
FFFFFE0001FFFFFFFFFFFFFFFFFFFFFC
FFFFFE0001FFFFFFFFFFFFFFFFFFFFFC
FFFFFE0001FFFFFFFFFFFFFFFFFFFFFC
FFFFFE0001FFFFFFFFFFFFFFFFFFFFFC
FFFFFE00000000000000000000FFFFFC
FFFFFE00000000000000000000FFFFFC
FFFFFE00000000000000000000FFFFFC
FFFFFE00000000000000000000FFFFFC
FFFFFE00000000000000000000FFFFFC
FFFFFE00000000000000000000FFFFFC
FFFFFE00000000000000000000FFFFFC
FFFFFE00000000000000000000FFFFFC
FFFFFE00000000000000000000FFFFFC
FFFFFE00000000000000000000FFFFFC
FFFFFE00000000000000000000FFFFFC
FFFFFE00000000000000000000FFFFFC
FFFFFE00000000000000000000FFFFFC
FFFFFE00000000000000000000FFFFFC
FFFFFE00000000000000000000FFFFFC
FFFFFE00000000000000000000FFFFFC
FFFFFE00000000000000000000FFFFFC
FFFFFE00000000000000000000FFFFFC
FFFFFE00000000000000000000FFFFFC
FFFFFE00000000000000000000FFFFFC
FFFFFE00000000000000000000FFFFFC
FFFFFE00000000000000000000FFFFFC
FFFFFE00000000000000000000FFFFFC
FFFFFE00000000000000000000FFFFFC
FFFFFE00000000000000000000FFFFFC
FFFFFE00000000000000000000FFFFFC
FFFFFE00000000000000000000FFFFFC
FFFFFE00000000000000000000FFFFFC
FFFFFE00000000000000000000FFFFFC
FFFFFE00000000000000000000FFFFFC
FFFFFE00000000000000000000FFFFFC
FFFFFE00000000000000000000FFFFFC
FFFFFE00000000000000000000FFFFFC
FFFFFE00000000000000000000FFFFFC
FFFFFE00000000000000000000FFFFFC
FFFFFE00000000000000000000FFFFFC
FFFFFE00000000000000000000FFFFFC
FFFFFE00000000000000000000FFFFFC
FFFFFE00000000000000000000FFFFFC
FFFFFE00000000000000000000FFFFFC
FFFFFE00000000000000000000FFFFFC
FFFFFE00000000000000000000FFFFFC
FFFFFE00000000000000000000FFFFFC
FFFFFE00000000000000000000FFFFFC
FFFFFE00000000000000000000FFFFFC
FFFFFE00000000000000000000FFFFFC
FFFFFE00000000000000000000FFFFFC
FFFFFE00000000000000000000FFFFFC
FFFFFE00000000000000000000FFFFFC
FFFFFE00000000000000000000FFFFFC
FFFFFE00000000000000000000FFFFFC
FFFFFE00000000000000000000FFFFFC
FFFFFE00000000000000000000FFFFFC
FFFFFE00000000000000000000FFFFFC
FFFFFE00000000000000000000FFFFFC
FFFFFE00000000000000000000FFFFFC
ENDCHAR
STARTCHAR I
ENCODING 73
SWIDTH 267 0
DWIDTH 47 0
BBX 23 129 12 0
BITMAP
FFFFFE
FFFFFE
FFFFFE
FFFFFE
FFFFFE
FFFFFE
FFFFFE
FFFFFE
FFFFFE
FFFFFE
FFFFFE
FFFFFE
FFFFFE
FFFFFE
FFFFFE
FFFFFE
FFFFFE
FFFFFE
FFFFFE
FFFFFE
FFFFFE
FFFFFE
FFFFFE
FFFFFE
FFFFFE
FFFFFE
FFFFFE
FFFFFE
FFFFFE
FFFFFE
FFFFFE
FFFFFE
FFFFFE
FFFFFE
FFFFFE
FFFFFE
FFFFFE
FFFFFE
FFFFFE
FFFFFE
FFFFFE
FFFFFE
FFFFFE
FFFFFE
FFFFFE
FFFFFE
FFFFFE
FFFFFE
FFFFFE
FFFFFE
FFFFFE
FFFFFE
FFFFFE
FFFFFE
FFFFFE
FFFFFE
FFFFFE
FFFFFE
FFFFFE
FFFFFE
FFFFFE
FFFFFE
FFFFFE
FFFFFE
FFFFFE
FFFFFE
FFFFFE
FFFFFE
FFFFFE
FFFFFE
FFFFFE
FFFFFE
FFFFFE
FFFFFE
FFFFFE
FFFFFE
FFFFFE
FFFFFE
FFFFFE
FFFFFE
FFFFFE
FFFFFE
FFFFFE
FFFFFE
FFFFFE
FFFFFE
FFFFFE
FFFFFE
FFFFFE
FFFFFE
FFFFFE
FFFFFE
FFFFFE
FFFFFE
FFFFFE
FFFFFE
FFFFFE
FFFFFE
FFFFFE
FFFFFE
FFFFFE
FFFFFE
FFFFFE
FFFFFE
FFFFFE
FFFFFE
FFFFFE
FFFFFE
FFFFFE
FFFFFE
FFFFFE
FFFFFE
FFFFFE
FFFFFE
FFFFFE
FFFFFE
FFFFFE
FFFFFE
FFFFFE
FFFFFE
FFFFFE
FFFFFE
FFFFFE
FFFFFE
FFFFFE
FFFFFE
FFFFFE
FFFFFE
FFFFFE
ENDCHAR
STARTCHAR J
ENCODING 74
SWIDTH 708 0
DWIDTH 125 0
BBX 112 129 4 0
BITMAP
00000000000000000000003FFFFF
00000000000000000000003FFFFF
00000000000000000000003FFFFF
00000000000000000000003FFFFF
00000000000000000000003FFFFF
00000000000000000000003FFFFF
00000000000000000000003FFFFF
00000000000000000000003FFFFF
00000000000000000000003FFFFF
00000000000000000000003FFFFF
00000000000000000000003FFFFF
00000000000000000000003FFFFF
00000000000000000000003FFFFF
00000000000000000000003FFFFF
00000000000000000000003FFFFF
00000000000000000000003FFFFF
00000000000000000000003FFFFF
00000000000000000000003FFFFF
00000000000000000000003FFFFF
00000000000000000000003FFFFF
00000000000000000000003FFFFF
00000000000000000000003FFFFF
00000000000000000000003FFFFF
00000000000000000000003FFFFF
00000000000000000000003FFFFF
00000000000000000000003FFFFF
00000000000000000000003FFFFF
00000000000000000000003FFFFF
00000000000000000000003FFFFF
00000000000000000000003FFFFF
00000000000000000000003FFFFF
00000000000000000000003FFFFF
00000000000000000000003FFFFF
00000000000000000000003FFFFF
00000000000000000000003FFFFF
00000000000000000000003FFFFF
00000000000000000000003FFFFF
00000000000000000000003FFFFF
00000000000000000000003FFFFF
00000000000000000000003FFFFF
00000000000000000000003FFFFF
00000000000000000000003FFFFF
00000000000000000000003FFFFF
00000000000000000000003FFFFF
00000000000000000000003FFFFF
00000000000000000000003FFFFF
00000000000000000000003FFFFF
00000000000000000000003FFFFF
00000000000000000000003FFFFF
00000000000000000000003FFFFF
00000000000000000000003FFFFF
00000000000000000000003FFFFF
00000000000000000000003FFFFF
00000000000000000000003FFFFF
00000000000000000000003FFFFF
00000000000000000000003FFFFF
00000000000000000000003FFFFF
00000000000000000000003FFFFF
00000000000000000000003FFFFF
00000000000000000000003FFFFF
00000000000000000000003FFFFF
00000000000000000000003FFFFF
00000000000000000000003FFFFF
00000000000000000000003FFFFF
00000000000000000000003FFFFF
00000000000000000000003FFFFF
00000000000000000000003FFFFF
00000000000000000000003FFFFF
00000000000000000000003FFFFF
00000000000000000000003FFFFF
00000000000000000000003FFFFF
00000000000000000000003FFFFF
00000000000000000000003FFFFF
00000000000000000000003FFFFF
00000000000000000000007FFFFF
00000000000000000000007FFFFF
00000000000000000000007FFFFF
00000000000000000000007FFFFF
00000000000000000000007FFFFF
00000000000000000000007FFFFF
00000000000000000000007FFFFF
00000000000000000000007FFFFE
0000000000000000000000FFFFFE
0000000000000000000000FFFFFE
0000000000000000000000FFFFFE
0000000000000000000001FFFFFE
0000000000000000000001FFFFFE
0000000000000000000001FFFFFE
0000000000000000000003FFFFFC
0000000000000000000003FFFFFC
0000000000000000000007FFFFFC
0000000000000000000007FFFFFC
000000000000000000000FFFFFF8
000000000000000000000FFFFFF8
000000000000000000001FFFFFF8
000000000000000000003FFFFFF0
000000000000000000007FFFFFF0
00000000000000000000FFFFFFF0
00000000000000000001FFFFFFE0
00000000000000000003FFFFFFE0
0000000000000000000FFFFFFFE0
0000000000000000003FFFFFFFC0
000000000000000000FFFFFFFFC0
000000000000000007FFFFFFFF80
00000000000000003FFFFFFFFF80
0000000000000007FFFFFFFFFF00
FFFFFFFFFFFFFFFFFFFFFFFFFE00
FFFFFFFFFFFFFFFFFFFFFFFFFE00
FFFFFFFFFFFFFFFFFFFFFFFFFC00
FFFFFFFFFFFFFFFFFFFFFFFFF800
FFFFFFFFFFFFFFFFFFFFFFFFF000
FFFFFFFFFFFFFFFFFFFFFFFFF000
FFFFFFFFFFFFFFFFFFFFFFFFE000
FFFFFFFFFFFFFFFFFFFFFFFFC000
FFFFFFFFFFFFFFFFFFFFFFFF8000
FFFFFFFFFFFFFFFFFFFFFFFF0000
FFFFFFFFFFFFFFFFFFFFFFFC0000
FFFFFFFFFFFFFFFFFFFFFFF80000
FFFFFFFFFFFFFFFFFFFFFFF00000
FFFFFFFFFFFFFFFFFFFFFFC00000
FFFFFFFFFFFFFFFFFFFFFF000000
FFFFFFFFFFFFFFFFFFFFFC000000
FFFFFFFFFFFFFFFFFFFFF0000000
FFFFFFFFFFFFFFFFFFFFC0000000
FFFFFFFFFFFFFFFFFFFE00000000
FFFFFFFFFFFFFFFFFFF000000000
FFFFFFFFFFFFFFFFFF0000000000
FFFFFFFFFFFFFFFFE00000000000
FFFFFFFFFFFFFFF0000000000000
ENDCHAR
STARTCHAR K
ENCODING 75
SWIDTH 875 0
DWIDTH 155 0
BBX 141 129 11 0
BITMAP
FFFFFE00000000000000000001FFFFFFFFC0
FFFFFE00000000000000000007FFFFFFFF00
FFFFFE0000000000000000000FFFFFFFFE00
FFFFFE0000000000000000001FFFFFFFF800
FFFFFE0000000000000000007FFFFFFFF000
FFFFFE000000000000000000FFFFFFFFE000
FFFFFE000000000000000001FFFFFFFF8000
FFFFFE000000000000000003FFFFFFFF0000
FFFFFE00000000000000000FFFFFFFFE0000
FFFFFE00000000000000001FFFFFFFF80000
FFFFFE00000000000000003FFFFFFFF00000
FFFFFE0000000000000000FFFFFFFFC00000
FFFFFE0000000000000001FFFFFFFF800000
FFFFFE0000000000000003FFFFFFFF000000
FFFFFE0000000000000007FFFFFFFC000000
FFFFFE000000000000001FFFFFFFF8000000
FFFFFE000000000000003FFFFFFFF0000000
FFFFFE000000000000007FFFFFFFC0000000
FFFFFE00000000000001FFFFFFFF80000000
FFFFFE00000000000003FFFFFFFF00000000
FFFFFE00000000000007FFFFFFFC00000000
FFFFFE0000000000001FFFFFFFF800000000
FFFFFE0000000000003FFFFFFFF000000000
FFFFFE0000000000007FFFFFFFC000000000
FFFFFE000000000000FFFFFFFF8000000000
FFFFFE000000000003FFFFFFFF0000000000
FFFFFE000000000007FFFFFFFC0000000000
FFFFFE00000000000FFFFFFFF80000000000
FFFFFE00000000003FFFFFFFF00000000000
FFFFFE00000000007FFFFFFFC00000000000
FFFFFE0000000000FFFFFFFF800000000000
FFFFFE0000000003FFFFFFFF000000000000
FFFFFE0000000007FFFFFFFC000000000000
FFFFFE000000000FFFFFFFF8000000000000
FFFFFE000000001FFFFFFFF0000000000000
FFFFFE000000007FFFFFFFC0000000000000
FFFFFE00000000FFFFFFFF80000000000000
FFFFFE00000001FFFFFFFF00000000000000
FFFFFE00000007FFFFFFFC00000000000000
FFFFFE0000000FFFFFFFF800000000000000
FFFFFE0000001FFFFFFFF000000000000000
FFFFFE0000007FFFFFFFC000000000000000
FFFFFE000000FFFFFFFF8000000000000000
FFFFFE000001FFFFFFFF0000000000000000
FFFFFE000003FFFFFFFC0000000000000000
FFFFFE00000FFFFFFFF80000000000000000
FFFFFE00001FFFFFFFF00000000000000000
FFFFFE00003FFFFFFFC00000000000000000
FFFFFE0000FFFFFFFF800000000000000000
FFFFFE0001FFFFFFFF000000000000000000
FFFFFE0003FFFFFFFC000000000000000000
FFFFFE0007FFFFFFF8000000000000000000
FFFFFE001FFFFFFFF0000000000000000000
FFFFFE003FFFFFFFC0000000000000000000
FFFFFE007FFFFFFF80000000000000000000
FFFFFE00FFFFFFFF00000000000000000000
FFFFFE01FFFFFFFC00000000000000000000
FFFFFE01FFFFFFF800000000000000000000
FFFFFE03FFFFFFF000000000000000000000
FFFFFE03FFFFFFC000000000000000000000
FFFFFE03FFFFFF8000000000000000000000
FFFFFE03FFFFFF0000000000000000000000
FFFFFE03FFFFFC0000000000000000000000
FFFFFE03FFFFFC0000000000000000000000
FFFFFE03FFFFFF0000000000000000000000
FFFFFE03FFFFFF8000000000000000000000
FFFFFE03FFFFFFC000000000000000000000
FFFFFE03FFFFFFF000000000000000000000
FFFFFE01FFFFFFF800000000000000000000
FFFFFE01FFFFFFFC00000000000000000000
FFFFFE00FFFFFFFF00000000000000000000
FFFFFE007FFFFFFF80000000000000000000
FFFFFE003FFFFFFFC0000000000000000000
FFFFFE000FFFFFFFE0000000000000000000
FFFFFE0007FFFFFFF8000000000000000000
FFFFFE0003FFFFFFFC000000000000000000
FFFFFE0000FFFFFFFE000000000000000000
FFFFFE00007FFFFFFF800000000000000000
FFFFFE00003FFFFFFFC00000000000000000
FFFFFE00001FFFFFFFE00000000000000000
FFFFFE000007FFFFFFF80000000000000000
FFFFFE000003FFFFFFFC0000000000000000
FFFFFE000001FFFFFFFE0000000000000000
FFFFFE000000FFFFFFFF8000000000000000
FFFFFE0000003FFFFFFFC000000000000000
FFFFFE0000001FFFFFFFE000000000000000
FFFFFE0000000FFFFFFFF800000000000000
FFFFFE00000003FFFFFFFC00000000000000
FFFFFE00000001FFFFFFFE00000000000000
FFFFFE00000000FFFFFFFF80000000000000
FFFFFE000000007FFFFFFFC0000000000000
FFFFFE000000001FFFFFFFE0000000000000
FFFFFE000000000FFFFFFFF0000000000000
FFFFFE0000000007FFFFFFFC000000000000
FFFFFE0000000003FFFFFFFE000000000000
FFFFFE0000000000FFFFFFFF000000000000
FFFFFE00000000007FFFFFFFC00000000000
FFFFFE00000000003FFFFFFFE00000000000
FFFFFE00000000001FFFFFFFF00000000000
FFFFFE000000000007FFFFFFFC0000000000
FFFFFE000000000003FFFFFFFE0000000000
FFFFFE000000000001FFFFFFFF0000000000
FFFFFE0000000000007FFFFFFFC000000000
FFFFFE0000000000003FFFFFFFE000000000
FFFFFE0000000000001FFFFFFFF000000000
FFFFFE0000000000000FFFFFFFFC00000000
FFFFFE00000000000003FFFFFFFE00000000
FFFFFE00000000000001FFFFFFFF00000000
FFFFFE00000000000000FFFFFFFFC0000000
FFFFFE000000000000007FFFFFFFE0000000
FFFFFE000000000000001FFFFFFFF0000000
FFFFFE000000000000000FFFFFFFF8000000
FFFFFE0000000000000007FFFFFFFE000000
FFFFFE0000000000000003FFFFFFFF000000
FFFFFE0000000000000000FFFFFFFF800000
FFFFFE00000000000000007FFFFFFFE00000
FFFFFE00000000000000003FFFFFFFF00000
FFFFFE00000000000000000FFFFFFFF80000
FFFFFE000000000000000007FFFFFFFE0000
FFFFFE000000000000000003FFFFFFFF0000
FFFFFE000000000000000001FFFFFFFF8000
FFFFFE0000000000000000007FFFFFFFE000
FFFFFE0000000000000000003FFFFFFFF000
FFFFFE0000000000000000001FFFFFFFF800
FFFFFE0000000000000000000FFFFFFFFE00
FFFFFE00000000000000000003FFFFFFFF00
FFFFFE00000000000000000001FFFFFFFF80
FFFFFE00000000000000000000FFFFFFFFE0
FFFFFE000000000000000000003FFFFFFFF8
ENDCHAR
STARTCHAR L
ENCODING 76
SWIDTH 707 0
DWIDTH 125 0
BBX 109 129 11 0
BITMAP
FFFFFE0000000000000000000000
FFFFFE0000000000000000000000
FFFFFE0000000000000000000000
FFFFFE0000000000000000000000
FFFFFE0000000000000000000000
FFFFFE0000000000000000000000
FFFFFE0000000000000000000000
FFFFFE0000000000000000000000
FFFFFE0000000000000000000000
FFFFFE0000000000000000000000
FFFFFE0000000000000000000000
FFFFFE0000000000000000000000
FFFFFE0000000000000000000000
FFFFFE0000000000000000000000
FFFFFE0000000000000000000000
FFFFFE0000000000000000000000
FFFFFE0000000000000000000000
FFFFFE0000000000000000000000
FFFFFE0000000000000000000000
FFFFFE0000000000000000000000
FFFFFE0000000000000000000000
FFFFFE0000000000000000000000
FFFFFE0000000000000000000000
FFFFFE0000000000000000000000
FFFFFE0000000000000000000000
FFFFFE0000000000000000000000
FFFFFE0000000000000000000000
FFFFFE0000000000000000000000
FFFFFE0000000000000000000000
FFFFFE0000000000000000000000
FFFFFE0000000000000000000000
FFFFFE0000000000000000000000
FFFFFE0000000000000000000000
FFFFFE0000000000000000000000
FFFFFE0000000000000000000000
FFFFFE0000000000000000000000
FFFFFE0000000000000000000000
FFFFFE0000000000000000000000
FFFFFE0000000000000000000000
FFFFFE0000000000000000000000
FFFFFE0000000000000000000000
FFFFFE0000000000000000000000
FFFFFE0000000000000000000000
FFFFFE0000000000000000000000
FFFFFE0000000000000000000000
FFFFFE0000000000000000000000
FFFFFE0000000000000000000000
FFFFFE0000000000000000000000
FFFFFE0000000000000000000000
FFFFFE0000000000000000000000
FFFFFE0000000000000000000000
FFFFFE0000000000000000000000
FFFFFE0000000000000000000000
FFFFFE0000000000000000000000
FFFFFE0000000000000000000000
FFFFFE0000000000000000000000
FFFFFE0000000000000000000000
FFFFFE0000000000000000000000
FFFFFE0000000000000000000000
FFFFFE0000000000000000000000
FFFFFE0000000000000000000000
FFFFFE0000000000000000000000
FFFFFE0000000000000000000000
FFFFFE0000000000000000000000
FFFFFE0000000000000000000000
FFFFFE0000000000000000000000
FFFFFE0000000000000000000000
FFFFFE0000000000000000000000
FFFFFE0000000000000000000000
FFFFFE0000000000000000000000
FFFFFE0000000000000000000000
FFFFFE0000000000000000000000
FFFFFE0000000000000000000000
FFFFFE0000000000000000000000
FFFFFE0000000000000000000000
FFFFFE0000000000000000000000
FFFFFE0000000000000000000000
FFFFFE0000000000000000000000
FFFFFE0000000000000000000000
FFFFFE0000000000000000000000
FFFFFE0000000000000000000000
FFFFFE0000000000000000000000
FFFFFE0000000000000000000000
FFFFFE0000000000000000000000
FFFFFE0000000000000000000000
FFFFFE0000000000000000000000
FFFFFE0000000000000000000000
FFFFFE0000000000000000000000
FFFFFE0000000000000000000000
FFFFFE0000000000000000000000
FFFFFE0000000000000000000000
FFFFFE0000000000000000000000
FFFFFE0000000000000000000000
FFFFFE0000000000000000000000
FFFFFE0000000000000000000000
FFFFFE0000000000000000000000
FFFFFE0000000000000000000000
FFFFFE0000000000000000000000
FFFFFE0000000000000000000000
FFFFFE0000000000000000000000
FFFFFE0000000000000000000000
FFFFFE0000000000000000000000
FFFFFE0000000000000000000000
FFFFFE0000000000000000000000
FFFFFE0000000000000000000000
FFFFFE0000000000000000000000
FFFFFFFFFFFFFFFFFFFFFFFFFFF8
FFFFFFFFFFFFFFFFFFFFFFFFFFF8
FFFFFFFFFFFFFFFFFFFFFFFFFFF8
FFFFFFFFFFFFFFFFFFFFFFFFFFF8
FFFFFFFFFFFFFFFFFFFFFFFFFFF8
FFFFFFFFFFFFFFFFFFFFFFFFFFF8
FFFFFFFFFFFFFFFFFFFFFFFFFFF8
FFFFFFFFFFFFFFFFFFFFFFFFFFF8
FFFFFFFFFFFFFFFFFFFFFFFFFFF8
FFFFFFFFFFFFFFFFFFFFFFFFFFF8
FFFFFFFFFFFFFFFFFFFFFFFFFFF8
FFFFFFFFFFFFFFFFFFFFFFFFFFF8
FFFFFFFFFFFFFFFFFFFFFFFFFFF8
FFFFFFFFFFFFFFFFFFFFFFFFFFF8
FFFFFFFFFFFFFFFFFFFFFFFFFFF8
FFFFFFFFFFFFFFFFFFFFFFFFFFF8
FFFFFFFFFFFFFFFFFFFFFFFFFFF8
FFFFFFFFFFFFFFFFFFFFFFFFFFF8
FFFFFFFFFFFFFFFFFFFFFFFFFFF8
FFFFFFFFFFFFFFFFFFFFFFFFFFF8
FFFFFFFFFFFFFFFFFFFFFFFFFFF8
FFFFFFFFFFFFFFFFFFFFFFFFFFF8
FFFFFFFFFFFFFFFFFFFFFFFFFFF8
ENDCHAR
STARTCHAR M
ENCODING 77
SWIDTH 1115 0
DWIDTH 197 0
BBX 190 131 4 -2
BITMAP
00000000007F000000000000000000000003F80000000000
0000000003FFC0000000000000000000000FFF0000000000
0000000007FFF0000000000000000000001FFF8000000000
000000000FFFF8000000000000000000003FFFC000000000
000000001FFFFC000000000000000000007FFFE000000000
000000001FFFFE00000000000000000000FFFFE000000000
000000003FFFFE00000000000000000000FFFFF000000000
000000003FFFFF00000000000000000001FFFFF000000000
000000007FFFFF00000000000000000001FFFFF800000000
000000007FFFFF80000000000000000003FFFFF800000000
000000007FFFFF80000000000000000003FFFFF800000000
000000007FFFFFC0000000000000000007FFFFF800000000
00000000FFFFFFC0000000000000000007FFFFFC00000000
00000000FFFFFFC000000000000000000FFFFFFC00000000
00000000FFFFFFE000000000000000000FFFFFFC00000000
00000000FFFFFFE000000000000000000FFFFFFC00000000
00000001FFFFFFF000000000000000001FFFFFFE00000000
00000001FFFFFFF000000000000000001FFFFFFE00000000
00000001FFFFFFF800000000000000003FFFFFFE00000000
00000003FFFFFFF800000000000000003FFFFFFF00000000
00000003FFFFFFFC00000000000000007FFFFFFF00000000
00000003FFFFFFFC00000000000000007FFFFFFF00000000
00000003FFFFFFFC00000000000000007FFFFFFF00000000
00000007FFFFFFFE0000000000000000FFFFFFFF80000000
00000007FFFFFFFE0000000000000000FFFFFFFF80000000
00000007FFFFFFFF0000000000000001FFFFFFFF80000000
00000007FFFFFFFF0000000000000001FFFFFFFF80000000
0000000FFFFFFFFF8000000000000003FFFFFFFFC0000000
0000000FFFFFFFFF8000000000000003FFFFFFFFC0000000
0000000FFFFFFFFF8000000000000007FFFFFFFFC0000000
0000001FFFFFFFFFC000000000000007FFFFFFFFE0000000
0000001FFFFFFFFFC000000000000007FFFFFFFFE0000000
0000001FFFFFFFFFE00000000000000FFFFFFFFFE0000000
0000001FFFFFFFFFE00000000000000FFFFFFFFFE0000000
0000003FFFFFFFFFF00000000000001FFFFFFFFFF0000000
0000003FFFFFFFFFF00000000000001FFFFFFFFFF0000000
0000003FFFFFFFFFF80000000000003FFFFFFFFFF0000000
0000007FFFFFFFFFF80000000000003FFFFFFFFFF8000000
0000007FFFFFFFFFF80000000000003FFFFFFFFFF8000000
0000007FFFFFFFFFFC0000000000007FFFFFFFFFF8000000
0000007FFFFFFFFFFC0000000000007FFFFDFFFFF8000000
000000FFFFFEFFFFFE000000000000FFFFFDFFFFFC000000
000000FFFFFCFFFFFE000000000000FFFFFDFFFFFC000000
000000FFFFFC7FFFFF000000000001FFFFF8FFFFFC000000
000000FFFFFC7FFFFF000000000001FFFFF8FFFFFC000000
000001FFFFF87FFFFF800000000003FFFFF0FFFFFE000000
000001FFFFF83FFFFF800000000003FFFFF07FFFFE000000
000001FFFFF83FFFFF800000000003FFFFE07FFFFE000000
000003FFFFF81FFFFFC00000000007FFFFE07FFFFF000000
000003FFFFF01FFFFFC00000000007FFFFC07FFFFF000000
000003FFFFF00FFFFFE0000000000FFFFFC03FFFFF000000
000003FFFFF00FFFFFE0000000000FFFFFC03FFFFF000000
000007FFFFE007FFFFF0000000001FFFFF803FFFFF800000
000007FFFFE007FFFFF0000000001FFFFF801FFFFF800000
000007FFFFE007FFFFF0000000003FFFFF001FFFFF800000
000007FFFFE003FFFFF8000000003FFFFF001FFFFF800000
00000FFFFFC003FFFFF8000000003FFFFE001FFFFFC00000
00000FFFFFC001FFFFFC000000007FFFFE000FFFFFC00000
00000FFFFFC001FFFFFC000000007FFFFC000FFFFFC00000
00001FFFFFC000FFFFFE00000000FFFFFC000FFFFFE00000
00001FFFFF8000FFFFFE00000000FFFFFC000FFFFFE00000
00001FFFFF8000FFFFFF00000001FFFFF80007FFFFE00000
00001FFFFF80007FFFFF00000001FFFFF80007FFFFE00000
00003FFFFF00007FFFFF00000001FFFFF00007FFFFF00000
00003FFFFF00003FFFFF80000003FFFFF00003FFFFF00000
00003FFFFF00003FFFFF80000003FFFFE00003FFFFF00000
00007FFFFF00001FFFFFC0000007FFFFE00003FFFFF00000
00007FFFFE00001FFFFFC0000007FFFFE00003FFFFF80000
00007FFFFE00000FFFFFE000000FFFFFC00001FFFFF80000
00007FFFFE00000FFFFFE000000FFFFFC00001FFFFF80000
0000FFFFFE00000FFFFFF000001FFFFF800001FFFFFC0000
0000FFFFFC000007FFFFF000001FFFFF800001FFFFFC0000
0000FFFFFC000007FFFFF000001FFFFF000000FFFFFC0000
0000FFFFFC000003FFFFF800003FFFFF000000FFFFFC0000
0001FFFFF8000003FFFFF800003FFFFE000000FFFFFE0000
0001FFFFF8000001FFFFFC00007FFFFE0000007FFFFE0000
0001FFFFF8000001FFFFFC00007FFFFE0000007FFFFE0000
0003FFFFF8000000FFFFFE0000FFFFFC0000007FFFFF0000
0003FFFFF0000000FFFFFE0000FFFFFC0000007FFFFF0000
0003FFFFF0000000FFFFFE0001FFFFF80000003FFFFF0000
0003FFFFF00000007FFFFF0001FFFFF80000003FFFFF0000
0007FFFFE00000007FFFFF0001FFFFF00000003FFFFF8000
0007FFFFE00000003FFFFF8003FFFFF00000001FFFFF8000
0007FFFFE00000003FFFFF8003FFFFE00000001FFFFF8000
0007FFFFE00000001FFFFFC007FFFFE00000001FFFFF8000
000FFFFFC00000001FFFFFC007FFFFE00000001FFFFFC000
000FFFFFC00000001FFFFFE00FFFFFC00000000FFFFFC000
000FFFFFC00000000FFFFFE00FFFFFC00000000FFFFFC000
001FFFFFC00000000FFFFFE00FFFFF800000000FFFFFE000
001FFFFF8000000007FFFFF01FFFFF800000000FFFFFE000
001FFFFF8000000007FFFFF01FFFFF0000000007FFFFE000
001FFFFF8000000003FFFFF83FFFFF0000000007FFFFE000
003FFFFF0000000003FFFFF83FFFFF0000000007FFFFF000
003FFFFF0000000001FFFFFC7FFFFE0000000003FFFFF000
003FFFFF0000000001FFFFFC7FFFFE0000000003FFFFF000
007FFFFF0000000001FFFFFCFFFFFC0000000003FFFFF000
007FFFFE0000000000FFFFFEFFFFFC0000000003FFFFF800
007FFFFE0000000000FFFFFEFFFFF80000000001FFFFF800
007FFFFE00000000007FFFFFFFFFF80000000001FFFFF800
00FFFFFE00000000007FFFFFFFFFF00000000001FFFFFC00
00FFFFFC00000000003FFFFFFFFFF00000000001FFFFFC00
00FFFFFC00000000003FFFFFFFFFF00000000000FFFFFC00
00FFFFFC00000000003FFFFFFFFFE00000000000FFFFFC00
01FFFFF800000000001FFFFFFFFFE00000000000FFFFFE00
01FFFFF800000000001FFFFFFFFFC000000000007FFFFE00
01FFFFF800000000000FFFFFFFFFC000000000007FFFFE00
03FFFFF800000000000FFFFFFFFF8000000000007FFFFE00
03FFFFF0000000000007FFFFFFFF8000000000007FFFFF00
03FFFFF0000000000007FFFFFFFF0000000000003FFFFF00
03FFFFF0000000000003FFFFFFFF0000000000003FFFFF00
07FFFFE0000000000003FFFFFFFF0000000000003FFFFF80
07FFFFE0000000000003FFFFFFFE0000000000001FFFFF80
07FFFFE0000000000001FFFFFFFE0000000000001FFFFF80
07FFFFE0000000000001FFFFFFFC0000000000001FFFFF80
0FFFFFC0000000000000FFFFFFFC0000000000001FFFFFC0
0FFFFFC0000000000000FFFFFFF80000000000000FFFFFC0
0FFFFFC00000000000007FFFFFF80000000000000FFFFFC0
1FFFFFC00000000000007FFFFFF80000000000000FFFFFC0
1FFFFF800000000000007FFFFFF00000000000000FFFFFE0
1FFFFF800000000000003FFFFFF000000000000007FFFFE0
1FFFFF800000000000003FFFFFE000000000000007FFFFE0
3FFFFF000000000000001FFFFFE000000000000007FFFFF0
3FFFFF000000000000001FFFFFC000000000000003FFFFF0
3FFFFF000000000000000FFFFFC000000000000003FFFFF0
7FFFFF000000000000000FFFFF8000000000000003FFFFF0
7FFFFE0000000000000007FFFF8000000000000003FFFFF8
7FFFFE0000000000000007FFFF0000000000000001FFFFF8
7FFFFE0000000000000003FFFE0000000000000001FFFFF8
FFFFFE0000000000000001FFFC0000000000000001FFFFFC
00000000000000000000007FF80000000000000000000000
00000000000000000000001FC00000000000000000000000
ENDCHAR
STARTCHAR N
ENCODING 78
SWIDTH 873 0
DWIDTH 155 0
BBX 133 129 11 0
BITMAP
01FC000000000000000000000001FFFFF8
07FF800000000000000000000001FFFFF8
0FFFC00000000000000000000001FFFFF8
1FFFF00000000000000000000001FFFFF8
3FFFF80000000000000000000001FFFFF8
7FFFFC0000000000000000000001FFFFF8
7FFFFE0000000000000000000001FFFFF8
FFFFFF0000000000000000000001FFFFF8
FFFFFF8000000000000000000001FFFFF8
FFFFFFC000000000000000000001FFFFF8
FFFFFFE000000000000000000001FFFFF8
FFFFFFF000000000000000000001FFFFF8
FFFFFFF800000000000000000001FFFFF8
FFFFFFFC00000000000000000001FFFFF8
FFFFFFFE00000000000000000001FFFFF8
FFFFFFFF00000000000000000001FFFFF8
FFFFFFFF80000000000000000001FFFFF8
FFFFFFFFC0000000000000000001FFFFF8
FFFFFFFFE0000000000000000001FFFFF8
FFFFFFFFF0000000000000000001FFFFF8
FFFFFFFFF8000000000000000001FFFFF8
FFFFFFFFFC000000000000000001FFFFF8
FFFFFFFFFE000000000000000001FFFFF8
FFFFFFFFFF000000000000000001FFFFF8
FFFFFFFFFF800000000000000001FFFFF8
FFFFFFFFFFC00000000000000001FFFFF8
FFFFFFFFFFE00000000000000001FFFFF8
FFFFFFFFFFF00000000000000001FFFFF8
FFFFFFFFFFF80000000000000001FFFFF8
FFFFFFFFFFFC0000000000000001FFFFF8
FFFFFFFFFFFE0000000000000001FFFFF8
FFFFFFFFFFFF0000000000000001FFFFF8
FFFFFFFFFFFF8000000000000001FFFFF8
FFFFFFFFFFFFC000000000000001FFFFF8
FFFFFFFFFFFFE000000000000001FFFFF8
FFFFFFFFFFFFF000000000000001FFFFF8
FFFFFFFFFFFFF800000000000001FFFFF8
FFFFFBFFFFFFFC00000000000001FFFFF8
FFFFF9FFFFFFFE00000000000001FFFFF8
FFFFF87FFFFFFF00000000000001FFFFF8
FFFFF83FFFFFFF80000000000001FFFFF8
FFFFF81FFFFFFFC0000000000001FFFFF8
FFFFF80FFFFFFFE0000000000001FFFFF8
FFFFF807FFFFFFF0000000000001FFFFF8
FFFFF803FFFFFFF8000000000001FFFFF8
FFFFF801FFFFFFFC000000000001FFFFF8
FFFFF800FFFFFFFE000000000001FFFFF8
FFFFF8007FFFFFFF000000000001FFFFF8
FFFFF8003FFFFFFF800000000001FFFFF8
FFFFF8001FFFFFFFC00000000001FFFFF8
FFFFF8000FFFFFFFE00000000001FFFFF8
FFFFF80007FFFFFFF00000000001FFFFF8
FFFFF80003FFFFFFF80000000001FFFFF8
FFFFF80001FFFFFFFC0000000001FFFFF8
FFFFF80000FFFFFFFE0000000001FFFFF8
FFFFF800007FFFFFFF0000000001FFFFF8
FFFFF800003FFFFFFF8000000001FFFFF8
FFFFF800001FFFFFFFE000000001FFFFF8
FFFFF800000FFFFFFFF000000001FFFFF8
FFFFF8000007FFFFFFF800000001FFFFF8
FFFFF8000003FFFFFFFC00000001FFFFF8
FFFFF8000001FFFFFFFE00000001FFFFF8
FFFFF8000000FFFFFFFF00000001FFFFF8
FFFFF80000007FFFFFFF80000001FFFFF8
FFFFF80000003FFFFFFFC0000001FFFFF8
FFFFF80000001FFFFFFFE0000001FFFFF8
FFFFF80000000FFFFFFFF0000001FFFFF8
FFFFF800000007FFFFFFF8000001FFFFF8
FFFFF800000003FFFFFFFC000001FFFFF8
FFFFF800000001FFFFFFFE000001FFFFF8
FFFFF800000000FFFFFFFF000001FFFFF8
FFFFF8000000007FFFFFFF800001FFFFF8
FFFFF8000000003FFFFFFFC00001FFFFF8
FFFFF8000000001FFFFFFFE00001FFFFF8
FFFFF8000000000FFFFFFFF00001FFFFF8
FFFFF80000000007FFFFFFF80001FFFFF8
FFFFF80000000003FFFFFFFC0001FFFFF8
FFFFF80000000001FFFFFFFE0001FFFFF8
FFFFF800000000007FFFFFFF0001FFFFF8
FFFFF800000000007FFFFFFF8001FFFFF8
FFFFF800000000001FFFFFFFC001FFFFF8
FFFFF800000000000FFFFFFFE001FFFFF8
FFFFF8000000000007FFFFFFF001FFFFF8
FFFFF8000000000003FFFFFFF801FFFFF8
FFFFF8000000000001FFFFFFFC01FFFFF8
FFFFF8000000000000FFFFFFFE01FFFFF8
FFFFF80000000000007FFFFFFF01FFFFF8
FFFFF80000000000003FFFFFFF81FFFFF8
FFFFF80000000000001FFFFFFFC1FFFFF8
FFFFF80000000000000FFFFFFFE1FFFFF8
FFFFF800000000000007FFFFFFF1FFFFF8
FFFFF800000000000003FFFFFFF9FFFFF8
FFFFF800000000000001FFFFFFFDFFFFF8
FFFFF800000000000000FFFFFFFFFFFFF8
FFFFF8000000000000007FFFFFFFFFFFF8
FFFFF8000000000000003FFFFFFFFFFFF8
FFFFF8000000000000001FFFFFFFFFFFF8
FFFFF8000000000000000FFFFFFFFFFFF8
FFFFF80000000000000007FFFFFFFFFFF8
FFFFF80000000000000003FFFFFFFFFFF8
FFFFF80000000000000001FFFFFFFFFFF8
FFFFF80000000000000000FFFFFFFFFFF8
FFFFF800000000000000007FFFFFFFFFF8
FFFFF800000000000000003FFFFFFFFFF8
FFFFF800000000000000001FFFFFFFFFF8
FFFFF800000000000000000FFFFFFFFFF8
FFFFF8000000000000000007FFFFFFFFF8
FFFFF8000000000000000003FFFFFFFFF8
FFFFF8000000000000000001FFFFFFFFF8
FFFFF8000000000000000000FFFFFFFFF8
FFFFF80000000000000000007FFFFFFFF8
FFFFF80000000000000000003FFFFFFFF8
FFFFF80000000000000000001FFFFFFFF8
FFFFF80000000000000000000FFFFFFFF8
FFFFF800000000000000000007FFFFFFF8
FFFFF800000000000000000003FFFFFFF8
FFFFF800000000000000000001FFFFFFF8
FFFFF800000000000000000000FFFFFFF8
FFFFF8000000000000000000007FFFFFF8
FFFFF8000000000000000000001FFFFFF8
FFFFF8000000000000000000000FFFFFF0
FFFFF80000000000000000000007FFFFF0
FFFFF80000000000000000000003FFFFF0
FFFFF80000000000000000000001FFFFE0
FFFFF80000000000000000000000FFFFE0
FFFFF800000000000000000000007FFFC0
FFFFF800000000000000000000003FFF80
FFFFF800000000000000000000000FFE00
FFFFF8000000000000000000000003F800
ENDCHAR
STARTCHAR O
ENCODING 79
SWIDTH 968 0
DWIDTH 171 0
BBX 157 129 7 0
BITMAP
00000000000003FFFFFFFFFFFE00000000000000
000000000000FFFFFFFFFFFFFFF8000000000000
00000000000FFFFFFFFFFFFFFFFFC00000000000
00000000007FFFFFFFFFFFFFFFFFF80000000000
0000000003FFFFFFFFFFFFFFFFFFFF0000000000
000000000FFFFFFFFFFFFFFFFFFFFFC000000000
000000003FFFFFFFFFFFFFFFFFFFFFF000000000
00000000FFFFFFFFFFFFFFFFFFFFFFFC00000000
00000003FFFFFFFFFFFFFFFFFFFFFFFF00000000
0000000FFFFFFFFFFFFFFFFFFFFFFFFFC0000000
0000001FFFFFFFFFFFFFFFFFFFFFFFFFE0000000
0000007FFFFFFFFFFFFFFFFFFFFFFFFFF8000000
000000FFFFFFFFFFFFFFFFFFFFFFFFFFFC000000
000003FFFFFFFFFFFFFFFFFFFFFFFFFFFE000000
000007FFFFFFFFFFFFFFFFFFFFFFFFFFFF000000
00000FFFFFFFFFFFFFFFFFFFFFFFFFFFFFC00000
00001FFFFFFFFFFFFFFFFFFFFFFFFFFFFFE00000
00003FFFFFFFFFFFFFFFFFFFFFFFFFFFFFF00000
00007FFFFFFFFFFFFFFFFFFFFFFFFFFFFFF80000
0000FFFFFFFFFFFFFFFFFFFFFFFFFFFFFFFC0000
0001FFFFFFFFFFFFFFFFFFFFFFFFFFFFFFFC0000
0003FFFFFFFFFFFFFFFFFFFFFFFFFFFFFFFE0000
0003FFFFFFFFFFFFFFFFFFFFFFFFFFFFFFFF0000
0007FFFFFFFFFC000000000000FFFFFFFFFF8000
000FFFFFFFFFC00000000000001FFFFFFFFFC000
001FFFFFFFFE0000000000000003FFFFFFFFC000
001FFFFFFFF80000000000000000FFFFFFFFE000
003FFFFFFFE000000000000000003FFFFFFFF000
007FFFFFFF8000000000000000000FFFFFFFF000
007FFFFFFF00000000000000000003FFFFFFF800
00FFFFFFFC00000000000000000001FFFFFFF800
00FFFFFFF800000000000000000000FFFFFFFC00
01FFFFFFF0000000000000000000007FFFFFFC00
01FFFFFFE0000000000000000000001FFFFFFE00
03FFFFFFC0000000000000000000000FFFFFFE00
03FFFFFF80000000000000000000000FFFFFFF00
07FFFFFF000000000000000000000007FFFFFF00
07FFFFFE000000000000000000000003FFFFFF80
07FFFFFE000000000000000000000001FFFFFF80
0FFFFFFC000000000000000000000000FFFFFF80
0FFFFFF8000000000000000000000000FFFFFFC0
0FFFFFF80000000000000000000000007FFFFFC0
1FFFFFF00000000000000000000000007FFFFFC0
1FFFFFF00000000000000000000000003FFFFFE0
1FFFFFE00000000000000000000000003FFFFFE0
3FFFFFE00000000000000000000000001FFFFFE0
3FFFFFC00000000000000000000000001FFFFFE0
3FFFFFC00000000000000000000000000FFFFFF0
3FFFFF800000000000000000000000000FFFFFF0
3FFFFF800000000000000000000000000FFFFFF0
7FFFFF8000000000000000000000000007FFFFF0
7FFFFF8000000000000000000000000007FFFFF0
7FFFFF0000000000000000000000000007FFFFF8
7FFFFF0000000000000000000000000003FFFFF8
7FFFFF0000000000000000000000000003FFFFF8
7FFFFF0000000000000000000000000003FFFFF8
7FFFFE0000000000000000000000000003FFFFF8
7FFFFE0000000000000000000000000003FFFFF8
7FFFFE0000000000000000000000000003FFFFF8
FFFFFE0000000000000000000000000001FFFFF8
FFFFFE0000000000000000000000000001FFFFF8
FFFFFE0000000000000000000000000001FFFFF8
FFFFFE0000000000000000000000000001FFFFF8
FFFFFE0000000000000000000000000001FFFFF8
FFFFFE0000000000000000000000000001FFFFF8
FFFFFE0000000000000000000000000001FFFFF8
FFFFFE0000000000000000000000000001FFFFF8
7FFFFE0000000000000000000000000001FFFFF8
7FFFFE0000000000000000000000000001FFFFF8
7FFFFE0000000000000000000000000003FFFFF8
7FFFFE0000000000000000000000000003FFFFF8
7FFFFE0000000000000000000000000003FFFFF8
7FFFFF0000000000000000000000000003FFFFF8
7FFFFF0000000000000000000000000003FFFFF8
7FFFFF0000000000000000000000000003FFFFF0
7FFFFF0000000000000000000000000007FFFFF0
3FFFFF0000000000000000000000000007FFFFF0
3FFFFF8000000000000000000000000007FFFFF0
3FFFFF8000000000000000000000000007FFFFF0
3FFFFF800000000000000000000000000FFFFFF0
3FFFFFC00000000000000000000000000FFFFFE0
1FFFFFC00000000000000000000000000FFFFFE0
1FFFFFC00000000000000000000000001FFFFFE0
1FFFFFE00000000000000000000000001FFFFFC0
1FFFFFE00000000000000000000000003FFFFFC0
0FFFFFF00000000000000000000000003FFFFFC0
0FFFFFF00000000000000000000000007FFFFFC0
0FFFFFF80000000000000000000000007FFFFF80
07FFFFFC000000000000000000000000FFFFFF80
07FFFFFC000000000000000000000001FFFFFF00
03FFFFFE000000000000000000000001FFFFFF00
03FFFFFF000000000000000000000003FFFFFF00
03FFFFFF000000000000000000000007FFFFFE00
01FFFFFF80000000000000000000000FFFFFFE00
01FFFFFFC0000000000000000000001FFFFFFC00
00FFFFFFE0000000000000000000003FFFFFFC00
00FFFFFFF0000000000000000000007FFFFFF800
007FFFFFF800000000000000000000FFFFFFF800
007FFFFFFE00000000000000000001FFFFFFF000
003FFFFFFF00000000000000000007FFFFFFF000
001FFFFFFFC000000000000000000FFFFFFFE000
001FFFFFFFE000000000000000003FFFFFFFC000
000FFFFFFFF80000000000000000FFFFFFFFC000
0007FFFFFFFE0000000000000003FFFFFFFF8000
0007FFFFFFFFC00000000000001FFFFFFFFF0000
0003FFFFFFFFFC000000000000FFFFFFFFFE0000
0001FFFFFFFFFFFFFFFFFFFFFFFFFFFFFFFE0000
0000FFFFFFFFFFFFFFFFFFFFFFFFFFFFFFFC0000
00007FFFFFFFFFFFFFFFFFFFFFFFFFFFFFF80000
00003FFFFFFFFFFFFFFFFFFFFFFFFFFFFFF00000
00001FFFFFFFFFFFFFFFFFFFFFFFFFFFFFE00000
00000FFFFFFFFFFFFFFFFFFFFFFFFFFFFFC00000
000007FFFFFFFFFFFFFFFFFFFFFFFFFFFF800000
000003FFFFFFFFFFFFFFFFFFFFFFFFFFFF000000
000001FFFFFFFFFFFFFFFFFFFFFFFFFFFE000000
000000FFFFFFFFFFFFFFFFFFFFFFFFFFFC000000
0000007FFFFFFFFFFFFFFFFFFFFFFFFFF0000000
0000001FFFFFFFFFFFFFFFFFFFFFFFFFE0000000
0000000FFFFFFFFFFFFFFFFFFFFFFFFF80000000
00000003FFFFFFFFFFFFFFFFFFFFFFFF00000000
00000001FFFFFFFFFFFFFFFFFFFFFFFC00000000
000000007FFFFFFFFFFFFFFFFFFFFFF800000000
000000001FFFFFFFFFFFFFFFFFFFFFE000000000
0000000007FFFFFFFFFFFFFFFFFFFF8000000000
0000000001FFFFFFFFFFFFFFFFFFFC0000000000
00000000003FFFFFFFFFFFFFFFFFF00000000000
000000000007FFFFFFFFFFFFFFFF000000000000
0000000000007FFFFFFFFFFFFFF8000000000000
00000000000003FFFFFFFFFFFC00000000000000
ENDCHAR
STARTCHAR P
ENCODING 80
SWIDTH 867 0
DWIDTH 153 0
BBX 138 129 11 0
BITMAP
FFFFFFFFFFFFFFFFFFFFFFFFE00000000000
FFFFFFFFFFFFFFFFFFFFFFFFFF8000000000
FFFFFFFFFFFFFFFFFFFFFFFFFFF000000000
FFFFFFFFFFFFFFFFFFFFFFFFFFFE00000000
FFFFFFFFFFFFFFFFFFFFFFFFFFFF80000000
FFFFFFFFFFFFFFFFFFFFFFFFFFFFF0000000
FFFFFFFFFFFFFFFFFFFFFFFFFFFFF8000000
FFFFFFFFFFFFFFFFFFFFFFFFFFFFFE000000
FFFFFFFFFFFFFFFFFFFFFFFFFFFFFF800000
FFFFFFFFFFFFFFFFFFFFFFFFFFFFFFC00000
FFFFFFFFFFFFFFFFFFFFFFFFFFFFFFE00000
FFFFFFFFFFFFFFFFFFFFFFFFFFFFFFF00000
FFFFFFFFFFFFFFFFFFFFFFFFFFFFFFF80000
FFFFFFFFFFFFFFFFFFFFFFFFFFFFFFFC0000
FFFFFFFFFFFFFFFFFFFFFFFFFFFFFFFE0000
FFFFFFFFFFFFFFFFFFFFFFFFFFFFFFFF0000
FFFFFFFFFFFFFFFFFFFFFFFFFFFFFFFF8000
FFFFFFFFFFFFFFFFFFFFFFFFFFFFFFFFC000
FFFFFFFFFFFFFFFFFFFFFFFFFFFFFFFFC000
FFFFFFFFFFFFFFFFFFFFFFFFFFFFFFFFE000
FFFFFFFFFFFFFFFFFFFFFFFFFFFFFFFFE000
FFFFFFFFFFFFFFFFFFFFFFFFFFFFFFFFF000
FFFFFFFFFFFFFFFFFFFFFFFFFFFFFFFFF800
FFFFFC0000000000000000001FFFFFFFF800
FFFFFC00000000000000000003FFFFFFFC00
FFFFFC00000000000000000000FFFFFFFC00
FFFFFC000000000000000000003FFFFFFC00
FFFFFC000000000000000000001FFFFFFE00
FFFFFC000000000000000000000FFFFFFE00
FFFFFC0000000000000000000007FFFFFE00
FFFFFC0000000000000000000003FFFFFF00
FFFFFC0000000000000000000001FFFFFF00
FFFFFC0000000000000000000000FFFFFF00
FFFFFC00000000000000000000007FFFFF00
FFFFFC00000000000000000000007FFFFF80
FFFFFC00000000000000000000003FFFFF80
FFFFFC00000000000000000000003FFFFF80
FFFFFC00000000000000000000003FFFFF80
FFFFFC00000000000000000000001FFFFF80
FFFFFC00000000000000000000001FFFFF80
FFFFFC00000000000000000000001FFFFF80
FFFFFC00000000000000000000001FFFFFC0
FFFFFC00000000000000000000001FFFFFC0
FFFFFC00000000000000000000000FFFFFC0
FFFFFC00000000000000000000000FFFFFC0
FFFFFC00000000000000000000000FFFFFC0
FFFFFC00000000000000000000000FFFFFC0
FFFFFC00000000000000000000000FFFFFC0
FFFFFC00000000000000000000000FFFFFC0
FFFFFC00000000000000000000000FFFFFC0
FFFFFC00000000000000000000001FFFFFC0
FFFFFC00000000000000000000001FFFFF80
FFFFFC00000000000000000000001FFFFF80
FFFFFC00000000000000000000001FFFFF80
FFFFFC00000000000000000000001FFFFF80
FFFFFC00000000000000000000003FFFFF80
FFFFFC00000000000000000000003FFFFF80
FFFFFC00000000000000000000003FFFFF80
FFFFFC00000000000000000000007FFFFF00
FFFFFC00000000000000000000007FFFFF00
FFFFFC0000000000000000000000FFFFFF00
FFFFFC0000000000000000000001FFFFFF00
FFFFFC0000000000000000000001FFFFFE00
FFFFFC0000000000000000000003FFFFFE00
FFFFFC0000000000000000000007FFFFFE00
FFFFFC000000000000000000000FFFFFFC00
FFFFFC000000000000000000001FFFFFFC00
FFFFFC000000000000000000007FFFFFFC00
FFFFFC00000000000000000001FFFFFFF800
FFFFFC00000000000000000007FFFFFFF800
FFFFFC0000000000000000007FFFFFFFF000
FFFFFC0001FFFFFFFFFFFFFFFFFFFFFFF000
FFFFFC0001FFFFFFFFFFFFFFFFFFFFFFE000
FFFFFC0001FFFFFFFFFFFFFFFFFFFFFFC000
FFFFFC0001FFFFFFFFFFFFFFFFFFFFFFC000
FFFFFC0001FFFFFFFFFFFFFFFFFFFFFF8000
FFFFFC0001FFFFFFFFFFFFFFFFFFFFFF0000
FFFFFC0001FFFFFFFFFFFFFFFFFFFFFE0000
FFFFFC0001FFFFFFFFFFFFFFFFFFFFFE0000
FFFFFC0001FFFFFFFFFFFFFFFFFFFFFC0000
FFFFFC0001FFFFFFFFFFFFFFFFFFFFF80000
FFFFFC0001FFFFFFFFFFFFFFFFFFFFF00000
FFFFFC0001FFFFFFFFFFFFFFFFFFFFE00000
FFFFFC0001FFFFFFFFFFFFFFFFFFFF800000
FFFFFC0001FFFFFFFFFFFFFFFFFFFF000000
FFFFFC0001FFFFFFFFFFFFFFFFFFFC000000
FFFFFC0001FFFFFFFFFFFFFFFFFFF8000000
FFFFFC0001FFFFFFFFFFFFFFFFFFE0000000
FFFFFC0001FFFFFFFFFFFFFFFFFF80000000
FFFFFC0001FFFFFFFFFFFFFFFFFE00000000
FFFFFC0001FFFFFFFFFFFFFFFFF000000000
FFFFFC0001FFFFFFFFFFFFFFFF0000000000
FFFFFC0001FFFFFFFFFFFFFFE00000000000
FFFFFC000000000000000000000000000000
FFFFFC000000000000000000000000000000
FFFFFC000000000000000000000000000000
FFFFFC000000000000000000000000000000
FFFFFC000000000000000000000000000000
FFFFFC000000000000000000000000000000
FFFFFC000000000000000000000000000000
FFFFFC000000000000000000000000000000
FFFFFC000000000000000000000000000000
FFFFFC000000000000000000000000000000
FFFFFC000000000000000000000000000000
FFFFFC000000000000000000000000000000
FFFFFC000000000000000000000000000000
FFFFFC000000000000000000000000000000
FFFFFC000000000000000000000000000000
FFFFFC000000000000000000000000000000
FFFFFC000000000000000000000000000000
FFFFFC000000000000000000000000000000
FFFFFC000000000000000000000000000000
FFFFFC000000000000000000000000000000
FFFFFC000000000000000000000000000000
FFFFFC000000000000000000000000000000
FFFFFC000000000000000000000000000000
FFFFFC000000000000000000000000000000
FFFFFC000000000000000000000000000000
FFFFFC000000000000000000000000000000
FFFFFC000000000000000000000000000000
FFFFFC000000000000000000000000000000
FFFFFC000000000000000000000000000000
FFFFFC000000000000000000000000000000
FFFFFC000000000000000000000000000000
FFFFFC000000000000000000000000000000
FFFFFC000000000000000000000000000000
FFFFFC000000000000000000000000000000
FFFFFC000000000000000000000000000000
FFFFFC000000000000000000000000000000
ENDCHAR
STARTCHAR Q
ENCODING 81
SWIDTH 968 0
DWIDTH 171 0
BBX 164 129 7 0
BITMAP
00000000000003FFFFFFFFFFFE0000000000000000
000000000000FFFFFFFFFFFFFFF800000000000000
00000000000FFFFFFFFFFFFFFFFFC0000000000000
00000000007FFFFFFFFFFFFFFFFFF8000000000000
0000000003FFFFFFFFFFFFFFFFFFFF000000000000
000000000FFFFFFFFFFFFFFFFFFFFFC00000000000
000000003FFFFFFFFFFFFFFFFFFFFFF00000000000
00000000FFFFFFFFFFFFFFFFFFFFFFFC0000000000
00000003FFFFFFFFFFFFFFFFFFFFFFFF0000000000
0000000FFFFFFFFFFFFFFFFFFFFFFFFFC000000000
0000001FFFFFFFFFFFFFFFFFFFFFFFFFE000000000
0000007FFFFFFFFFFFFFFFFFFFFFFFFFF800000000
000000FFFFFFFFFFFFFFFFFFFFFFFFFFFC00000000
000003FFFFFFFFFFFFFFFFFFFFFFFFFFFE00000000
000007FFFFFFFFFFFFFFFFFFFFFFFFFFFF00000000
00000FFFFFFFFFFFFFFFFFFFFFFFFFFFFFC0000000
00001FFFFFFFFFFFFFFFFFFFFFFFFFFFFFE0000000
00003FFFFFFFFFFFFFFFFFFFFFFFFFFFFFF0000000
00007FFFFFFFFFFFFFFFFFFFFFFFFFFFFFF8000000
0000FFFFFFFFFFFFFFFFFFFFFFFFFFFFFFFC000000
0001FFFFFFFFFFFFFFFFFFFFFFFFFFFFFFFC000000
0003FFFFFFFFFFFFFFFFFFFFFFFFFFFFFFFE000000
0003FFFFFFFFFFFFFFFFFFFFFFFFFFFFFFFF000000
0007FFFFFFFFFC000000000000FFFFFFFFFF800000
000FFFFFFFFFC00000000000001FFFFFFFFFC00000
001FFFFFFFFE0000000000000003FFFFFFFFC00000
001FFFFFFFF80000000000000000FFFFFFFFE00000
003FFFFFFFE000000000000000003FFFFFFFF00000
007FFFFFFF8000000000000000000FFFFFFFF00000
007FFFFFFF00000000000000000003FFFFFFF80000
00FFFFFFFC00000000000000000001FFFFFFF80000
00FFFFFFF800000000000000000000FFFFFFFC0000
01FFFFFFF0000000000000000000007FFFFFFC0000
01FFFFFFE0000000000000000000001FFFFFFE0000
03FFFFFFC0000000000000000000000FFFFFFE0000
03FFFFFF80000000000000000000000FFFFFFF0000
07FFFFFF000000000000000000000007FFFFFF0000
07FFFFFE000000000000000000000003FFFFFF8000
07FFFFFE000000000000000000000001FFFFFF8000
0FFFFFFC000000000000000000000000FFFFFF8000
0FFFFFF8000000000000000000000000FFFFFFC000
0FFFFFF80000000000000000000000007FFFFFC000
1FFFFFF00000000000000000000000007FFFFFC000
1FFFFFF00000000000000000000000003FFFFFE000
1FFFFFE00000000000000000000000003FFFFFE000
3FFFFFE00000000000000000000000001FFFFFE000
3FFFFFC00000000000000000000000001FFFFFE000
3FFFFFC00000000000000000000000000FFFFFF000
3FFFFF800000000000000000000000000FFFFFF000
3FFFFF800000000000000000000000000FFFFFF000
7FFFFF8000000000000000000000000007FFFFF000
7FFFFF8000000000000000000000000007FFFFF000
7FFFFF0000000000000000000000000007FFFFF800
7FFFFF0000000000000000000000000003FFFFF800
7FFFFF0000000000000000000000000003FFFFF800
7FFFFF0000000000000000000000000003FFFFF800
7FFFFE0000000000000000000000000003FFFFF800
7FFFFE0000000000000000000000000003FFFFF800
7FFFFE0000000000000000000000000003FFFFF800
FFFFFE0000000000000000000000000001FFFFF800
FFFFFE0000000000000000000000000001FFFFF800
FFFFFE0000000000000000000000000001FFFFF800
FFFFFE0000000000000000000000000001FFFFF800
FFFFFE0000000000000000000000000001FFFFF800
FFFFFE0000000000000000000000000001FFFFF800
FFFFFE0000000000000000000000000001FFFFF800
FFFFFE0000000000000000000000000001FFFFF800
7FFFFE0000000000000000000000000001FFFFF800
7FFFFE0000000000000000000000000001FFFFF800
7FFFFE0000000000000000000000000003FFFFF800
7FFFFE0000000000000000000000000003FFFFF800
7FFFFE0000000000000000000000000003FFFFF800
7FFFFF0000000000000000000000000003FFFFF800
7FFFFF0000000000000000000000000003FFFFF800
7FFFFF0000000000000000000000000003FFFFF000
7FFFFF0000000000080000000000000007FFFFF000
3FFFFF000000000007FFFFFFE000000007FFFFF000
3FFFFF800000000003FFFFFFF000000007FFFFF000
3FFFFF800000000000FFFFFFF800000007FFFFF000
3FFFFF8000000000007FFFFFFC0000000FFFFFF000
3FFFFFC000000000003FFFFFFF0000000FFFFFE000
1FFFFFC000000000001FFFFFFF8000000FFFFFE000
1FFFFFC0000000000007FFFFFFC000001FFFFFE000
1FFFFFE0000000000003FFFFFFE000001FFFFFE000
1FFFFFE0000000000001FFFFFFF000003FFFFFC000
0FFFFFF00000000000007FFFFFF800003FFFFFC000
0FFFFFF00000000000003FFFFFFE00007FFFFFC000
0FFFFFF80000000000001FFFFFFF00007FFFFF8000
07FFFFFC0000000000000FFFFFFF8000FFFFFF8000
07FFFFFC00000000000003FFFFFFC001FFFFFF8000
03FFFFFE00000000000001FFFFFFE001FFFFFF0000
03FFFFFF00000000000000FFFFFFF803FFFFFF0000
03FFFFFF000000000000007FFFFFFC07FFFFFE0000
01FFFFFF800000000000001FFFFFFE0FFFFFFE0000
01FFFFFFC00000000000000FFFFFFF1FFFFFFC0000
00FFFFFFE000000000000007FFFFFFBFFFFFFC0000
00FFFFFFF000000000000001FFFFFFFFFFFFF80000
007FFFFFF800000000000000FFFFFFFFFFFFF80000
007FFFFFFE000000000000007FFFFFFFFFFFF00000
003FFFFFFF000000000000003FFFFFFFFFFFF00000
001FFFFFFFC00000000000000FFFFFFFFFFFE00000
001FFFFFFFE000000000000007FFFFFFFFFFC00000
000FFFFFFFF800000000000003FFFFFFFFFFC00000
0007FFFFFFFE00000000000001FFFFFFFFFF800000
0007FFFFFFFFC00000000000007FFFFFFFFF000000
0003FFFFFFFFFC000000000001FFFFFFFFFE000000
0001FFFFFFFFFFFFFFFFFFFFFFFFFFFFFFFE000000
0000FFFFFFFFFFFFFFFFFFFFFFFFFFFFFFFC000000
00007FFFFFFFFFFFFFFFFFFFFFFFFFFFFFF8000000
00003FFFFFFFFFFFFFFFFFFFFFFFFFFFFFF0000000
00001FFFFFFFFFFFFFFFFFFFFFFFFFFFFFF0000000
00000FFFFFFFFFFFFFFFFFFFFFFFFFFFFFF8000000
000007FFFFFFFFFFFFFFFFFFFFFFFFFFFFFC000000
000003FFFFFFFFFFFFFFFFFFFFFFFFFFFFFF000000
000001FFFFFFFFFFFFFFFFFFFFFFFFFFFFFF800000
000000FFFFFFFFFFFFFFFFFFFFFFFFFFFFFFC00000
0000007FFFFFFFFFFFFFFFFFFFFFFFFFFFFFF00000
0000001FFFFFFFFFFFFFFFFFFFFFFFFFFFFFF80000
0000000FFFFFFFFFFFFFFFFFFFFFFFFFFFFFFC0000
00000003FFFFFFFFFFFFFFFFFFFFFFFFFFFFFE0000
00000001FFFFFFFFFFFFFFFFFFFFFFFFFFFFFF8000
000000007FFFFFFFFFFFFFFFFFFFFFFFFFFFFFC000
000000001FFFFFFFFFFFFFFFFFFFFFE3FFFFFFE000
0000000007FFFFFFFFFFFFFFFFFFFF81FFFFFFF800
0000000001FFFFFFFFFFFFFFFFFFFC00FFFFFFFC00
00000000003FFFFFFFFFFFFFFFFFE0003FFFFFFE00
000000000007FFFFFFFFFFFFFFFF00001FFFFFFF00
0000000000007FFFFFFFFFFFFFF000000FFFFFFFC0
00000000000003FFFFFFFFFFFE00000007FFFFFFF0
ENDCHAR
STARTCHAR R
ENCODING 82
SWIDTH 921 0
DWIDTH 163 0
BBX 151 129 11 0
BITMAP
FFFFFFFFFFFFFFFFFFFFFFFFF8000000000000
FFFFFFFFFFFFFFFFFFFFFFFFFFC00000000000
FFFFFFFFFFFFFFFFFFFFFFFFFFFC0000000000
FFFFFFFFFFFFFFFFFFFFFFFFFFFF8000000000
FFFFFFFFFFFFFFFFFFFFFFFFFFFFE000000000
FFFFFFFFFFFFFFFFFFFFFFFFFFFFF800000000
FFFFFFFFFFFFFFFFFFFFFFFFFFFFFE00000000
FFFFFFFFFFFFFFFFFFFFFFFFFFFFFF80000000
FFFFFFFFFFFFFFFFFFFFFFFFFFFFFFC0000000
FFFFFFFFFFFFFFFFFFFFFFFFFFFFFFE0000000
FFFFFFFFFFFFFFFFFFFFFFFFFFFFFFF8000000
FFFFFFFFFFFFFFFFFFFFFFFFFFFFFFFC000000
FFFFFFFFFFFFFFFFFFFFFFFFFFFFFFFE000000
FFFFFFFFFFFFFFFFFFFFFFFFFFFFFFFF000000
FFFFFFFFFFFFFFFFFFFFFFFFFFFFFFFF800000
FFFFFFFFFFFFFFFFFFFFFFFFFFFFFFFF800000
FFFFFFFFFFFFFFFFFFFFFFFFFFFFFFFFC00000
FFFFFFFFFFFFFFFFFFFFFFFFFFFFFFFFE00000
FFFFFFFFFFFFFFFFFFFFFFFFFFFFFFFFF00000
FFFFFFFFFFFFFFFFFFFFFFFFFFFFFFFFF00000
FFFFFFFFFFFFFFFFFFFFFFFFFFFFFFFFF80000
FFFFFFFFFFFFFFFFFFFFFFFFFFFFFFFFF80000
FFFFFFFFFFFFFFFFFFFFFFFFFFFFFFFFFC0000
FFFFFC00000000000000000007FFFFFFFC0000
FFFFFC00000000000000000000FFFFFFFE0000
FFFFFC000000000000000000003FFFFFFE0000
FFFFFC000000000000000000000FFFFFFF0000
FFFFFC0000000000000000000007FFFFFF0000
FFFFFC0000000000000000000001FFFFFF0000
FFFFFC0000000000000000000000FFFFFF8000
FFFFFC0000000000000000000000FFFFFF8000
FFFFFC00000000000000000000007FFFFF8000
FFFFFC00000000000000000000003FFFFFC000
FFFFFC00000000000000000000003FFFFFC000
FFFFFC00000000000000000000001FFFFFC000
FFFFFC00000000000000000000001FFFFFC000
FFFFFC00000000000000000000000FFFFFC000
FFFFFC00000000000000000000000FFFFFE000
FFFFFC00000000000000000000000FFFFFE000
FFFFFC00000000000000000000000FFFFFE000
FFFFFC000000000000000000000007FFFFE000
FFFFFC000000000000000000000007FFFFE000
FFFFFC000000000000000000000007FFFFE000
FFFFFC000000000000000000000007FFFFE000
FFFFFC000000000000000000000007FFFFE000
FFFFFC000000000000000000000007FFFFE000
FFFFFC000000000000000000000007FFFFE000
FFFFFC000000000000000000000007FFFFE000
FFFFFC000000000000000000000007FFFFE000
FFFFFC000000000000000000000007FFFFE000
FFFFFC000000000000000000000007FFFFE000
FFFFFC000000000000000000000007FFFFE000
FFFFFC000000000000000000000007FFFFE000
FFFFFC000000000000000000000007FFFFE000
FFFFFC000000000000000000000007FFFFE000
FFFFFC00000000000000000000000FFFFFE000
FFFFFC00000000000000000000000FFFFFE000
FFFFFC00000000000000000000000FFFFFC000
FFFFFC00000000000000000000000FFFFFC000
FFFFFC00000000000000000000001FFFFFC000
FFFFFC00000000000000000000001FFFFFC000
FFFFFC00000000000000000000003FFFFFC000
FFFFFC00000000000000000000003FFFFF8000
FFFFFC00000000000000000000007FFFFF8000
FFFFFC0000000000000000000000FFFFFF8000
FFFFFC0000000000000000000000FFFFFF0000
FFFFFC0000000000000000000001FFFFFF0000
FFFFFC0000000000000000000003FFFFFF0000
FFFFFC0000000000000000000007FFFFFE0000
FFFFFC000000000000000000001FFFFFFE0000
FFFFFC000000000000000000007FFFFFFC0000
FFFFFC00000000000000000001FFFFFFFC0000
FFFFFC0000000000000000001FFFFFFFF80000
FFFFFC0001FFFFFFFFFFFFFFFFFFFFFFF80000
FFFFFC0001FFFFFFFFFFFFFFFFFFFFFFF00000
FFFFFC0001FFFFFFFFFFFFFFFFFFFFFFE00000
FFFFFC0001FFFFFFFFFFFFFFFFFFFFFFC00000
FFFFFC0001FFFFFFFFFFFFFFFFFFFFFFC00000
FFFFFC0001FFFFFFFFFFFFFFFFFFFFFF800000
FFFFFC0001FFFFFFFFFFFFFFFFFFFFFF000000
FFFFFC0001FFFFFFFFFFFFFFFFFFFFFE000000
FFFFFC0001FFFFFFFFFFFFFFFFFFFFFC000000
FFFFFC0001FFFFFFFFFFFFFFFFFFFFF8000000
FFFFFC0001FFFFFFFFFFFFFFFFFFFFF0000000
FFFFFC0001FFFFFFFFFFFFFFFFFFFFC0000000
FFFFFC0001FFFFFFFFFFFFFFFFFFFF80000000
FFFFFC0001FFFFFFFFFFFFFFFFFFFE00000000
FFFFFC0001FFFFFFFFFFFFFFFFFFF800000000
FFFFFC0001FFFFFFFFFFFFFFFFFFE000000000
FFFFFC0001FFFFFFFFFFFFFFFFFF8000000000
FFFFFC0001FFFFFFFFFFFFFFFFFFC000000000
FFFFFC0001FFFFFFFFFFFFFFFFFFE000000000
FFFFFC0001FFFFFFFFFFFFFFFFFFF000000000
FFFFFC0000000000000000FFFFFFF800000000
FFFFFC0000000000000000FFFFFFFC00000000
FFFFFC00000000000000007FFFFFFE00000000
FFFFFC00000000000000003FFFFFFE00000000
FFFFFC00000000000000001FFFFFFF00000000
FFFFFC00000000000000000FFFFFFF80000000
FFFFFC000000000000000007FFFFFFC0000000
FFFFFC000000000000000003FFFFFFE0000000
FFFFFC000000000000000001FFFFFFF0000000
FFFFFC000000000000000000FFFFFFF8000000
FFFFFC0000000000000000007FFFFFFC000000
FFFFFC0000000000000000007FFFFFFE000000
FFFFFC0000000000000000003FFFFFFF000000
FFFFFC0000000000000000001FFFFFFF800000
FFFFFC0000000000000000000FFFFFFFC00000
FFFFFC00000000000000000007FFFFFFE00000
FFFFFC00000000000000000003FFFFFFF00000
FFFFFC00000000000000000001FFFFFFF80000
FFFFFC00000000000000000000FFFFFFFC0000
FFFFFC000000000000000000007FFFFFFE0000
FFFFFC000000000000000000003FFFFFFF0000
FFFFFC000000000000000000003FFFFFFF8000
FFFFFC000000000000000000001FFFFFFFC000
FFFFFC000000000000000000000FFFFFFFE000
FFFFFC0000000000000000000007FFFFFFF000
FFFFFC0000000000000000000003FFFFFFF800
FFFFFC0000000000000000000001FFFFFFFC00
FFFFFC0000000000000000000000FFFFFFFE00
FFFFFC00000000000000000000007FFFFFFF00
FFFFFC00000000000000000000003FFFFFFF80
FFFFFC00000000000000000000001FFFFFFFC0
FFFFFC00000000000000000000000FFFFFFFE0
FFFFFC00000000000000000000000FFFFFFFF0
FFFFFC000000000000000000000007FFFFFFF8
FFFFFC000000000000000000000003FFFFFFFC
FFFFFC000000000000000000000001FFFFFFFE
ENDCHAR
STARTCHAR S
ENCODING 83
SWIDTH 880 0
DWIDTH 156 0
BBX 139 129 9 0
BITMAP
00000000FFFFFFFFFFFFFFFFFFFFFFFFF000
0000001FFFFFFFFFFFFFFFFFFFFFFFFFF000
000000FFFFFFFFFFFFFFFFFFFFFFFFFFF000
000007FFFFFFFFFFFFFFFFFFFFFFFFFFF000
00001FFFFFFFFFFFFFFFFFFFFFFFFFFFF000
00007FFFFFFFFFFFFFFFFFFFFFFFFFFFF000
0001FFFFFFFFFFFFFFFFFFFFFFFFFFFFF000
0003FFFFFFFFFFFFFFFFFFFFFFFFFFFFF000
000FFFFFFFFFFFFFFFFFFFFFFFFFFFFFF000
001FFFFFFFFFFFFFFFFFFFFFFFFFFFFFF000
003FFFFFFFFFFFFFFFFFFFFFFFFFFFFFF000
007FFFFFFFFFFFFFFFFFFFFFFFFFFFFFF000
00FFFFFFFFFFFFFFFFFFFFFFFFFFFFFFF000
01FFFFFFFFFFFFFFFFFFFFFFFFFFFFFFF000
01FFFFFFFFFFFFFFFFFFFFFFFFFFFFFFF000
03FFFFFFFFFFFFFFFFFFFFFFFFFFFFFFF000
07FFFFFFFFFFFFFFFFFFFFFFFFFFFFFFF000
07FFFFFFFFFFFFFFFFFFFFFFFFFFFFFFF000
0FFFFFFFFFFFFFFFFFFFFFFFFFFFFFFFF000
0FFFFFFFFFFFFFFFFFFFFFFFFFFFFFFFF000
1FFFFFFFFFFFFFFFFFFFFFFFFFFFFFFFF000
1FFFFFFFFFFFFFFFFFFFFFFFFFFFFFFFF000
3FFFFFFFFFFFFFFFFFFFFFFFFFFFFFFFF000
3FFFFFFF8000000000000000000000000000
3FFFFFFE0000000000000000000000000000
3FFFFFF80000000000000000000000000000
7FFFFFF00000000000000000000000000000
7FFFFFE00000000000000000000000000000
7FFFFFC00000000000000000000000000000
7FFFFFC00000000000000000000000000000
7FFFFF800000000000000000000000000000
FFFFFF800000000000000000000000000000
FFFFFF000000000000000000000000000000
FFFFFF000000000000000000000000000000
FFFFFF000000000000000000000000000000
FFFFFF000000000000000000000000000000
FFFFFF000000000000000000000000000000
FFFFFF000000000000000000000000000000
FFFFFF000000000000000000000000000000
FFFFFF000000000000000000000000000000
FFFFFF000000000000000000000000000000
FFFFFF000000000000000000000000000000
7FFFFF000000000000000000000000000000
7FFFFF000000000000000000000000000000
7FFFFF000000000000000000000000000000
7FFFFF800000000000000000000000000000
7FFFFF800000000000000000000000000000
3FFFFFC00000000000000000000000000000
3FFFFFE00000000000000000000000000000
3FFFFFE00000000000000000000000000000
1FFFFFF80000000000000000000000000000
1FFFFFFC0000000000000000000000000000
0FFFFFFF0000000000000000000000000000
0FFFFFFFE000000000000000000000000000
07FFFFFFFFFFFFFFFFFFFFFFFFE000000000
07FFFFFFFFFFFFFFFFFFFFFFFFFF80000000
03FFFFFFFFFFFFFFFFFFFFFFFFFFF8000000
03FFFFFFFFFFFFFFFFFFFFFFFFFFFE000000
01FFFFFFFFFFFFFFFFFFFFFFFFFFFF800000
00FFFFFFFFFFFFFFFFFFFFFFFFFFFFE00000
007FFFFFFFFFFFFFFFFFFFFFFFFFFFF80000
003FFFFFFFFFFFFFFFFFFFFFFFFFFFFC0000
001FFFFFFFFFFFFFFFFFFFFFFFFFFFFF0000
000FFFFFFFFFFFFFFFFFFFFFFFFFFFFF8000
0007FFFFFFFFFFFFFFFFFFFFFFFFFFFFC000
0003FFFFFFFFFFFFFFFFFFFFFFFFFFFFE000
0000FFFFFFFFFFFFFFFFFFFFFFFFFFFFF000
00007FFFFFFFFFFFFFFFFFFFFFFFFFFFF000
00001FFFFFFFFFFFFFFFFFFFFFFFFFFFF800
000007FFFFFFFFFFFFFFFFFFFFFFFFFFFC00
000000FFFFFFFFFFFFFFFFFFFFFFFFFFFC00
0000001FFFFFFFFFFFFFFFFFFFFFFFFFFE00
00000000FFFFFFFFFFFFFFFFFFFFFFFFFE00
00000000000000000000000000FFFFFFFF00
000000000000000000000000000FFFFFFF00
0000000000000000000000000003FFFFFF00
0000000000000000000000000000FFFFFF80
00000000000000000000000000007FFFFF80
00000000000000000000000000003FFFFF80
00000000000000000000000000001FFFFF80
00000000000000000000000000001FFFFFC0
00000000000000000000000000000FFFFFC0
00000000000000000000000000000FFFFFC0
000000000000000000000000000007FFFFC0
000000000000000000000000000007FFFFC0
000000000000000000000000000007FFFFC0
000000000000000000000000000007FFFFC0
000000000000000000000000000007FFFFE0
000000000000000000000000000007FFFFE0
000000000000000000000000000007FFFFE0
000000000000000000000000000007FFFFE0
000000000000000000000000000007FFFFE0
000000000000000000000000000007FFFFE0
000000000000000000000000000007FFFFE0
000000000000000000000000000007FFFFE0
00000000000000000000000000000FFFFFC0
00000000000000000000000000000FFFFFC0
00000000000000000000000000000FFFFFC0
00000000000000000000000000001FFFFFC0
00000000000000000000000000001FFFFFC0
00000000000000000000000000003FFFFFC0
00000000000000000000000000007FFFFFC0
0000000000000000000000000000FFFFFF80
0000000000000000000000000003FFFFFF80
0000000000000000000000000007FFFFFF80
000000000000000000000000003FFFFFFF00
3FFFFFFFFFFFFFFFFFFFFFFFFFFFFFFFFF00
3FFFFFFFFFFFFFFFFFFFFFFFFFFFFFFFFF00
3FFFFFFFFFFFFFFFFFFFFFFFFFFFFFFFFE00
3FFFFFFFFFFFFFFFFFFFFFFFFFFFFFFFFE00
3FFFFFFFFFFFFFFFFFFFFFFFFFFFFFFFFC00
3FFFFFFFFFFFFFFFFFFFFFFFFFFFFFFFFC00
3FFFFFFFFFFFFFFFFFFFFFFFFFFFFFFFF800
3FFFFFFFFFFFFFFFFFFFFFFFFFFFFFFFF800
3FFFFFFFFFFFFFFFFFFFFFFFFFFFFFFFF000
3FFFFFFFFFFFFFFFFFFFFFFFFFFFFFFFE000
3FFFFFFFFFFFFFFFFFFFFFFFFFFFFFFFC000
3FFFFFFFFFFFFFFFFFFFFFFFFFFFFFFF8000
3FFFFFFFFFFFFFFFFFFFFFFFFFFFFFFF8000
3FFFFFFFFFFFFFFFFFFFFFFFFFFFFFFE0000
3FFFFFFFFFFFFFFFFFFFFFFFFFFFFFFC0000
3FFFFFFFFFFFFFFFFFFFFFFFFFFFFFF80000
3FFFFFFFFFFFFFFFFFFFFFFFFFFFFFE00000
3FFFFFFFFFFFFFFFFFFFFFFFFFFFFFC00000
3FFFFFFFFFFFFFFFFFFFFFFFFFFFFF000000
3FFFFFFFFFFFFFFFFFFFFFFFFFFFFC000000
3FFFFFFFFFFFFFFFFFFFFFFFFFFFE0000000
3FFFFFFFFFFFFFFFFFFFFFFFFFFF00000000
3FFFFFFFFFFFFFFFFFFFFFFFFFC000000000
ENDCHAR
STARTCHAR T
ENCODING 84
SWIDTH 720 0
DWIDTH 127 0
BBX 120 129 4 0
BITMAP
FFFFFFFFFFFFFFFFFFFFFFFFFFFFFF
FFFFFFFFFFFFFFFFFFFFFFFFFFFFFF
FFFFFFFFFFFFFFFFFFFFFFFFFFFFFF
FFFFFFFFFFFFFFFFFFFFFFFFFFFFFF
FFFFFFFFFFFFFFFFFFFFFFFFFFFFFF
FFFFFFFFFFFFFFFFFFFFFFFFFFFFFF
FFFFFFFFFFFFFFFFFFFFFFFFFFFFFF
FFFFFFFFFFFFFFFFFFFFFFFFFFFFFF
FFFFFFFFFFFFFFFFFFFFFFFFFFFFFF
FFFFFFFFFFFFFFFFFFFFFFFFFFFFFF
FFFFFFFFFFFFFFFFFFFFFFFFFFFFFF
FFFFFFFFFFFFFFFFFFFFFFFFFFFFFF
FFFFFFFFFFFFFFFFFFFFFFFFFFFFFF
FFFFFFFFFFFFFFFFFFFFFFFFFFFFFF
FFFFFFFFFFFFFFFFFFFFFFFFFFFFFF
FFFFFFFFFFFFFFFFFFFFFFFFFFFFFF
FFFFFFFFFFFFFFFFFFFFFFFFFFFFFF
FFFFFFFFFFFFFFFFFFFFFFFFFFFFFF
FFFFFFFFFFFFFFFFFFFFFFFFFFFFFF
FFFFFFFFFFFFFFFFFFFFFFFFFFFFFF
FFFFFFFFFFFFFFFFFFFFFFFFFFFFFF
FFFFFFFFFFFFFFFFFFFFFFFFFFFFFF
FFFFFFFFFFFFFFFFFFFFFFFFFFFFFF
000000000000FFFFFE000000000000
000000000000FFFFFE000000000000
000000000000FFFFFE000000000000
000000000000FFFFFE000000000000
000000000000FFFFFE000000000000
000000000000FFFFFE000000000000
000000000000FFFFFE000000000000
000000000000FFFFFE000000000000
000000000000FFFFFE000000000000
000000000000FFFFFE000000000000
000000000000FFFFFE000000000000
000000000000FFFFFE000000000000
000000000000FFFFFE000000000000
000000000000FFFFFE000000000000
000000000000FFFFFE000000000000
000000000000FFFFFE000000000000
000000000000FFFFFE000000000000
000000000000FFFFFE000000000000
000000000000FFFFFE000000000000
000000000000FFFFFE000000000000
000000000000FFFFFE000000000000
000000000000FFFFFE000000000000
000000000000FFFFFE000000000000
000000000000FFFFFE000000000000
000000000000FFFFFE000000000000
000000000000FFFFFE000000000000
000000000000FFFFFE000000000000
000000000000FFFFFE000000000000
000000000000FFFFFE000000000000
000000000000FFFFFE000000000000
000000000000FFFFFE000000000000
000000000000FFFFFE000000000000
000000000000FFFFFE000000000000
000000000000FFFFFE000000000000
000000000000FFFFFE000000000000
000000000000FFFFFE000000000000
000000000000FFFFFE000000000000
000000000000FFFFFE000000000000
000000000000FFFFFE000000000000
000000000000FFFFFE000000000000
000000000000FFFFFE000000000000
000000000000FFFFFE000000000000
000000000000FFFFFE000000000000
000000000000FFFFFE000000000000
000000000000FFFFFE000000000000
000000000000FFFFFE000000000000
000000000000FFFFFE000000000000
000000000000FFFFFE000000000000
000000000000FFFFFE000000000000
000000000000FFFFFE000000000000
000000000000FFFFFE000000000000
000000000000FFFFFE000000000000
000000000000FFFFFE000000000000
000000000000FFFFFE000000000000
000000000000FFFFFE000000000000
000000000000FFFFFE000000000000
000000000000FFFFFE000000000000
000000000000FFFFFE000000000000
000000000000FFFFFE000000000000
000000000000FFFFFE000000000000
000000000000FFFFFE000000000000
000000000000FFFFFE000000000000
000000000000FFFFFE000000000000
000000000000FFFFFE000000000000
000000000000FFFFFE000000000000
000000000000FFFFFE000000000000
000000000000FFFFFE000000000000
000000000000FFFFFE000000000000
000000000000FFFFFE000000000000
000000000000FFFFFE000000000000
000000000000FFFFFE000000000000
000000000000FFFFFE000000000000
000000000000FFFFFE000000000000
000000000000FFFFFE000000000000
000000000000FFFFFE000000000000
000000000000FFFFFE000000000000
000000000000FFFFFE000000000000
000000000000FFFFFE000000000000
000000000000FFFFFE000000000000
000000000000FFFFFE000000000000
000000000000FFFFFE000000000000
000000000000FFFFFE000000000000
000000000000FFFFFE000000000000
000000000000FFFFFE000000000000
000000000000FFFFFE000000000000
000000000000FFFFFE000000000000
000000000000FFFFFE000000000000
000000000000FFFFFE000000000000
000000000000FFFFFE000000000000
000000000000FFFFFE000000000000
000000000000FFFFFE000000000000
000000000000FFFFFE000000000000
000000000000FFFFFE000000000000
000000000000FFFFFE000000000000
000000000000FFFFFE000000000000
000000000000FFFFFE000000000000
000000000000FFFFFE000000000000
000000000000FFFFFE000000000000
000000000000FFFFFE000000000000
000000000000FFFFFE000000000000
000000000000FFFFFE000000000000
000000000000FFFFFE000000000000
000000000000FFFFFE000000000000
000000000000FFFFFE000000000000
000000000000FFFFFE000000000000
000000000000FFFFFE000000000000
ENDCHAR
STARTCHAR U
ENCODING 85
SWIDTH 889 0
DWIDTH 157 0
BBX 139 131 9 -2
BITMAP
FFFFFE000000000000000000000007FFFFE0
FFFFFE000000000000000000000007FFFFE0
FFFFFE000000000000000000000007FFFFE0
FFFFFE000000000000000000000007FFFFE0
FFFFFE000000000000000000000007FFFFE0
FFFFFE000000000000000000000007FFFFE0
FFFFFE000000000000000000000007FFFFE0
FFFFFE000000000000000000000007FFFFE0
FFFFFE000000000000000000000007FFFFE0
FFFFFE000000000000000000000007FFFFE0
FFFFFE000000000000000000000007FFFFE0
FFFFFE000000000000000000000007FFFFE0
FFFFFE000000000000000000000007FFFFE0
FFFFFE000000000000000000000007FFFFE0
FFFFFE000000000000000000000007FFFFE0
FFFFFE000000000000000000000007FFFFE0
FFFFFE000000000000000000000007FFFFE0
FFFFFE000000000000000000000007FFFFE0
FFFFFE000000000000000000000007FFFFE0
FFFFFE000000000000000000000007FFFFE0
FFFFFE000000000000000000000007FFFFE0
FFFFFE000000000000000000000007FFFFE0
FFFFFE000000000000000000000007FFFFE0
FFFFFE000000000000000000000007FFFFE0
FFFFFE000000000000000000000007FFFFE0
FFFFFE000000000000000000000007FFFFE0
FFFFFE000000000000000000000007FFFFE0
FFFFFE000000000000000000000007FFFFE0
FFFFFE000000000000000000000007FFFFE0
FFFFFE000000000000000000000007FFFFE0
FFFFFE000000000000000000000007FFFFE0
FFFFFE000000000000000000000007FFFFE0
FFFFFE000000000000000000000007FFFFE0
FFFFFE000000000000000000000007FFFFE0
FFFFFE000000000000000000000007FFFFE0
FFFFFE000000000000000000000007FFFFE0
FFFFFE000000000000000000000007FFFFE0
FFFFFE000000000000000000000007FFFFE0
FFFFFE000000000000000000000007FFFFE0
FFFFFE000000000000000000000007FFFFE0
FFFFFE000000000000000000000007FFFFE0
FFFFFE000000000000000000000007FFFFE0
FFFFFE000000000000000000000007FFFFE0
FFFFFE000000000000000000000007FFFFE0
FFFFFE000000000000000000000007FFFFE0
FFFFFE000000000000000000000007FFFFE0
FFFFFE000000000000000000000007FFFFE0
FFFFFE000000000000000000000007FFFFE0
FFFFFE000000000000000000000007FFFFE0
FFFFFE000000000000000000000007FFFFE0
FFFFFE000000000000000000000007FFFFE0
FFFFFE000000000000000000000007FFFFE0
FFFFFE000000000000000000000007FFFFE0
FFFFFE000000000000000000000007FFFFE0
FFFFFE000000000000000000000007FFFFE0
FFFFFE000000000000000000000007FFFFE0
FFFFFE000000000000000000000007FFFFE0
FFFFFE000000000000000000000007FFFFE0
FFFFFE000000000000000000000007FFFFE0
FFFFFE000000000000000000000007FFFFE0
FFFFFE000000000000000000000007FFFFE0
FFFFFE000000000000000000000007FFFFE0
FFFFFE000000000000000000000007FFFFE0
FFFFFE000000000000000000000007FFFFE0
FFFFFE000000000000000000000007FFFFE0
FFFFFE000000000000000000000007FFFFE0
FFFFFE000000000000000000000007FFFFE0
FFFFFE000000000000000000000007FFFFE0
FFFFFE000000000000000000000007FFFFE0
FFFFFE000000000000000000000007FFFFE0
FFFFFE000000000000000000000007FFFFE0
FFFFFE000000000000000000000007FFFFE0
FFFFFE000000000000000000000007FFFFE0
FFFFFE000000000000000000000007FFFFE0
FFFFFE000000000000000000000007FFFFE0
FFFFFE000000000000000000000007FFFFE0
FFFFFF000000000000000000000007FFFFE0
FFFFFF000000000000000000000007FFFFE0
FFFFFF000000000000000000000007FFFFE0
FFFFFF000000000000000000000007FFFFE0
7FFFFF000000000000000000000007FFFFE0
7FFFFF00000000000000000000000FFFFFE0
7FFFFF00000000000000000000000FFFFFE0
7FFFFF00000000000000000000000FFFFFE0
7FFFFF80000000000000000000000FFFFFC0
7FFFFF80000000000000000000000FFFFFC0
7FFFFF80000000000000000000001FFFFFC0
7FFFFF80000000000000000000001FFFFFC0
3FFFFFC0000000000000000000001FFFFFC0
3FFFFFC0000000000000000000003FFFFFC0
3FFFFFE0000000000000000000003FFFFF80
3FFFFFE0000000000000000000003FFFFF80
3FFFFFE0000000000000000000007FFFFF80
1FFFFFF0000000000000000000007FFFFF80
1FFFFFF800000000000000000000FFFFFF00
1FFFFFF800000000000000000001FFFFFF00
1FFFFFFC00000000000000000003FFFFFF00
0FFFFFFE00000000000000000003FFFFFE00
0FFFFFFF00000000000000000007FFFFFE00
07FFFFFF8000000000000000000FFFFFFE00
07FFFFFFC000000000000000003FFFFFFC00
07FFFFFFF000000000000000007FFFFFFC00
03FFFFFFF80000000000000001FFFFFFF800
03FFFFFFFE0000000000000007FFFFFFF800
01FFFFFFFFC00000000000001FFFFFFFF800
01FFFFFFFFF8000000000000FFFFFFFFF000
00FFFFFFFFFF00000000000FFFFFFFFFE000
00FFFFFFFFFFFC00000001FFFFFFFFFFE000
007FFFFFFFFFFFFFFFFFFFFFFFFFFFFFC000
003FFFFFFFFFFFFFFFFFFFFFFFFFFFFF8000
001FFFFFFFFFFFFFFFFFFFFFFFFFFFFF8000
001FFFFFFFFFFFFFFFFFFFFFFFFFFFFF0000
000FFFFFFFFFFFFFFFFFFFFFFFFFFFFE0000
0007FFFFFFFFFFFFFFFFFFFFFFFFFFFC0000
0003FFFFFFFFFFFFFFFFFFFFFFFFFFF80000
0001FFFFFFFFFFFFFFFFFFFFFFFFFFF00000
0000FFFFFFFFFFFFFFFFFFFFFFFFFFE00000
00007FFFFFFFFFFFFFFFFFFFFFFFFFC00000
00001FFFFFFFFFFFFFFFFFFFFFFFFF800000
00000FFFFFFFFFFFFFFFFFFFFFFFFE000000
000007FFFFFFFFFFFFFFFFFFFFFFFC000000
000001FFFFFFFFFFFFFFFFFFFFFFF0000000
0000007FFFFFFFFFFFFFFFFFFFFFC0000000
0000001FFFFFFFFFFFFFFFFFFFFF00000000
00000007FFFFFFFFFFFFFFFFFFFC00000000
00000000FFFFFFFFFFFFFFFFFFF000000000
000000001FFFFFFFFFFFFFFFFF8000000000
0000000003FFFFFFFFFFFFFFF80000000000
00000000003FFFFFFFFFFFFF800000000000
000000000001FFFFFFFFFFE0000000000000
00000000000000FFFFFFE000000000000000
ENDCHAR
STARTCHAR V
ENCODING 86
SWIDTH 989 0
DWIDTH 175 0
BBX 170 131 2 -2
BITMAP
FFFFFFF00000000000000000000000000000FFFFFFC0
7FFFFFF80000000000000000000000000000FFFFFFC0
3FFFFFF80000000000000000000000000001FFFFFF80
1FFFFFFC0000000000000000000000000001FFFFFF00
1FFFFFFE0000000000000000000000000003FFFFFF00
0FFFFFFE0000000000000000000000000007FFFFFE00
0FFFFFFF0000000000000000000000000007FFFFFC00
07FFFFFF000000000000000000000000000FFFFFFC00
03FFFFFF800000000000000000000000000FFFFFF800
03FFFFFF800000000000000000000000001FFFFFF800
01FFFFFFC00000000000000000000000003FFFFFF000
01FFFFFFE00000000000000000000000003FFFFFE000
00FFFFFFE00000000000000000000000007FFFFFE000
007FFFFFF00000000000000000000000007FFFFFC000
007FFFFFF0000000000000000000000000FFFFFFC000
003FFFFFF8000000000000000000000001FFFFFF8000
003FFFFFFC000000000000000000000001FFFFFF0000
001FFFFFFC000000000000000000000003FFFFFF0000
000FFFFFFE000000000000000000000003FFFFFE0000
000FFFFFFE000000000000000000000007FFFFFE0000
0007FFFFFF000000000000000000000007FFFFFC0000
0007FFFFFF80000000000000000000000FFFFFF80000
0003FFFFFF80000000000000000000001FFFFFF80000
0001FFFFFFC0000000000000000000001FFFFFF00000
0001FFFFFFC0000000000000000000003FFFFFF00000
0000FFFFFFE0000000000000000000003FFFFFE00000
0000FFFFFFE0000000000000000000007FFFFFC00000
00007FFFFFF000000000000000000000FFFFFFC00000
00003FFFFFF800000000000000000000FFFFFF800000
00003FFFFFF800000000000000000001FFFFFF800000
00001FFFFFFC00000000000000000001FFFFFF000000
00001FFFFFFC00000000000000000003FFFFFE000000
00000FFFFFFE00000000000000000003FFFFFE000000
000007FFFFFF00000000000000000007FFFFFC000000
000007FFFFFF0000000000000000000FFFFFFC000000
000003FFFFFF8000000000000000000FFFFFF8000000
000003FFFFFF8000000000000000001FFFFFF0000000
000001FFFFFFC000000000000000001FFFFFF0000000
000000FFFFFFC000000000000000003FFFFFE0000000
000000FFFFFFE000000000000000007FFFFFE0000000
0000007FFFFFF000000000000000007FFFFFC0000000
0000007FFFFFF00000000000000000FFFFFF80000000
0000003FFFFFF80000000000000000FFFFFF80000000
0000001FFFFFF80000000000000001FFFFFF00000000
0000001FFFFFFC0000000000000001FFFFFF00000000
0000000FFFFFFE0000000000000003FFFFFE00000000
0000000FFFFFFE0000000000000007FFFFFC00000000
00000007FFFFFF0000000000000007FFFFFC00000000
00000003FFFFFF000000000000000FFFFFF800000000
00000003FFFFFF800000000000000FFFFFF800000000
00000001FFFFFFC00000000000001FFFFFF000000000
00000001FFFFFFC00000000000003FFFFFE000000000
00000000FFFFFFE00000000000003FFFFFE000000000
000000007FFFFFE00000000000007FFFFFC000000000
000000007FFFFFF00000000000007FFFFFC000000000
000000003FFFFFF0000000000000FFFFFF8000000000
000000003FFFFFF8000000000000FFFFFF0000000000
000000001FFFFFFC000000000001FFFFFF0000000000
000000000FFFFFFC000000000003FFFFFE0000000000
000000000FFFFFFE000000000003FFFFFE0000000000
0000000007FFFFFE000000000007FFFFFC0000000000
0000000007FFFFFF000000000007FFFFF80000000000
0000000003FFFFFF80000000000FFFFFF80000000000
0000000001FFFFFF80000000001FFFFFF00000000000
0000000001FFFFFFC0000000001FFFFFF00000000000
0000000000FFFFFFC0000000003FFFFFE00000000000
0000000000FFFFFFE0000000003FFFFFC00000000000
00000000007FFFFFF0000000007FFFFFC00000000000
00000000003FFFFFF0000000007FFFFF800000000000
00000000003FFFFFF800000000FFFFFF800000000000
00000000001FFFFFF800000001FFFFFF000000000000
00000000001FFFFFFC00000001FFFFFE000000000000
00000000000FFFFFFC00000003FFFFFE000000000000
000000000007FFFFFE00000003FFFFFC000000000000
000000000007FFFFFF00000007FFFFFC000000000000
000000000003FFFFFF0000000FFFFFF8000000000000
000000000003FFFFFF8000000FFFFFF0000000000000
000000000001FFFFFF8000001FFFFFF0000000000000
000000000000FFFFFFC000001FFFFFE0000000000000
000000000000FFFFFFE000003FFFFFE0000000000000
0000000000007FFFFFE000007FFFFFC0000000000000
0000000000007FFFFFF000007FFFFF80000000000000
0000000000003FFFFFF00000FFFFFF80000000000000
0000000000001FFFFFF80000FFFFFF00000000000000
0000000000001FFFFFF80001FFFFFF00000000000000
0000000000000FFFFFFC0001FFFFFE00000000000000
0000000000000FFFFFFE0003FFFFFC00000000000000
00000000000007FFFFFE0007FFFFFC00000000000000
00000000000003FFFFFF0007FFFFF800000000000000
00000000000003FFFFFF000FFFFFF800000000000000
00000000000001FFFFFF800FFFFFF000000000000000
00000000000001FFFFFFC01FFFFFE000000000000000
00000000000000FFFFFFC03FFFFFE000000000000000
000000000000007FFFFFE03FFFFFC000000000000000
000000000000007FFFFFE07FFFFFC000000000000000
000000000000003FFFFFF07FFFFF8000000000000000
000000000000003FFFFFF8FFFFFF0000000000000000
000000000000001FFFFFF8FFFFFF0000000000000000
000000000000000FFFFFFDFFFFFE0000000000000000
000000000000000FFFFFFFFFFFFE0000000000000000
0000000000000007FFFFFFFFFFFC0000000000000000
0000000000000007FFFFFFFFFFF80000000000000000
0000000000000003FFFFFFFFFFF80000000000000000
0000000000000001FFFFFFFFFFF00000000000000000
0000000000000001FFFFFFFFFFF00000000000000000
0000000000000000FFFFFFFFFFE00000000000000000
0000000000000000FFFFFFFFFFC00000000000000000
00000000000000007FFFFFFFFFC00000000000000000
00000000000000003FFFFFFFFF800000000000000000
00000000000000003FFFFFFFFF800000000000000000
00000000000000001FFFFFFFFF000000000000000000
00000000000000001FFFFFFFFE000000000000000000
00000000000000000FFFFFFFFE000000000000000000
000000000000000007FFFFFFFC000000000000000000
000000000000000007FFFFFFFC000000000000000000
000000000000000003FFFFFFF8000000000000000000
000000000000000003FFFFFFF0000000000000000000
000000000000000001FFFFFFF0000000000000000000
000000000000000000FFFFFFE0000000000000000000
000000000000000000FFFFFFE0000000000000000000
0000000000000000007FFFFFC0000000000000000000
0000000000000000007FFFFF80000000000000000000
0000000000000000003FFFFF80000000000000000000
0000000000000000001FFFFF00000000000000000000
0000000000000000001FFFFE00000000000000000000
0000000000000000000FFFFE00000000000000000000
00000000000000000007FFFC00000000000000000000
00000000000000000003FFF800000000000000000000
00000000000000000001FFF000000000000000000000
000000000000000000007FC000000000000000000000
00000000000000000000040000000000000000000000
ENDCHAR
ENDFONT
